<svg width="35" height="34" viewBox="0 0 35 34" fill="none" xmlns="http://www.w3.org/2000/svg">
<mask id="path-1-inside-1_211_2338" fill="white">
<path d="M20.3152 16.7289C20.1476 16.7289 19.9919 16.6828 19.8537 16.6087V16.6107C19.8537 16.8744 19.7512 17.122 19.5652 17.3075C19.3793 17.4935 19.1318 17.596 18.8684 17.596C18.6984 17.596 18.5408 17.5487 18.401 17.4726C18.3869 17.7139 18.2905 17.9394 18.1185 18.1116C17.9325 18.2975 17.685 18.4 17.4215 18.4C16.8978 18.4 16.4726 17.9884 16.442 17.4725C16.2799 17.56 16.0967 17.606 15.9078 17.5938C15.3927 17.56 14.9893 17.115 14.9893 16.5803V12.1487L14.4847 13.0229C14.2925 13.3573 13.9327 13.5649 13.5453 13.5649C13.3566 13.5649 13.1701 13.5154 13.005 13.4208C12.7993 13.3016 12.6522 13.1102 12.591 12.8812C12.5296 12.6521 12.5614 12.4125 12.6803 12.2072C12.6804 12.2072 14.3313 9.34831 14.432 9.1727C14.444 9.1463 14.4781 9.06971 14.5072 9.00444C14.5349 8.94213 14.5587 8.87817 14.5814 8.81388C15.0793 7.40832 16.3121 6.53522 17.7988 6.53522C19.7295 6.53522 21.3002 8.23843 21.3002 10.332L21.3004 15.7435C21.3004 16.0069 21.198 16.2543 21.0122 16.4405C20.8263 16.6264 20.5788 16.7289 20.3151 16.7289L20.3152 16.7289ZM17.7988 7.05876C16.5213 7.05876 15.5031 7.78035 15.0749 8.98897C15.0475 9.06572 15.019 9.14247 14.9857 9.21725C14.8891 9.43389 14.8891 9.43389 14.8619 9.46504L14.8583 9.46193C14.7235 9.71628 14.323 10.4098 13.1336 12.4692C13.0847 12.5537 13.0717 12.6518 13.0967 12.7456C13.1219 12.8394 13.1824 12.9184 13.2662 12.9668C13.5263 13.1162 13.8825 13.0197 14.0308 12.7615L15.0244 11.0412C15.0838 10.9387 15.2038 10.8883 15.3189 10.9195C15.4334 10.9501 15.5129 11.054 15.5129 11.1724V16.5805C15.5129 16.8357 15.7055 17.0559 15.9421 17.0715C16.0786 17.0787 16.2058 17.0329 16.3014 16.9375C16.3884 16.8506 16.4362 16.7348 16.4362 16.611V13.074C16.4362 12.9293 16.5535 12.8121 16.6981 12.8121C16.8428 12.8121 16.96 12.9292 16.96 13.074L16.9599 17.4149C16.9599 17.6695 17.167 17.8766 17.4215 17.8766C17.5452 17.8766 17.6613 17.8287 17.7483 17.7418C17.8353 17.6547 17.8831 17.5386 17.8831 17.4149V13.074C17.8831 12.9293 18.0002 12.8121 18.145 12.8121C18.2897 12.8121 18.4069 12.9292 18.4069 13.074L18.4068 16.5703V16.611C18.4068 16.8653 18.6139 17.0724 18.8686 17.0724C18.9921 17.0724 19.1078 17.0244 19.1954 16.9371C19.2823 16.8504 19.3302 16.7346 19.3302 16.6108V13.0738C19.3302 12.9292 19.4473 12.8119 19.5921 12.8119C19.7368 12.8119 19.854 12.929 19.854 13.0738L19.8537 15.7436C19.8537 15.9983 20.0608 16.2054 20.3151 16.2054C20.439 16.2054 20.5547 16.1574 20.6417 16.0706C20.7289 15.9834 20.7766 15.8673 20.7766 15.7436L20.7768 10.3321C20.7768 8.5274 19.4409 7.05882 17.7988 7.05882L17.7988 7.05876Z"/>
</mask>
<path d="M20.3152 16.7289C20.1476 16.7289 19.9919 16.6828 19.8537 16.6087V16.6107C19.8537 16.8744 19.7512 17.122 19.5652 17.3075C19.3793 17.4935 19.1318 17.596 18.8684 17.596C18.6984 17.596 18.5408 17.5487 18.401 17.4726C18.3869 17.7139 18.2905 17.9394 18.1185 18.1116C17.9325 18.2975 17.685 18.4 17.4215 18.4C16.8978 18.4 16.4726 17.9884 16.442 17.4725C16.2799 17.56 16.0967 17.606 15.9078 17.5938C15.3927 17.56 14.9893 17.115 14.9893 16.5803V12.1487L14.4847 13.0229C14.2925 13.3573 13.9327 13.5649 13.5453 13.5649C13.3566 13.5649 13.1701 13.5154 13.005 13.4208C12.7993 13.3016 12.6522 13.1102 12.591 12.8812C12.5296 12.6521 12.5614 12.4125 12.6803 12.2072C12.6804 12.2072 14.3313 9.34831 14.432 9.1727C14.444 9.1463 14.4781 9.06971 14.5072 9.00444C14.5349 8.94213 14.5587 8.87817 14.5814 8.81388C15.0793 7.40832 16.3121 6.53522 17.7988 6.53522C19.7295 6.53522 21.3002 8.23843 21.3002 10.332L21.3004 15.7435C21.3004 16.0069 21.198 16.2543 21.0122 16.4405C20.8263 16.6264 20.5788 16.7289 20.3151 16.7289L20.3152 16.7289ZM17.7988 7.05876C16.5213 7.05876 15.5031 7.78035 15.0749 8.98897C15.0475 9.06572 15.019 9.14247 14.9857 9.21725C14.8891 9.43389 14.8891 9.43389 14.8619 9.46504L14.8583 9.46193C14.7235 9.71628 14.323 10.4098 13.1336 12.4692C13.0847 12.5537 13.0717 12.6518 13.0967 12.7456C13.1219 12.8394 13.1824 12.9184 13.2662 12.9668C13.5263 13.1162 13.8825 13.0197 14.0308 12.7615L15.0244 11.0412C15.0838 10.9387 15.2038 10.8883 15.3189 10.9195C15.4334 10.9501 15.5129 11.054 15.5129 11.1724V16.5805C15.5129 16.8357 15.7055 17.0559 15.9421 17.0715C16.0786 17.0787 16.2058 17.0329 16.3014 16.9375C16.3884 16.8506 16.4362 16.7348 16.4362 16.611V13.074C16.4362 12.9293 16.5535 12.8121 16.6981 12.8121C16.8428 12.8121 16.96 12.9292 16.96 13.074L16.9599 17.4149C16.9599 17.6695 17.167 17.8766 17.4215 17.8766C17.5452 17.8766 17.6613 17.8287 17.7483 17.7418C17.8353 17.6547 17.8831 17.5386 17.8831 17.4149V13.074C17.8831 12.9293 18.0002 12.8121 18.145 12.8121C18.2897 12.8121 18.4069 12.9292 18.4069 13.074L18.4068 16.5703V16.611C18.4068 16.8653 18.6139 17.0724 18.8686 17.0724C18.9921 17.0724 19.1078 17.0244 19.1954 16.9371C19.2823 16.8504 19.3302 16.7346 19.3302 16.6108V13.0738C19.3302 12.9292 19.4473 12.8119 19.5921 12.8119C19.7368 12.8119 19.854 12.929 19.854 13.0738L19.8537 15.7436C19.8537 15.9983 20.0608 16.2054 20.3151 16.2054C20.439 16.2054 20.5547 16.1574 20.6417 16.0706C20.7289 15.9834 20.7766 15.8673 20.7766 15.7436L20.7768 10.3321C20.7768 8.5274 19.4409 7.05882 17.7988 7.05882L17.7988 7.05876Z" fill="#4CAF4F"/>
<path d="M20.3152 16.7289V15.8008H23.5942L20.8016 17.5193L20.3152 16.7289ZM19.8537 16.6087H18.9256V15.058L20.2923 15.7908L19.8537 16.6087ZM19.5652 17.3075L18.909 16.6512L18.9098 16.6504L19.5652 17.3075ZM18.401 17.4726L17.4745 17.4185L17.5599 15.9578L18.8449 16.6576L18.401 17.4726ZM18.1185 18.1116L18.7751 18.7675L18.7747 18.7678L18.1185 18.1116ZM16.442 17.4725L16.0007 16.656L17.282 15.9635L17.3684 17.4174L16.442 17.4725ZM15.9078 17.5938L15.8483 18.52L15.8471 18.5199L15.9078 17.5938ZM14.9893 12.1487L14.1855 11.6847L15.9174 8.68433V12.1487H14.9893ZM14.4847 13.0229L13.68 12.5604L13.6809 12.559L14.4847 13.0229ZM13.005 13.4208L12.5435 14.2261L12.5395 14.2237L13.005 13.4208ZM12.591 12.8812L13.4874 12.6406L13.4877 12.6417L12.591 12.8812ZM12.6803 12.2072L11.8771 11.7421L12.1452 11.2791H12.6803V12.2072ZM14.432 9.1727L15.2773 9.55596L15.2591 9.59615L15.2371 9.63443L14.432 9.1727ZM14.5072 9.00444L13.6591 8.62732L13.6591 8.62731L14.5072 9.00444ZM14.5814 8.81388L15.4563 9.12376L15.4562 9.12401L14.5814 8.81388ZM21.3002 10.332L20.3721 10.332V10.332H21.3002ZM21.3004 15.7435L22.2285 15.7435V15.7435H21.3004ZM21.0122 16.4405L21.6691 17.0961L21.6685 17.0967L21.0122 16.4405ZM20.3151 16.7289V17.657H17.0361L19.8287 15.9385L20.3151 16.7289ZM17.7988 7.05876V6.13067H19.0292L18.6912 7.31373L17.7988 7.05876ZM15.0749 8.98897L15.9497 9.29889L15.949 9.30089L15.0749 8.98897ZM14.9857 9.21725L15.8336 9.59471L15.8334 9.5952L14.9857 9.21725ZM14.8619 9.46504L15.5608 10.0757L14.9536 10.7706L14.2553 10.1674L14.8619 9.46504ZM14.8583 9.46193L14.0382 9.02732L14.5836 7.99836L15.4649 8.75952L14.8583 9.46193ZM13.1336 12.4692L13.9373 12.9334L13.9369 12.9341L13.1336 12.4692ZM13.0967 12.7456L12.2005 12.9868L12.1997 12.9839L13.0967 12.7456ZM13.2662 12.9668L12.804 13.7716L12.8022 13.7706L13.2662 12.9668ZM14.0308 12.7615L13.2258 12.2995L13.2271 12.2973L14.0308 12.7615ZM15.0244 11.0412L14.2207 10.577L14.2213 10.576L15.0244 11.0412ZM15.3189 10.9195L15.0788 11.816L15.0765 11.8153L15.3189 10.9195ZM15.9421 17.0715L15.8931 17.9983L15.8812 17.9976L15.9421 17.0715ZM16.3014 16.9375L16.9577 17.5937L16.9571 17.5943L16.3014 16.9375ZM16.96 13.074H17.8881V13.074L16.96 13.074ZM16.9599 17.4149H16.0318V17.4149L16.9599 17.4149ZM17.7483 17.7418L18.4052 18.3974L18.404 18.3987L17.7483 17.7418ZM18.4069 13.074H19.335V13.074L18.4069 13.074ZM18.4068 16.5703H17.4787V16.5703L18.4068 16.5703ZM19.1954 16.9371L19.8511 17.594L19.8504 17.5946L19.1954 16.9371ZM19.854 13.0738H20.7821V13.0739L19.854 13.0738ZM19.8537 15.7436H18.9256V15.7435L19.8537 15.7436ZM20.6417 16.0706L21.2979 16.7269L21.2973 16.7275L20.6417 16.0706ZM20.7766 15.7436H19.8485V15.7436L20.7766 15.7436ZM20.7768 10.3321H21.7049V10.3321L20.7768 10.3321ZM17.7988 7.05882V7.98691H16.5684L16.9064 6.80385L17.7988 7.05882ZM20.3152 17.657C19.9734 17.657 19.6683 17.5624 19.4151 17.4266L20.2923 15.7908C20.3043 15.7972 20.3119 15.7997 20.3149 15.8005C20.3175 15.8012 20.3172 15.8008 20.3152 15.8008V17.657ZM20.7818 16.6087V16.6107H18.9256V16.6087H20.7818ZM20.7818 16.6107C20.7818 17.1198 20.582 17.6042 20.2206 17.9646L18.9098 16.6504C18.9165 16.6438 18.9198 16.6381 18.9217 16.6334C18.9236 16.6288 18.9256 16.6217 18.9256 16.6107H20.7818ZM20.2215 17.9638C19.8613 18.3239 19.3777 18.5241 18.8684 18.5241V16.6679C18.8791 16.6679 18.8861 16.6659 18.8908 16.664C18.8956 16.662 18.9017 16.6585 18.909 16.6512L20.2215 17.9638ZM18.8684 18.5241C18.5222 18.5241 18.2133 18.4272 17.9572 18.2877L18.8449 16.6576C18.857 16.6641 18.8646 16.6666 18.8677 16.6675C18.8703 16.6682 18.8701 16.6679 18.8684 16.6679V18.5241ZM19.3275 17.5268C19.3008 17.9836 19.1155 18.4267 18.7751 18.7675L17.4619 17.4556C17.4653 17.4522 17.4673 17.4492 17.469 17.4453C17.4708 17.4411 17.4737 17.4326 17.4745 17.4185L19.3275 17.5268ZM18.7747 18.7678C18.4145 19.128 17.9309 19.3281 17.4215 19.3281V17.4719C17.4323 17.4719 17.4394 17.47 17.4441 17.468C17.4488 17.466 17.455 17.4625 17.4622 17.4553L18.7747 18.7678ZM17.4215 19.3281C16.3969 19.3281 15.5747 18.524 15.5155 17.5275L17.3684 17.4174C17.3694 17.4332 17.3758 17.4471 17.3872 17.458C17.3928 17.4633 17.3985 17.4667 17.4034 17.4687C17.4077 17.4705 17.4132 17.4719 17.4215 17.4719V19.3281ZM16.8832 18.2889C16.5835 18.451 16.228 18.5444 15.8483 18.52L15.9673 16.6676C15.9673 16.6676 15.9693 16.6678 15.9742 16.6667C15.9794 16.6655 15.9885 16.6626 16.0007 16.656L16.8832 18.2889ZM15.8471 18.5199C14.8166 18.4523 14.0612 17.576 14.0612 16.5803H15.9174C15.9174 16.6117 15.9288 16.6359 15.9431 16.6516C15.957 16.667 15.9664 16.6676 15.9686 16.6677L15.8471 18.5199ZM14.0612 16.5803V12.1487H15.9174V16.5803H14.0612ZM15.7931 12.6127L15.2885 13.4869L13.6809 12.559L14.1855 11.6847L15.7931 12.6127ZM15.2893 13.4854C14.9307 14.1094 14.2631 14.493 13.5453 14.493V12.6368C13.6022 12.6368 13.6543 12.6053 13.68 12.5604L15.2893 13.4854ZM13.5453 14.493C13.1943 14.493 12.8489 14.401 12.5435 14.226L13.4664 12.6155C13.4913 12.6298 13.5188 12.6368 13.5453 12.6368V14.493ZM12.5395 14.2237C12.1228 13.9821 11.8195 13.589 11.6944 13.1208L13.4877 12.6417C13.4868 12.6385 13.4845 12.6329 13.4801 12.6271C13.4756 12.6213 13.4715 12.6185 13.4705 12.6179L12.5395 14.2237ZM11.6947 13.1218C11.5691 12.654 11.6348 12.1605 11.8771 11.7421L13.4834 12.6723C13.4847 12.67 13.4871 12.6647 13.4881 12.6572C13.4891 12.6497 13.4882 12.6437 13.4874 12.6406L11.6947 13.1218ZM12.6803 11.2791C12.225 11.3984 11.8842 11.73 11.8817 11.7343C11.8808 11.7357 11.8796 11.7379 11.8792 11.7386C11.8789 11.739 11.8785 11.7396 11.8784 11.7399C11.8783 11.74 11.8782 11.7403 11.8781 11.7404C11.878 11.7406 11.878 11.7405 11.8784 11.7399C11.879 11.7388 11.8801 11.737 11.8816 11.7344C11.8847 11.7291 11.8892 11.7212 11.8953 11.7107C11.9074 11.6898 11.9251 11.659 11.9478 11.6198C11.9931 11.5413 12.058 11.429 12.1362 11.2936C12.2925 11.0229 12.502 10.6601 12.7147 10.2917C13.1407 9.55388 13.5775 8.79723 13.627 8.71097L15.2371 9.63443C15.1859 9.72378 14.7468 10.4844 14.3222 11.2199C14.1095 11.5882 13.9 11.9511 13.7436 12.2219C13.6654 12.3573 13.6005 12.4697 13.5551 12.5482C13.5324 12.5875 13.5146 12.6184 13.5024 12.6394C13.4963 12.6499 13.4916 12.6581 13.4884 12.6636C13.4868 12.6664 13.4855 12.6687 13.4845 12.6703C13.4841 12.6711 13.4835 12.6721 13.483 12.673C13.4828 12.6733 13.4822 12.6744 13.4815 12.6756C13.481 12.6763 13.4797 12.6786 13.4789 12.68C13.4763 12.6844 13.1355 13.016 12.6803 13.1353V11.2791ZM13.5868 8.78944C13.597 8.76691 13.6294 8.69426 13.6591 8.62732L15.3552 9.38157C15.3269 9.44516 15.291 9.52568 15.2773 9.55596L13.5868 8.78944ZM13.6591 8.62731C13.672 8.5983 13.6863 8.56124 13.7067 8.50376L15.4562 9.12401C15.431 9.1951 15.3977 9.28595 15.3552 9.38158L13.6591 8.62731ZM13.7066 8.50401C14.3352 6.72939 15.9174 5.60713 17.7988 5.60713V7.46331C16.7068 7.46331 15.8234 8.08725 15.4563 9.12376L13.7066 8.50401ZM17.7988 5.60713C20.3114 5.60713 22.2283 7.79807 22.2283 10.332H20.3721C20.3721 8.6788 19.1476 7.46331 17.7988 7.46331V5.60713ZM22.2283 10.332L22.2285 15.7435L20.3723 15.7435L20.3721 10.332L22.2283 10.332ZM22.2285 15.7435C22.2285 16.2524 22.0288 16.7358 21.6691 17.0961L20.3554 15.7848C20.3627 15.7775 20.3663 15.7712 20.3683 15.7663C20.3703 15.7615 20.3723 15.7543 20.3723 15.7435H22.2285ZM21.6685 17.0967C21.3082 17.457 20.8246 17.657 20.3151 17.657V15.8008C20.326 15.8008 20.3332 15.7989 20.3379 15.7969C20.3426 15.7949 20.3487 15.7915 20.356 15.7842L21.6685 17.0967ZM19.8287 15.9385L19.8288 15.9385L20.8016 17.5193L20.8015 17.5194L19.8287 15.9385ZM17.7988 7.98686C16.9164 7.98686 16.2473 8.4589 15.9497 9.29889L14.2001 8.67906C14.7589 7.10181 16.1262 6.13067 17.7988 6.13067V7.98686ZM15.949 9.30089C15.9197 9.38299 15.8817 9.48668 15.8336 9.59471L14.1378 8.8398C14.1563 8.79826 14.1753 8.74845 14.2008 8.67706L15.949 9.30089ZM15.8334 9.5952C15.7909 9.69052 15.7552 9.77102 15.728 9.82555C15.7111 9.85939 15.6837 9.91154 15.644 9.96931C15.6038 10.0278 15.564 10.072 15.5608 10.0757L14.163 8.85439C14.1652 8.8519 14.1645 8.85271 14.1634 8.85398C14.1619 8.85563 14.1583 8.85983 14.1536 8.8656C14.1487 8.87158 14.1425 8.8793 14.1356 8.88848C14.1285 8.89774 14.1214 8.90759 14.1143 8.91798C14.0997 8.93913 14.0885 8.95767 14.0806 8.97168C14.0731 8.98476 14.0686 8.99382 14.0676 8.99586C14.0665 8.99797 14.0672 8.99673 14.0703 8.98997C14.0734 8.98343 14.0777 8.97401 14.0839 8.96029C14.0901 8.9467 14.0974 8.93028 14.1065 8.90999C14.1156 8.88973 14.1259 8.86652 14.1381 8.83931L15.8334 9.5952ZM14.2553 10.1674L14.2517 10.1643L15.4649 8.75952L15.4685 8.76264L14.2553 10.1674ZM15.6783 9.89653C15.5331 10.1706 15.1184 10.8883 13.9373 12.9334L12.3299 12.0051C13.5276 9.93126 13.9139 9.26195 14.0382 9.02732L15.6783 9.89653ZM13.9369 12.9341C14.0111 12.8057 14.0318 12.6509 13.9936 12.5072L12.1997 12.9839C12.1117 12.6526 12.1583 12.3016 12.3303 12.0044L13.9369 12.9341ZM13.9929 12.5043C13.9547 12.3624 13.8608 12.2384 13.7302 12.163L12.8022 13.7706C12.5041 13.5984 12.2892 13.3163 12.2005 12.9868L13.9929 12.5043ZM13.7285 12.162C13.6229 12.1013 13.5201 12.1017 13.4492 12.1208C13.3785 12.1399 13.2879 12.1914 13.2258 12.2995L14.8357 13.2234C14.4312 13.9282 13.5068 14.1753 12.804 13.7716L13.7285 12.162ZM13.2271 12.2973L14.2207 10.577L15.8281 11.5054L14.8345 13.2257L13.2271 12.2973ZM14.2213 10.576C14.4894 10.1132 15.0365 9.88156 15.5614 10.0236L15.0765 11.8153C15.3711 11.8951 15.6782 11.7642 15.8275 11.5063L14.2213 10.576ZM15.5591 10.023C16.0798 10.1625 16.441 10.6343 16.441 11.1724H14.5849C14.5849 11.4736 14.787 11.7378 15.0788 11.816L15.5591 10.023ZM16.441 11.1724V16.5805H14.5849V11.1724H16.441ZM16.441 16.5805C16.441 16.4747 16.4019 16.3786 16.3375 16.305C16.2733 16.2315 16.16 16.1557 16.0031 16.1454L15.8812 17.9976C15.0999 17.9461 14.5849 17.2656 14.5849 16.5805H16.441ZM15.9911 16.1447C15.8815 16.1389 15.7475 16.179 15.6458 16.2807L16.9571 17.5943C16.6641 17.8868 16.2756 18.0185 15.8931 17.9983L15.9911 16.1447ZM15.6452 16.2812C15.5571 16.3693 15.5081 16.49 15.5081 16.611H17.3643C17.3643 16.9796 17.2196 17.3318 16.9577 17.5937L15.6452 16.2812ZM15.5081 16.611V13.074H17.3643V16.611H15.5081ZM15.5081 13.074C15.5081 12.4168 16.0409 11.884 16.6981 11.884V13.7402C17.0661 13.7402 17.3643 13.4419 17.3643 13.074H15.5081ZM16.6981 11.884C17.355 11.884 17.8881 12.4162 17.8881 13.074H16.0319C16.0319 13.4421 16.3306 13.7402 16.6981 13.7402V11.884ZM17.8881 13.074L17.888 17.415L16.0318 17.4149L16.0319 13.074L17.8881 13.074ZM17.888 17.4149C17.888 17.1569 17.6796 16.9485 17.4215 16.9485V18.8047C16.6544 18.8047 16.0318 18.182 16.0318 17.4149H17.888ZM17.4215 16.9485C17.3007 16.9485 17.1806 16.9971 17.0927 17.0849L18.404 18.3987C18.1419 18.6602 17.7896 18.8047 17.4215 18.8047V16.9485ZM17.0915 17.0861C17.0037 17.174 16.9551 17.2941 16.9551 17.4149H18.8112C18.8112 17.783 18.6668 18.1353 18.4052 18.3974L17.0915 17.0861ZM16.9551 17.4149V13.074H18.8112V17.4149H16.9551ZM16.9551 13.074C16.9551 12.4172 17.4873 11.884 18.145 11.884V13.7402C18.5132 13.7402 18.8112 13.4415 18.8112 13.074H16.9551ZM18.145 11.884C18.8019 11.884 19.335 12.4162 19.335 13.074H17.4788C17.4788 13.4421 17.7775 13.7402 18.145 13.7402V11.884ZM19.335 13.074L19.3349 16.5703L17.4787 16.5703L17.4788 13.0739L19.335 13.074ZM19.3349 16.5703V16.611H17.4787V16.5703H19.3349ZM19.3349 16.611C19.3349 16.3523 19.126 16.1443 18.8686 16.1443V18.0005C18.1018 18.0005 17.4787 17.3783 17.4787 16.611H19.3349ZM18.8686 16.1443C18.7453 16.1443 18.6259 16.1945 18.5404 16.2796L19.8504 17.5946C19.5898 17.8543 19.2389 18.0005 18.8686 18.0005V16.1443ZM18.5398 16.2803C18.451 16.3689 18.4021 16.4899 18.4021 16.6108H20.2583C20.2583 16.9793 20.1137 17.3319 19.8511 17.594L18.5398 16.2803ZM18.4021 16.6108V13.0738H20.2583V16.6108H18.4021ZM18.4021 13.0738C18.4021 12.417 18.9344 11.8838 19.5921 11.8838V13.74C19.9603 13.74 20.2583 13.4414 20.2583 13.0738H18.4021ZM19.5921 11.8838C20.2489 11.8838 20.7821 12.416 20.7821 13.0738H18.9259C18.9259 13.4419 19.2246 13.74 19.5921 13.74V11.8838ZM20.7821 13.0739L20.7818 15.7437L18.9256 15.7435L18.9259 13.0737L20.7821 13.0739ZM20.7818 15.7436C20.7818 15.4862 20.5738 15.2773 20.3151 15.2773V17.1335C19.5478 17.1335 18.9256 16.5104 18.9256 15.7436H20.7818ZM20.3151 15.2773C20.1934 15.2773 20.0733 15.3266 19.986 15.4137L21.2973 16.7275C21.0362 16.9881 20.6845 17.1335 20.3151 17.1335V15.2773ZM19.9854 15.4144C19.897 15.5027 19.8485 15.6233 19.8485 15.7436H21.7047C21.7047 16.1112 21.5608 16.464 21.2979 16.7269L19.9854 15.4144ZM19.8485 15.7436L19.8487 10.3321L21.7049 10.3321L21.7047 15.7436L19.8485 15.7436ZM19.8487 10.3321C19.8487 8.95538 18.8477 7.98691 17.7988 7.98691V6.13072C20.0342 6.13072 21.7049 8.09941 21.7049 10.3321H19.8487ZM16.9064 6.80385L16.9065 6.8038L18.6912 7.31373L18.6912 7.31378L16.9064 6.80385Z" fill="#4CAF4F" mask="url(#path-1-inside-1_211_2338)"/>
<path d="M11.8326 21.7038C11.7083 21.7786 11.5476 21.7383 11.4733 21.6141C11.3988 21.4902 11.4392 21.3293 11.563 21.2548M11.8326 21.7038L14.0952 18.6593C14.3138 18.528 14.6021 18.5798 14.7369 18.7748M11.8326 21.7038L14.8654 19.8843H14.8656L14.8659 19.8842M11.8326 21.7038L16.03 20.2625C16.1359 20.1989 16.2107 20.0982 16.2405 19.9786M11.563 21.2548L14.596 19.4353C14.7019 19.3717 14.7769 19.2708 14.8067 19.1516M11.563 21.2548L11.5937 21.306L11.6977 21.4794L11.6979 21.4797L11.7447 21.5578L11.8017 21.6528L11.8018 21.6527L11.8019 21.6527L11.8021 21.6525M11.563 21.2548L11.5937 21.306M14.8067 19.1516C14.8395 19.0208 14.8146 18.8869 14.7369 18.7748M14.8067 19.1516L14.8816 19.1704L14.8744 19.0165C14.8695 18.9106 14.8385 18.8166 14.7861 18.741L14.786 18.7408L14.7369 18.7748M14.8067 19.1516L14.8816 19.1704L14.889 19.3292L14.7371 19.4203H14.7369L14.6267 19.4864L14.6267 19.4864L14.6267 19.4864L11.5938 21.3059M14.7369 18.7748L14.7859 18.7408L12.5466 22.8933C12.6419 22.836 12.6733 22.7121 12.6156 22.616C12.5584 22.5206 12.4341 22.4893 12.3384 22.5466L15.3712 20.7272C15.4409 20.6854 15.514 20.6538 15.5886 20.6321L16.059 20.3109L16.059 20.3108L16.0849 20.2932C16.1952 20.2178 16.2683 20.1134 16.2983 19.9932L16.2983 19.9931L16.2405 19.9786M11.5938 21.3059C11.6893 21.2488 11.8135 21.2798 11.8711 21.3752C11.8712 21.3754 11.8713 21.3756 11.8715 21.3759C11.9287 21.4719 11.8971 21.5954 11.8021 21.6525M11.5938 21.3059C11.5938 21.3059 11.5938 21.306 11.5937 21.306M11.5938 21.3059L11.5937 21.306M11.8021 21.6525L14.8347 19.8333L14.8348 19.8332L14.8349 19.8331C14.835 19.8331 14.8351 19.833 14.8352 19.833L14.8654 19.8834L14.8656 19.8836L14.8659 19.8842M11.8021 21.6525L11.6981 21.4796L11.6979 21.4792L11.6627 21.4207L11.5937 21.306M14.8659 19.8842V19.8137C14.9245 19.7754 14.978 19.7309 15.0258 19.6814L15.5251 19.4208L15.5251 19.4208L15.5527 19.4063C15.633 19.3644 15.7139 19.3449 15.7908 19.3449C15.8323 19.3449 15.8752 19.35 15.9189 19.3608C15.9189 19.3608 15.9189 19.3609 15.919 19.3609C15.9191 19.3609 15.9193 19.3609 15.9194 19.361L16.0171 18.9686M14.8659 19.8842L15.555 19.4707C15.6606 19.4074 15.7843 19.3889 15.9045 19.4188C16.024 19.4486 16.1249 19.5234 16.1884 19.6292C16.2518 19.7351 16.2704 19.8592 16.2405 19.9786M16.0171 18.9686C16.0171 18.9686 16.0171 18.9686 16.017 18.9686M16.0171 18.9686C16.2562 19.0283 16.4596 19.1793 16.5862 19.3903L16.6373 19.3597M16.0171 18.9686L16.0315 18.9107M16.017 18.9686L15.919 19.3609C16.0548 19.3948 16.1673 19.4782 16.2393 19.5983C16.2394 19.5984 16.2394 19.5984 16.2395 19.5985C16.2395 19.5985 16.2395 19.5985 16.2395 19.5985C16.3117 19.7193 16.3321 19.8577 16.2983 19.9929L16.2983 19.9931L16.2405 19.9786M16.017 18.9686C16.017 18.9686 16.017 18.9685 16.0169 18.9685L16.0163 18.9684C15.9446 18.9506 15.872 18.9415 15.7997 18.9408M16.017 18.9686L16.0315 18.9107M15.5794 21.0739L15.841 20.917L16.1108 21.0761C16.1916 21.1237 16.2526 21.1834 16.2939 21.2524L16.2941 21.2526C16.2941 21.2527 16.2942 21.2528 16.2942 21.2529L16.2433 21.2835M15.5794 21.0739L16.3533 21.6475C16.387 21.5118 16.3664 21.3735 16.2942 21.2529L16.2433 21.2835M15.5794 21.0739L15.6101 21.1251M15.5794 21.0739L15.5794 21.0739L15.6101 21.1251M16.2433 21.2835C16.1123 21.0652 15.8281 20.9942 15.6101 21.1251M16.2433 21.2835C16.3069 21.3893 16.3255 21.5136 16.2956 21.6331L15.6101 21.1251M16.6855 21.0032C16.6877 21.0068 16.6899 21.0104 16.6921 21.0141L16.6855 21.0032ZM16.6855 21.0032C16.6698 21.0154 16.6539 21.0273 16.6377 21.039C16.6388 21.0407 16.6399 21.0425 16.6409 21.0443L16.6855 21.0032ZM16.6132 20.2954C16.6467 20.2313 16.6728 20.1629 16.6907 20.0912L16.6132 20.2954ZM16.6132 20.2954C16.6299 20.3058 16.6464 20.3165 16.6628 20.3276C16.7 20.2583 16.7289 20.184 16.7485 20.1055C16.8123 19.8505 16.7728 19.5857 16.6373 19.3597M16.6132 20.2954L16.6907 20.0911C16.7505 19.8519 16.7128 19.6016 16.5864 19.3907L16.5863 19.3904C16.5863 19.3904 16.5862 19.3903 16.5862 19.3903L16.6373 19.3597M16.6373 19.3597C16.502 19.134 16.2868 18.9745 16.0315 18.9107M16.0315 18.9107L15.7944 18.8808M15.7944 18.8808C15.7966 18.9008 15.7983 18.9209 15.7997 18.9408M15.7944 18.8808C15.7932 18.8808 15.792 18.8808 15.7908 18.8808C15.6338 18.8808 15.4797 18.921 15.338 18.995M15.7944 18.8808L15.338 18.995M15.7997 18.9408C15.8004 18.9517 15.801 18.9626 15.8015 18.9734L15.7908 18.9739L15.5027 18.9873M15.7997 18.9408C15.7967 18.9408 15.7937 18.9408 15.7908 18.9408C15.6928 18.9409 15.5957 18.9566 15.5027 18.9873M15.5027 18.9873L15.338 18.995M15.5027 18.9873C15.4554 19.0029 15.4092 19.0225 15.3645 19.0458C15.3483 19.0543 15.3323 19.0632 15.3165 19.0727L15.3163 19.0728L15.2833 19.0926M15.338 18.995L15.0735 19.2185L15.0736 19.2184L15.2569 19.2643C15.2569 19.2644 15.2569 19.2644 15.2569 19.2644C15.2712 19.2073 15.2799 19.1499 15.2833 19.0926M15.338 18.995L15.2671 18.8592M15.338 18.995C15.3306 18.8368 15.289 18.6812 15.209 18.5422C15.1908 18.5503 15.1728 18.5587 15.1549 18.5675M15.2833 19.0926C15.2852 19.0608 15.2854 19.0291 15.284 18.9975C15.2819 18.9509 15.2762 18.9047 15.2671 18.8592M15.2833 19.0926L15.2671 18.8592M15.2671 18.8592L15.1233 18.5836C15.1338 18.5781 15.1443 18.5728 15.1549 18.5675M15.2671 18.8592L15.1184 18.5106C15.1313 18.5292 15.1435 18.5482 15.1549 18.5675M15.2671 18.8592C15.2468 18.7572 15.209 18.6587 15.1549 18.5675M16.3466 20.6764L16.4259 20.5419C16.3915 20.5741 16.3546 20.6037 16.3153 20.6306C16.3001 20.6409 16.2847 20.6508 16.2689 20.6603L16.2687 20.6604L16.2351 20.6806L16.3466 20.6764ZM8.93575 18.5168L8.88299 18.489C8.87329 18.5065 8.84914 18.55 8.81348 18.6142C8.80465 18.6301 8.79511 18.6473 8.78491 18.6657C8.80309 18.6748 8.82143 18.6827 8.83981 18.6896C8.87118 18.6331 8.90315 18.5755 8.93575 18.5168ZM13.0827 23.7874C13.0827 23.7874 13.0826 23.7875 13.0826 23.7875L13.0827 23.7874Z" fill="#4CAF4F" stroke="#4CAF4F" stroke-width="0.928093"/>
<path d="M24.7845 19.3528L24.7844 19.3528L24.7845 19.3528ZM24.7845 19.3528C24.6872 19.1786 24.6912 18.9641 24.7942 18.7924L24.7845 19.3528ZM19.0429 18.9406C18.9704 18.9412 18.8975 18.9503 18.8255 18.9684L19.0429 18.9406ZM19.0429 18.9406C19.0442 18.9206 19.046 18.9006 19.0481 18.8807L19.0429 18.9406ZM24.3668 19.6782L24.3274 19.6073L24.3668 19.6782ZM23.2487 21.3057C23.2486 21.3057 23.2485 21.3056 23.2484 21.3056L23.2485 21.3057L23.2487 21.3057ZM21.7598 23.7877C21.7597 23.7876 21.7596 23.7876 21.7595 23.7875L21.7598 23.7877ZM21.7593 23.7874L21.7595 23.7875L21.7593 23.7874Z" fill="#4CAF4F" stroke="#4CAF4F" stroke-width="0.928093"/>
</svg>
