<svg width="34" height="34" viewBox="0 0 34 34" fill="none" xmlns="http://www.w3.org/2000/svg">
<path d="M28.0713 29.3482V26.564C28.0713 25.0871 27.4847 23.6707 26.4403 22.6264C25.396 21.5821 23.9797 20.9954 22.5028 20.9954H21.1106C20.7414 20.9954 20.3873 20.8487 20.1263 20.5877C19.8652 20.3266 19.7185 19.9725 19.7185 19.6033V12.6426C19.7185 11.9041 19.4252 11.1959 18.903 10.6738C18.3809 10.1516 17.6727 9.85829 16.9342 9.85829C16.1958 9.85829 15.4876 10.1516 14.9654 10.6738C14.4433 11.1959 14.15 11.9041 14.15 12.6426V25.1718L10.8088 20.717C10.5495 20.3712 10.2132 20.0905 9.82656 19.8972C9.43995 19.7039 9.01364 19.6033 8.5814 19.6033H7.97721C6.77301 19.6033 5.79712 20.5792 5.79712 21.7834C5.79712 22.1787 5.90431 22.5671 6.10757 22.9054L9.97354 29.3482M16.9342 5.68187V4.28973V5.68187ZM25.2871 14.0347H26.6792H25.2871ZM7.18926 14.0347H8.5814H7.18926ZM10.451 7.55152L9.4668 6.56727L10.451 7.55152ZM23.4174 7.55152L24.4017 6.56727L23.4174 7.55152Z" fill="#4CAF4F"/>
<path d="M28.0713 29.3482V26.564C28.0713 25.0871 27.4847 23.6707 26.4403 22.6264C25.396 21.5821 23.9797 20.9954 22.5028 20.9954H21.1106C20.7414 20.9954 20.3873 20.8487 20.1263 20.5877C19.8652 20.3266 19.7185 19.9725 19.7185 19.6033V12.6426C19.7185 11.9041 19.4252 11.1959 18.903 10.6738C18.3809 10.1516 17.6727 9.85829 16.9342 9.85829V9.85829C16.1958 9.85829 15.4876 10.1516 14.9654 10.6738C14.4433 11.1959 14.15 11.9041 14.15 12.6426V25.1718L10.8088 20.717C10.5495 20.3712 10.2132 20.0905 9.82656 19.8972C9.43995 19.7039 9.01364 19.6033 8.5814 19.6033H7.97721C6.77301 19.6033 5.79712 20.5792 5.79712 21.7834C5.79712 22.1787 5.90431 22.5671 6.10757 22.9054L9.97354 29.3482M16.9342 5.68187V4.28973M25.2871 14.0347H26.6792M7.18926 14.0347H8.5814M10.451 7.55152L9.4668 6.56727M23.4174 7.55152L24.4017 6.56727" stroke="#4CAF4F" stroke-width="1.39214" stroke-linecap="round" stroke-linejoin="round"/>
</svg>
