<svg width="308" height="230" viewBox="0 0 308 230" fill="none" xmlns="http://www.w3.org/2000/svg">
<path d="M153.903 229.317C219.724 229.317 273.082 226.202 273.082 222.359C273.082 218.516 219.724 215.401 153.903 215.401C88.0818 215.401 34.7234 218.516 34.7234 222.359C34.7234 226.202 88.0818 229.317 153.903 229.317Z" fill="#F5F5F5"/>
<path d="M214.909 66.9632L208.811 64.5045C208.811 64.5045 200.765 79.1768 198.46 79.9206C195.325 80.9287 188.834 83.7316 184.987 84.2233C184.464 84.838 183.61 86.7496 183.69 87.4442C188.859 89.1715 200.218 86.8787 202.652 85.0716C208.191 80.9717 214.909 66.9632 214.909 66.9632Z" fill="#E58A7B"/>
<path d="M216.784 63.6256C217.921 67.8238 211.762 76.2694 211.762 76.2694L203.691 71.7454C203.691 71.7454 205.203 68.2725 207.047 64.7381C210.004 59.0278 215.487 58.8372 216.784 63.6256Z" fill="#4CAF4F"/>
<path opacity="0.2" d="M216.784 63.6256C217.921 67.8238 211.762 76.2694 211.762 76.2694L203.691 71.7454C203.691 71.7454 205.203 68.2725 207.047 64.7381C210.004 59.0278 215.487 58.8372 216.784 63.6256Z" fill="black"/>
<path opacity="0.2" d="M206.894 73.5526L210.071 75.3351L210.631 65.5802C208.781 67.0001 207.477 71.2783 206.894 73.5526Z" fill="black"/>
<path d="M211.473 60.4661C211.473 60.4661 205.191 74.4439 208.854 100.469H233.607C234.001 96.6705 232.698 78.1319 237.412 60.2326C234.697 59.7019 231.95 59.3508 229.188 59.1815C225.685 58.9785 222.174 58.9785 218.671 59.1815C216.243 59.428 213.837 59.8575 211.473 60.4661Z" fill="#4CAF4F"/>
<path opacity="0.2" d="M211.473 60.4661C211.473 60.4661 205.191 74.4439 208.854 100.469H233.607C234.001 96.6705 232.698 78.1319 237.412 60.2326C234.697 59.7019 231.95 59.3508 229.188 59.1815C225.685 58.9785 222.174 58.9785 218.671 59.1815C216.243 59.428 213.837 59.8575 211.473 60.4661Z" fill="black"/>
<g style="mix-blend-mode:multiply">
<path d="M205.732 222.913C205.695 223.576 215.081 224.111 226.692 224.111C238.303 224.111 247.757 223.576 247.794 222.913C247.831 222.249 238.451 221.72 226.834 221.72C215.216 221.72 205.775 222.255 205.732 222.913Z" fill="#E8ECF1"/>
</g>
<path d="M222.255 205.47L217.865 207.169L221.646 216.939L226.036 215.239L222.255 205.47Z" fill="#E58A7B"/>
<path d="M241.832 218.186H237.203L235.507 207.472H240.135L241.832 218.186Z" fill="#E58A7B"/>
<path d="M236.884 217.651H242.084C242.174 217.651 242.261 217.683 242.33 217.742C242.399 217.8 242.444 217.881 242.459 217.97L243.129 222.083C243.143 222.186 243.135 222.291 243.105 222.391C243.074 222.49 243.023 222.582 242.954 222.66C242.886 222.739 242.801 222.801 242.706 222.843C242.611 222.886 242.508 222.907 242.403 222.906C240.59 222.876 239.717 222.765 237.431 222.765C236.023 222.765 233.128 222.912 231.173 222.912C229.219 222.912 229.09 220.995 229.895 220.816C233.509 220.036 234.911 218.972 236.115 217.94C236.328 217.753 236.601 217.65 236.884 217.651Z" fill="#263238"/>
<path d="M221.517 216.065L226.434 214.627C226.522 214.602 226.616 214.608 226.699 214.644C226.783 214.679 226.852 214.743 226.895 214.823L228.739 218.511C228.782 218.605 228.804 218.707 228.803 218.81C228.803 218.913 228.78 219.014 228.736 219.107C228.692 219.2 228.628 219.283 228.549 219.349C228.47 219.414 228.378 219.462 228.278 219.489C226.49 219.98 225.291 220.282 223.053 220.933C221.511 221.382 219.937 222.113 218.413 222.599C217.355 222.937 214.872 222.949 213.587 222.949C211.688 222.949 211.264 220.946 212.082 220.853C214.141 220.626 214.417 220.73 215.554 220.159C217.415 219.345 219.101 218.181 220.521 216.729C220.789 216.424 221.132 216.195 221.517 216.065Z" fill="#263238"/>
<path d="M185.761 84.1987L180.671 82.0658L178.575 87.7085C180.661 88.0263 182.784 88.0263 184.87 87.7085L185.761 84.1987Z" fill="#E58A7B"/>
<path d="M176.885 81.9183L176.75 85.6678L178.576 87.6963L180.672 82.0535L176.885 81.9183Z" fill="#E58A7B"/>
<path d="M222.857 206.299L218.453 208L220.403 213.051L224.807 211.351L222.857 206.299Z" fill="#CF6F64"/>
<path d="M240.135 207.472H235.507L236.386 212.998H241.014L240.135 207.472Z" fill="#CF6F64"/>
<path opacity="0.2" d="M208.068 93.4312C208.16 94.5437 208.264 95.6809 208.4 96.8488L226.803 90.8741C229.677 90.0224 232.175 88.2163 233.884 85.7539C233.958 84.1127 234.05 82.3855 234.191 80.5845C234.253 79.7116 234.327 78.8142 234.406 77.9045C234.486 76.9948 234.597 75.9867 234.714 75.0155L208.068 93.4312Z" fill="black"/>
<path d="M214.079 73.2698L213.464 73.1961C213.827 70.1227 216.12 67.7009 218.536 67.7623V68.377C216.421 68.334 214.405 70.5161 214.079 73.2698Z" fill="white"/>
<path d="M217.355 78.9433H217.251V78.3286C219.365 78.4085 221.351 76.2018 221.677 73.4542L222.291 73.528C221.965 76.5337 219.746 78.9433 217.355 78.9433Z" fill="white"/>
<path d="M228.844 47.3367C227.977 50.7235 226.957 56.9256 229.188 59.1815C229.188 59.1815 227.627 62.6175 221.339 62.6175C215.591 62.6175 218.671 59.1815 218.671 59.1815C222.494 58.2841 222.562 55.4934 222.058 52.8503L228.844 47.3367Z" fill="#E58A7B"/>
<path d="M226.078 49.5864L222.064 52.8503C222.188 53.4577 222.26 54.0746 222.279 54.6943C223.453 55.8622 225.807 52.9056 226.047 51.3935C226.169 50.7982 226.179 50.1855 226.078 49.5864Z" fill="#CF6F64"/>
<path d="M215.161 47.2937C215.44 47.7777 215.817 48.199 216.266 48.5311C216.716 48.8632 217.229 49.099 217.773 49.2237C219.249 49.5495 219.986 48.1911 219.581 46.8265C219.218 45.5972 218.007 43.9437 216.507 44.2264C216.186 44.2926 215.885 44.4348 215.63 44.6411C215.375 44.8474 215.173 45.1118 215.041 45.4122C214.91 45.7125 214.852 46.0401 214.873 46.3674C214.893 46.6948 214.992 47.0124 215.161 47.2937Z" fill="#CF6F64"/>
<path d="M217.601 36.4569C215.302 37.508 214.491 46.6421 217.38 47.9944C220.269 49.3467 221.953 34.4592 217.601 36.4569Z" fill="#263238"/>
<path d="M229.544 42.241C228.991 46.8265 228.93 49.5249 226.471 51.873C225.709 52.6522 224.747 53.2057 223.69 53.4724C222.633 53.739 221.524 53.7085 220.483 53.3842C219.443 53.0599 218.512 52.4543 217.794 51.6345C217.076 50.8146 216.599 49.8122 216.415 48.7381C215.671 44.6198 216.698 37.8154 221.295 35.9898C222.262 35.5637 223.324 35.4037 224.373 35.5265C225.421 35.6492 226.418 36.0503 227.259 36.688C228.101 37.3257 228.757 38.1769 229.158 39.1533C229.56 40.1297 229.693 41.1958 229.544 42.241Z" fill="#E58A7B"/>
<path d="M221.99 38.8296C225.395 37.9629 227.897 37.3728 227 40.2065C225.813 43.9929 224.387 47.6563 226.299 47.8223C227.467 47.9268 232.63 45.7385 231.972 43.5196C231.401 41.5895 233.816 41.0608 234.247 40.0835C235.839 36.543 231.284 37.0101 232.095 34.8588C232.907 32.7074 228.407 29.2407 225.948 30.9679C221.947 33.7585 215.081 33.7155 218.689 29.1239C221.277 25.8476 216.661 26.5176 216.661 26.5176C216.661 26.5176 219.451 28.1711 214.755 30.7282C209.789 33.4573 214.343 40.7904 221.99 38.8296Z" fill="#263238"/>
<path d="M231.352 47.2937C230.679 48.2664 229.669 48.9544 228.518 49.2237C227 49.5495 226.416 48.1911 226.987 46.8265C227.498 45.5972 228.899 43.9437 230.35 44.2264C231.8 44.5092 232.132 46.0889 231.352 47.2937Z" fill="#E58A7B"/>
<path d="M208.855 100.469C208.855 100.469 204.699 137.657 204.374 151.77C204.042 166.448 218.456 212.248 218.456 212.248L225.832 209.175C225.832 209.175 217.226 167.327 218.456 152.913C219.759 137.196 225.143 100.494 225.143 100.494L208.855 100.469Z" fill="#4CAF4F"/>
<path opacity="0.2" d="M219.181 110.679C215.868 117.551 218.099 131.141 219.894 139.194C220.576 133.508 221.388 127.337 222.156 121.626C222.082 112.849 221.4 106.069 219.181 110.679Z" fill="black"/>
<path d="M225.506 206.74C225.543 206.74 226.379 209.088 226.379 209.088L217.872 212.666L216.532 210.17L225.506 206.74Z" fill="#4CAF4F"/>
<path d="M217.638 100.469C217.638 100.469 220.816 135.838 222.918 149.084C225.229 163.596 234.29 211.928 234.29 211.928H242.766C242.766 211.928 237.689 164.77 236.73 150.399C235.685 134.811 233.607 100.469 233.607 100.469H217.638Z" fill="#4CAF4F"/>
<path d="M242.895 209.722C242.932 209.722 243.178 212.088 243.178 212.088H233.859L233.196 209.371L242.895 209.722Z" fill="#4CAF4F"/>
<path opacity="0.2" d="M239.65 206.919C239.63 206.919 239.612 206.912 239.597 206.9C239.582 206.887 239.573 206.87 239.57 206.851C239.521 206.421 234.941 163.824 234.081 150.916C233.146 136.913 231.266 105.854 231.247 105.54C231.246 105.53 231.248 105.52 231.251 105.51C231.254 105.5 231.259 105.492 231.266 105.484C231.273 105.477 231.282 105.471 231.291 105.467C231.301 105.462 231.311 105.46 231.321 105.46C231.341 105.46 231.36 105.468 231.375 105.482C231.39 105.495 231.399 105.514 231.401 105.534C231.401 105.848 233.3 136.883 234.234 150.909C235.095 163.818 239.674 206.384 239.717 206.845C239.719 206.855 239.719 206.865 239.716 206.875C239.714 206.885 239.709 206.895 239.703 206.903C239.696 206.911 239.688 206.918 239.679 206.923C239.67 206.927 239.66 206.93 239.65 206.931V206.919Z" fill="black"/>
<path d="M222.513 43.5196C222.513 43.8945 222.279 44.1957 222.033 44.1957C221.787 44.1957 221.609 43.8945 221.634 43.5196C221.658 43.1446 221.867 42.8434 222.113 42.8434C222.359 42.8434 222.537 43.1508 222.513 43.5196Z" fill="#263238"/>
<path d="M218.296 43.5196C218.296 43.8945 218.056 44.1957 217.816 44.1957C217.577 44.1957 217.392 43.8945 217.411 43.5196C217.429 43.1446 217.65 42.8434 217.896 42.8434C218.142 42.8434 218.32 43.1508 218.296 43.5196Z" fill="#263238"/>
<path d="M219.624 43.7101C219.11 44.8551 218.449 45.9276 217.657 46.9003C218.271 47.5149 219.421 47.2322 219.421 47.2322L219.624 43.7101Z" fill="#DF5753"/>
<path d="M219.734 48.7996C219.72 48.7996 219.706 48.7967 219.693 48.7911C219.68 48.7855 219.668 48.7772 219.658 48.7669C219.648 48.7565 219.641 48.7442 219.636 48.7308C219.631 48.7174 219.629 48.7032 219.63 48.689C219.631 48.6591 219.644 48.6309 219.666 48.6103C219.688 48.5897 219.717 48.5783 219.746 48.5783C220.217 48.5816 220.681 48.4795 221.107 48.2795C221.532 48.0795 221.908 47.7868 222.205 47.4227C222.226 47.4041 222.254 47.3939 222.282 47.3939C222.31 47.3939 222.338 47.4041 222.359 47.4227C222.379 47.4434 222.39 47.4709 222.39 47.4996C222.39 47.5282 222.379 47.5558 222.359 47.5764C222.04 47.9633 221.639 48.274 221.185 48.4856C220.731 48.6973 220.235 48.8046 219.734 48.7996Z" fill="#263238"/>
<path d="M223.262 42.3885C223.233 42.4036 223.2 42.4115 223.167 42.4115C223.134 42.4115 223.101 42.4036 223.072 42.3885C222.842 42.2399 222.58 42.1474 222.308 42.1186C222.036 42.0898 221.76 42.1254 221.505 42.2226C221.48 42.2351 221.452 42.2424 221.425 42.2442C221.397 42.246 221.369 42.2422 221.342 42.233C221.316 42.2239 221.292 42.2095 221.271 42.1908C221.25 42.1721 221.234 42.1495 221.222 42.1242C221.199 42.0695 221.198 42.0081 221.22 41.953C221.242 41.8979 221.284 41.8534 221.339 41.8292C221.66 41.6979 222.008 41.6462 222.354 41.6783C222.699 41.7104 223.032 41.8254 223.324 42.0136C223.348 42.0296 223.368 42.0501 223.383 42.074C223.399 42.0979 223.409 42.1246 223.415 42.1526C223.42 42.1806 223.419 42.2094 223.413 42.2372C223.407 42.2651 223.396 42.2914 223.379 42.3148C223.348 42.35 223.308 42.3756 223.262 42.3885Z" fill="#263238"/>
<path d="M216.667 41.1592C216.634 41.1513 216.604 41.1342 216.581 41.11C216.56 41.09 216.544 41.0661 216.533 41.0397C216.522 41.0133 216.516 40.985 216.516 40.9564C216.516 40.9277 216.522 40.8994 216.533 40.873C216.544 40.8466 216.56 40.8227 216.581 40.8027C216.817 40.5385 217.11 40.3322 217.438 40.2C217.767 40.0678 218.121 40.0132 218.474 40.0405C218.502 40.0449 218.529 40.055 218.554 40.0702C218.578 40.0855 218.599 40.1055 218.615 40.1292C218.631 40.1528 218.642 40.1795 218.647 40.2076C218.653 40.2357 218.652 40.2646 218.646 40.2925C218.633 40.3494 218.6 40.3996 218.552 40.4335C218.504 40.4675 218.446 40.4829 218.388 40.4769C218.109 40.4593 217.829 40.5055 217.57 40.612C217.312 40.7185 217.08 40.8825 216.894 41.0916C216.866 41.1227 216.83 41.1455 216.79 41.1574C216.75 41.1693 216.707 41.17 216.667 41.1592Z" fill="#263238"/>
<path d="M239.791 66.281L233.398 64.5783C233.398 64.5783 227.129 80.0128 224.91 81.0147C221.898 82.3916 214.27 87.1615 211.024 89.4173C210.846 90.1857 210.987 92.2202 211.393 92.7796C216.925 91.7715 227.516 87.6962 229.729 85.6248C234.775 80.8979 239.791 66.281 239.791 66.281Z" fill="#E58A7B"/>
<path d="M235.329 218.462C235.017 218.487 234.706 218.402 234.45 218.222C234.37 218.151 234.311 218.06 234.278 217.959C234.244 217.858 234.238 217.749 234.259 217.645C234.263 217.579 234.284 217.516 234.321 217.462C234.358 217.408 234.409 217.365 234.468 217.337C234.984 217.073 236.429 217.989 236.595 218.093C236.613 218.105 236.627 218.122 236.635 218.141C236.643 218.161 236.644 218.183 236.638 218.204C236.633 218.225 236.622 218.245 236.607 218.261C236.592 218.278 236.573 218.29 236.552 218.296C236.151 218.395 235.741 218.45 235.329 218.462ZM234.714 217.503C234.667 217.493 234.619 217.493 234.572 217.503C234.549 217.515 234.529 217.534 234.516 217.557C234.503 217.58 234.497 217.606 234.499 217.632C234.482 217.704 234.485 217.779 234.507 217.849C234.528 217.919 234.568 217.982 234.622 218.032C234.861 218.247 235.464 218.272 236.257 218.118C235.785 217.807 235.253 217.598 234.695 217.503H234.714Z" fill="#4CAF4F"/>
<path d="M236.521 218.296C236.505 218.301 236.488 218.301 236.472 218.296C236.011 218.038 235.144 217.024 235.273 216.508C235.293 216.426 235.339 216.353 235.405 216.3C235.47 216.248 235.552 216.219 235.636 216.219C235.718 216.208 235.802 216.215 235.882 216.239C235.961 216.263 236.035 216.305 236.097 216.36C236.607 216.796 236.638 218.136 236.638 218.204C236.641 218.224 236.637 218.245 236.627 218.263C236.617 218.28 236.601 218.294 236.582 218.302C236.562 218.307 236.54 218.304 236.521 218.296ZM235.697 216.421H235.654C235.513 216.421 235.495 216.501 235.488 216.532C235.415 216.833 235.962 217.602 236.417 217.964C236.414 217.445 236.254 216.939 235.955 216.514C235.884 216.451 235.792 216.419 235.697 216.421Z" fill="#4CAF4F"/>
<path d="M219.009 217.694C218.633 217.825 218.223 217.825 217.847 217.694C217.762 217.648 217.689 217.581 217.637 217.499C217.584 217.417 217.553 217.324 217.546 217.227C217.538 217.166 217.546 217.104 217.569 217.047C217.591 216.99 217.628 216.94 217.675 216.901C218.167 216.458 220.177 216.901 220.404 216.987C220.426 216.993 220.445 217.005 220.458 217.023C220.472 217.041 220.479 217.063 220.478 217.085C220.479 217.108 220.473 217.131 220.461 217.151C220.449 217.171 220.431 217.186 220.41 217.196C219.958 217.4 219.489 217.567 219.009 217.694ZM218.007 216.962C217.937 216.977 217.871 217.008 217.816 217.055C217.797 217.069 217.782 217.089 217.773 217.112C217.764 217.135 217.762 217.16 217.767 217.184C217.771 217.248 217.791 217.311 217.826 217.365C217.86 217.42 217.908 217.466 217.964 217.497C218.29 217.669 219.046 217.534 220.023 217.122C219.365 216.956 218.683 216.902 218.007 216.962Z" fill="#4CAF4F"/>
<path d="M220.392 217.196H220.343C219.728 217.085 218.499 216.378 218.462 215.85C218.462 215.727 218.517 215.555 218.812 215.456C218.912 215.421 219.018 215.406 219.123 215.412C219.229 215.419 219.332 215.446 219.427 215.493C220.091 215.819 220.441 216.999 220.459 217.055C220.464 217.073 220.463 217.093 220.458 217.111C220.452 217.129 220.442 217.146 220.429 217.159C220.42 217.174 220.407 217.187 220.392 217.196ZM218.935 215.641H218.874C218.683 215.709 218.683 215.788 218.683 215.813C218.683 216.133 219.574 216.717 220.195 216.913C220.052 216.42 219.75 215.987 219.335 215.684C219.211 215.621 219.069 215.606 218.935 215.641Z" fill="#4CAF4F"/>
<path d="M211.547 89.0547L205.136 92.0051L204.392 93.8492L206.758 95.4412C206.758 95.4412 211.184 94.9617 212.444 92.1158L211.547 89.0547Z" fill="#E58A7B"/>
<path d="M211.817 92.8841C211.674 91.6523 211.267 90.4658 210.625 89.4051L211.639 88.6429C212.402 89.865 212.889 91.2391 213.065 92.669L211.817 92.8841Z" fill="#263238"/>
<path d="M212.911 89.9275C213.047 90.1407 213.113 90.3904 213.102 90.6428C213.091 90.8952 213.002 91.1379 212.847 91.3379C212.693 91.5379 212.481 91.6856 212.24 91.7608C211.999 91.836 211.74 91.835 211.5 91.7581C211.259 91.6812 211.048 91.532 210.895 91.3309C210.742 91.1298 210.655 90.8864 210.645 90.634C210.636 90.3816 210.704 90.1323 210.841 89.9201C210.978 89.7079 211.177 89.5431 211.411 89.4481C211.674 89.3142 211.979 89.2895 212.26 89.3793C212.541 89.469 212.775 89.6661 212.911 89.9275Z" fill="#263238"/>
<path d="M200.802 94.3901L201.657 95.2506L207.41 92.7919L205.136 92.0051L200.802 94.3901Z" fill="#E58A7B"/>
<path opacity="0.2" d="M225.506 206.74C225.543 206.74 226.379 209.088 226.379 209.088L217.872 212.666L216.532 210.17L225.506 206.74Z" fill="black"/>
<path opacity="0.2" d="M242.895 209.722C242.932 209.722 243.178 212.088 243.178 212.088H233.859L233.196 209.371L242.895 209.722Z" fill="black"/>
<path d="M241.457 64.5107C243.147 69.9629 236.539 77.4189 236.539 77.4189L227.411 73.6939C228.493 70.5426 229.741 67.4506 231.149 64.4308C233.952 58.3885 239.748 59.0094 241.457 64.5107Z" fill="#4CAF4F"/>
<path opacity="0.2" d="M241.457 64.5107C243.147 69.9629 236.539 77.4189 236.539 77.4189L227.411 73.6939C228.493 70.5426 229.741 67.4506 231.149 64.4308C233.952 58.3885 239.748 59.0094 241.457 64.5107Z" fill="black"/>
<path d="M150.755 9.88449H146.828V10.5176H150.755V9.88449Z" fill="#4CAF4F"/>
<path d="M201.6 34.9427L201.125 45.4921L201.757 45.5206L202.233 34.9712L201.6 34.9427Z" fill="#4CAF4F"/>
<path d="M200.378 12.7243H127.847L121.097 163.762H193.629L200.378 12.7243Z" fill="#4CAF4F"/>
<path opacity="0.56" d="M198.215 14.8019H125.683L118.934 165.84H191.465L198.215 14.8019Z" fill="#FAFAFA"/>
<path opacity="0.07" d="M196.051 16.8734H123.519L116.764 167.911H189.296L196.051 16.8734Z" fill="#4CAF4F"/>
<path d="M187.796 82.7481H125.886L125.369 94.304H187.279L187.796 82.7481Z" fill="white"/>
<path d="M159.933 74.3147H126.261L126.033 79.4841H159.705L159.933 74.3147Z" fill="#4CAF4F"/>
<path d="M186.401 113.937H124.49L123.974 125.493H185.884L186.401 113.937Z" fill="white"/>
<path opacity="0.47" d="M175.047 141.099H133.415L132.795 154.948H174.427L175.047 141.099Z" fill="#4CAF4F"/>
<path d="M172.263 157.099H130.631C130.613 157.104 130.594 157.104 130.576 157.099C130.57 157.081 130.57 157.062 130.576 157.044L131.19 143.189C131.19 143.18 131.192 143.17 131.196 143.162C131.2 143.153 131.205 143.145 131.212 143.139C131.219 143.133 131.227 143.128 131.236 143.125C131.245 143.122 131.255 143.121 131.264 143.121H172.896C172.904 143.118 172.912 143.116 172.921 143.116C172.929 143.116 172.938 143.118 172.945 143.121C172.949 143.129 172.952 143.137 172.952 143.146C172.952 143.155 172.949 143.163 172.945 143.171L172.343 157.056C172.335 157.071 172.324 157.082 172.31 157.09C172.295 157.098 172.279 157.101 172.263 157.099ZM130.705 156.952H172.189L172.804 143.244H131.319L130.705 156.952Z" fill="white"/>
<path d="M152.661 105.503H124.865L124.638 110.679H152.427L152.661 105.503Z" fill="#4CAF4F"/>
<path d="M174.254 45.4189C174.096 48.782 172.9 52.0135 170.831 54.6697C169.299 56.6761 167.328 58.3049 165.069 59.4312C162.811 60.5574 160.324 61.1512 157.8 61.1668C155.76 61.1824 153.739 60.7802 151.86 59.985C149.982 59.1898 148.286 58.0185 146.878 56.5431C145.469 55.0678 144.378 53.3197 143.67 51.4065C142.963 49.4934 142.655 47.4557 142.765 45.4189C142.981 41.1924 144.803 37.2081 147.86 34.2809C150.916 31.3536 154.975 29.7046 159.207 29.6709C161.248 29.6519 163.272 30.0516 165.153 30.8454C167.033 31.6392 168.731 32.8103 170.141 34.2862C171.552 35.7621 172.644 37.5115 173.352 39.4263C174.059 41.3411 174.366 43.3806 174.254 45.4189Z" fill="white"/>
<path d="M175.736 32.9655C175.696 33.8598 175.378 34.7193 174.826 35.4242C174.418 35.9571 173.894 36.3898 173.293 36.6891C172.692 36.9884 172.031 37.1466 171.359 37.1515C170.709 37.1554 170.068 37.0001 169.491 36.699C168.915 36.3979 168.421 35.9602 168.052 35.4242C167.565 34.6999 167.323 33.8378 167.364 32.9655C167.423 31.8434 167.909 30.7862 168.721 30.0095C169.533 29.2328 170.611 28.7951 171.734 28.7857C172.276 28.7808 172.814 28.8869 173.313 29.0975C173.813 29.3082 174.264 29.6188 174.639 30.0104C175.014 30.402 175.305 30.8662 175.493 31.3745C175.682 31.8827 175.764 32.4242 175.736 32.9655Z" fill="#4CAF4F"/>
<path d="M132.555 88.526C132.525 89.0213 132.309 89.4871 131.95 89.8293C131.591 90.1715 131.115 90.3647 130.619 90.3701C130.379 90.3729 130.141 90.3266 129.921 90.234C129.7 90.1413 129.5 90.0044 129.334 89.8315C129.168 89.6587 129.039 89.4537 128.956 89.2291C128.872 89.0046 128.836 88.7653 128.848 88.526C128.875 88.0297 129.09 87.5623 129.45 87.2195C129.81 86.8767 130.288 86.6844 130.785 86.682C131.024 86.68 131.261 86.727 131.482 86.8199C131.702 86.9128 131.901 87.0498 132.067 87.2225C132.233 87.3951 132.362 87.5998 132.446 87.8239C132.529 88.0481 132.567 88.287 132.555 88.526Z" fill="#263238"/>
<path d="M140.841 88.526C140.813 89.0219 140.597 89.4884 140.237 89.8309C139.878 90.1734 139.401 90.3662 138.904 90.3701C138.665 90.3721 138.428 90.3251 138.208 90.2321C137.988 90.1391 137.789 90.002 137.624 89.8293C137.459 89.6565 137.331 89.4518 137.247 89.2277C137.164 89.0036 137.128 88.7648 137.14 88.526C137.167 88.0307 137.381 87.5642 137.74 87.2216C138.099 86.879 138.574 86.686 139.07 86.682C139.31 86.6792 139.548 86.7255 139.769 86.8181C139.99 86.9107 140.189 87.0477 140.355 87.2205C140.521 87.3933 140.65 87.5984 140.733 87.8229C140.817 88.0475 140.853 88.2868 140.841 88.526Z" fill="#263238"/>
<path d="M149.133 88.526C149.105 89.0219 148.889 89.4884 148.529 89.8309C148.17 90.1734 147.693 90.3662 147.196 90.3701C146.957 90.372 146.72 90.3251 146.499 90.2322C146.279 90.1392 146.08 90.0022 145.914 89.8296C145.748 89.657 145.619 89.4523 145.536 89.2281C145.452 89.004 145.414 88.7651 145.426 88.526C145.454 88.0302 145.67 87.5637 146.03 87.2212C146.389 86.8787 146.866 86.6859 147.362 86.682C147.602 86.6792 147.84 86.7255 148.061 86.8181C148.281 86.9107 148.481 87.0477 148.647 87.2205C148.813 87.3933 148.942 87.5984 149.025 87.8229C149.109 88.0475 149.145 88.2868 149.133 88.526Z" fill="#263238"/>
<path d="M131.16 119.715C131.13 120.21 130.914 120.676 130.554 121.018C130.195 121.36 129.719 121.553 129.223 121.559C128.984 121.561 128.747 121.514 128.526 121.421C128.306 121.328 128.106 121.191 127.941 121.018C127.775 120.846 127.646 120.641 127.562 120.417C127.479 120.193 127.441 119.954 127.453 119.715C127.481 119.219 127.697 118.752 128.057 118.41C128.416 118.067 128.893 117.874 129.389 117.871C129.629 117.869 129.866 117.916 130.086 118.008C130.307 118.101 130.506 118.238 130.672 118.411C130.838 118.584 130.966 118.788 131.05 119.013C131.134 119.237 131.171 119.476 131.16 119.715Z" fill="#263238"/>
<path d="M139.445 119.715C139.417 120.209 139.203 120.675 138.844 121.017C138.486 121.36 138.011 121.553 137.515 121.559C137.276 121.562 137.038 121.515 136.817 121.423C136.596 121.33 136.397 121.193 136.231 121.02C136.065 120.847 135.936 120.642 135.853 120.418C135.769 120.193 135.732 119.954 135.745 119.715C135.773 119.219 135.989 118.752 136.349 118.41C136.708 118.067 137.185 117.874 137.681 117.871C137.92 117.869 138.157 117.916 138.378 118.009C138.598 118.102 138.797 118.239 138.962 118.411C139.127 118.584 139.255 118.789 139.338 119.013C139.422 119.237 139.458 119.476 139.445 119.715Z" fill="#263238"/>
<path d="M147.756 119.715C147.728 120.21 147.512 120.677 147.152 121.02C146.793 121.362 146.316 121.555 145.82 121.559C145.581 121.56 145.344 121.512 145.124 121.419C144.904 121.326 144.705 121.189 144.539 121.016C144.374 120.844 144.245 120.639 144.161 120.416C144.076 120.192 144.039 119.953 144.049 119.715C144.079 119.219 144.295 118.754 144.654 118.411C145.014 118.069 145.489 117.876 145.986 117.871C146.225 117.868 146.463 117.914 146.684 118.007C146.905 118.099 147.104 118.236 147.27 118.409C147.436 118.582 147.565 118.787 147.648 119.012C147.732 119.236 147.769 119.475 147.756 119.715Z" fill="#263238"/>
<path d="M156.029 119.715C156 120.21 155.784 120.676 155.424 121.018C155.065 121.36 154.589 121.553 154.093 121.559C153.854 121.56 153.617 121.512 153.397 121.419C153.177 121.326 152.978 121.189 152.813 121.016C152.647 120.844 152.518 120.639 152.434 120.416C152.35 120.192 152.312 119.953 152.323 119.715C152.352 119.219 152.569 118.754 152.928 118.411C153.287 118.069 153.763 117.876 154.259 117.871C154.498 117.869 154.736 117.916 154.956 118.008C155.177 118.101 155.376 118.238 155.542 118.411C155.707 118.584 155.836 118.788 155.92 119.013C156.004 119.237 156.041 119.476 156.029 119.715Z" fill="#263238"/>
<path d="M164.352 119.715C164.322 120.21 164.106 120.676 163.747 121.018C163.388 121.36 162.912 121.553 162.416 121.559C162.176 121.562 161.939 121.515 161.718 121.423C161.497 121.33 161.297 121.193 161.131 121.02C160.965 120.847 160.837 120.642 160.753 120.418C160.669 120.193 160.633 119.954 160.646 119.715C160.674 119.219 160.889 118.752 161.249 118.41C161.609 118.067 162.085 117.874 162.582 117.871C162.821 117.869 163.058 117.916 163.279 118.008C163.499 118.101 163.699 118.238 163.864 118.411C164.03 118.584 164.159 118.788 164.243 119.013C164.327 119.237 164.364 119.476 164.352 119.715Z" fill="#263238"/>
<path d="M163.094 44.5987C165.667 42.0828 165.803 38.0501 163.399 35.5914C160.995 33.1327 156.96 33.1791 154.387 35.695C151.814 38.211 151.678 42.2436 154.082 44.7023C156.487 47.161 160.521 47.1146 163.094 44.5987Z" fill="#4CAF4F"/>
<path d="M170.831 54.6697C169.299 56.6761 167.328 58.3049 165.07 59.4312C162.811 60.5574 160.324 61.1512 157.8 61.1668C155.352 61.1876 152.937 60.6058 150.767 59.4728C148.598 58.3397 146.74 56.6902 145.359 54.6697C148.346 51.6947 153.073 49.7523 158.31 49.7523C163.547 49.7523 168.108 51.6947 170.831 54.6697Z" fill="#4CAF4F"/>
<path opacity="0.1" d="M163.094 44.5987C165.667 42.0828 165.803 38.0501 163.399 35.5914C160.995 33.1327 156.96 33.1791 154.387 35.695C151.814 38.211 151.678 42.2436 154.082 44.7023C156.487 47.161 160.521 47.1146 163.094 44.5987Z" fill="white"/>
<path opacity="0.1" d="M170.831 54.6697C169.299 56.6761 167.328 58.3049 165.07 59.4312C162.811 60.5574 160.324 61.1512 157.8 61.1668C155.352 61.1876 152.937 60.6058 150.767 59.4728C148.598 58.3397 146.74 56.6902 145.359 54.6697C148.346 51.6947 153.073 49.7523 158.31 49.7523C163.547 49.7523 168.108 51.6947 170.831 54.6697Z" fill="white"/>
<path d="M80.3936 97.0885C79.8097 98.367 79.195 99.7746 78.6602 101.139C78.1255 102.504 77.5784 103.911 77.1051 105.313C76.1387 108.075 75.4027 110.912 74.9046 113.795L74.7694 114.699C74.7565 114.854 74.771 115.01 74.8124 115.16C74.9574 115.669 75.1859 116.151 75.4885 116.586C76.2779 117.711 77.1936 118.742 78.2177 119.659C79.2974 120.664 80.43 121.61 81.6107 122.493C82.7909 123.403 84.0325 124.288 85.2557 125.124L84.1063 127.281C81.1855 126.009 78.4131 124.419 75.8389 122.542C74.4655 121.541 73.2261 120.367 72.1508 119.051C71.5135 118.267 71.0165 117.379 70.6818 116.426C70.4872 115.831 70.3876 115.208 70.3867 114.582C70.3867 114.435 70.3867 114.219 70.3867 114.115V113.814L70.4482 113.199C70.8006 109.997 71.474 106.838 72.4582 103.77C72.9376 102.258 73.4478 100.752 74.0317 99.2828C74.6157 97.8138 75.2181 96.3754 75.9618 94.8818L80.3936 97.0885Z" fill="#E58A7B"/>
<path d="M84.3891 124.743L88.7349 122.542L87.61 127.312C87.61 127.312 84.6289 128.148 83.2458 126.697L84.3891 124.743Z" fill="#E58A7B"/>
<path d="M92.7117 123.323L91.5561 127.269L87.6099 127.312L88.7347 122.542L92.7117 123.323Z" fill="#E58A7B"/>
<path d="M98.8463 74.075C99.0787 74.9269 99.4023 75.7512 99.8113 76.5337C99.6918 76.6693 99.5379 76.77 99.3658 76.8251C99.1938 76.8803 99.01 76.888 98.834 76.8472L98.8463 74.075Z" fill="#DF5753"/>
<path d="M98.7171 74.1119C98.9717 74.1119 99.1781 73.7954 99.1781 73.405C99.1781 73.0146 98.9717 72.6982 98.7171 72.6982C98.4625 72.6982 98.2561 73.0146 98.2561 73.405C98.2561 73.7954 98.4625 74.1119 98.7171 74.1119Z" fill="#263238"/>
<path d="M98.5818 72.7228L99.5161 72.4584C99.5161 72.4584 99.0612 73.1838 98.5818 72.7228Z" fill="#263238"/>
<path d="M86.8417 78.5867C87.401 81.445 87.9604 86.6882 85.9565 88.5998C85.9565 88.5998 86.7433 91.5011 92.0603 91.5011C97.9058 91.5011 94.8509 88.5998 94.8509 88.5998C91.6607 87.8376 91.7406 85.4711 92.3 83.246L86.8417 78.5867Z" fill="#E58A7B"/>
<path d="M85.2865 72.0712C85.5815 76.8472 85.6061 78.8756 88.0156 81.3282C91.6484 85.0162 97.4509 83.6148 98.588 78.8695C99.6145 74.5668 98.963 67.4857 94.2853 65.5864C93.2585 65.1634 92.1408 65.0093 91.0379 65.1388C89.935 65.2682 88.8833 65.6769 87.9824 66.3261C87.0815 66.9754 86.3611 67.8437 85.8893 68.849C85.4176 69.8543 85.2101 70.9633 85.2865 72.0712Z" fill="#E58A7B"/>
<path d="M85.7597 66.6989C83.3624 67.5718 80.1661 66.9202 81.4201 74.3148C82.7478 82.1457 80.707 84.7212 80.707 84.7212C80.707 84.7212 89.7981 86.6574 99.0797 84.6044C99.0797 84.6044 96.246 79.6501 97.039 75.999C98.0532 71.3889 97.2541 69.6863 97.2541 69.6863C97.2541 69.6863 89.1281 65.4696 85.7597 66.6989Z" fill="#263238"/>
<path d="M95.9019 74.5606C95.9044 75.4687 96.1644 76.3575 96.6518 77.1238C97.3033 78.1196 98.0717 77.7385 98.2622 76.6813C98.4343 75.7531 98.3052 74.1119 97.4754 73.4726C96.6456 72.8334 95.9141 73.4603 95.9019 74.5606Z" fill="#E58A7B"/>
<path d="M83.6759 67.5042C82.9875 65.5679 86.2698 62.5868 93.2157 63.8161C100.161 65.0455 100.463 70.8296 100.463 70.8296L99.0612 69.1576L99.1227 70.9156L91.9863 72.2863L83.6759 67.5042Z" fill="#263238"/>
<path d="M84.2661 88.9256C84.2251 88.6449 84.2953 88.3593 84.4618 88.1297C84.6283 87.9001 84.8779 87.7445 85.1573 87.6962C87.321 87.3397 92.2384 86.6144 94.7094 86.9586C96.5534 87.2168 97.0329 88.2863 97.1128 89.1653C97.1253 89.3192 97.1047 89.474 97.0524 89.6193C97.0001 89.7646 96.9173 89.897 96.8096 90.0077C96.7019 90.1183 96.5717 90.2046 96.4279 90.2607C96.284 90.3169 96.1298 90.3416 95.9756 90.3332L85.2926 89.8537C85.0407 89.841 84.801 89.7417 84.6139 89.5726C84.4269 89.4034 84.304 89.1749 84.2661 88.9256Z" fill="#4CAF4F"/>
<path opacity="0.6" d="M84.2661 88.9256C84.2251 88.6449 84.2953 88.3593 84.4618 88.1297C84.6283 87.9001 84.8779 87.7445 85.1573 87.6962C87.321 87.3397 92.2384 86.6144 94.7094 86.9586C96.5534 87.2168 97.0329 88.2863 97.1128 89.1653C97.1253 89.3192 97.1047 89.474 97.0524 89.6193C97.0001 89.7646 96.9173 89.897 96.8096 90.0077C96.7019 90.1183 96.5717 90.2046 96.4279 90.2607C96.284 90.3169 96.1298 90.3416 95.9756 90.3332L85.2926 89.8537C85.0407 89.841 84.801 89.7417 84.6139 89.5726C84.4269 89.4034 84.304 89.1749 84.2661 88.9256Z" fill="black"/>
<path d="M90.4436 196.309L94.4083 199.063L101.041 190.07L97.076 187.323L90.4436 196.309Z" fill="#E58A7B"/>
<path d="M81.199 196.131L85.3849 198.516L91.2551 189.007L87.0691 186.622L81.199 196.131Z" fill="#E58A7B"/>
<path d="M101.034 190.07L97.6168 194.705L93.6521 191.957L97.0697 187.323L101.034 190.07Z" fill="#CF6F64"/>
<path d="M87.0628 186.622L91.2549 189.013L88.2307 193.912L84.0386 191.521L87.0628 186.622Z" fill="#CF6F64"/>
<path d="M93.7875 118.946C93.7875 118.946 109.265 138.45 106.358 157.105C104.016 172.171 90.4314 192.572 90.4314 192.572L84.0449 189.4C88.5464 180.38 92.388 171.045 95.5393 161.47C96.5111 158.497 96.7947 155.342 96.3688 152.243C95.9429 149.144 94.8185 146.183 93.0806 143.582C85.2374 132.131 72.6734 138.948 81.1252 118.946H93.7875Z" fill="#4CAF4F"/>
<path opacity="0.6" d="M93.7875 118.946C93.7875 118.946 109.265 138.45 106.358 157.105C104.016 172.171 90.4314 192.572 90.4314 192.572L84.0449 189.4C88.5464 180.38 92.388 171.045 95.5393 161.47C96.5111 158.497 96.7947 155.342 96.3688 152.243C95.9429 149.144 94.8185 146.183 93.0806 143.582C85.2374 132.131 72.6734 138.948 81.1252 118.946H93.7875Z" fill="black"/>
<path opacity="0.4" d="M101.379 131.473L99.1289 129.236C99.1289 129.414 103.487 156.319 104.71 163.879C105.432 161.67 105.985 159.41 106.364 157.118C107.802 147.965 104.796 138.616 101.379 131.473Z" fill="black"/>
<path d="M100.696 118.946C100.696 118.946 119.333 143.46 119.862 158.156C120.298 170.45 99.5777 194.269 99.5777 194.269L93.5539 190.372C93.5539 190.372 105.681 173.456 108.736 159.638C107.556 145.943 82.6003 118.946 82.6003 118.946H100.696Z" fill="#4CAF4F"/>
<path opacity="0.6" d="M100.696 118.946C100.696 118.946 119.333 143.46 119.862 158.156C120.298 170.45 99.5777 194.269 99.5777 194.269L93.5539 190.372C93.5539 190.372 105.681 173.456 108.736 159.638C107.556 145.943 82.6003 118.946 82.6003 118.946H100.696Z" fill="black"/>
<path d="M77.64 89.6939C75.6485 90.1672 73.7368 97.4081 73.7368 97.4081L81.5247 102.608C81.5247 102.608 84.1187 96.8795 83.209 94.3716C82.2685 91.7592 80.1417 89.0977 77.64 89.6939Z" fill="#4CAF4F"/>
<path opacity="0.2" d="M79.1642 94.3593L78.6233 100.672L81.5184 102.614C82.3178 100.815 82.9097 98.9299 83.2825 96.9963L79.1642 94.3593Z" fill="black"/>
<path d="M103.001 89.8353C103.001 89.8353 105.3 90.6405 100.696 118.94H81.1128C81.4447 110.949 81.4509 106.032 77.6399 89.6939C80.382 89.1288 83.1615 88.7631 85.9565 88.5998C88.9174 88.3875 91.8898 88.3875 94.8508 88.5998C98.6741 88.9502 103.001 89.8353 103.001 89.8353Z" fill="#4CAF4F"/>
<path d="M104.993 94.3593C105.436 95.5886 105.903 96.9102 106.394 98.1826C106.886 99.455 107.353 100.764 107.851 102.055L109.357 105.915L109.738 106.88L109.935 107.36L110.027 107.599C110.027 107.642 110.027 107.642 110.027 107.636C109.915 107.478 109.768 107.348 109.597 107.255C109.354 107.112 109.08 107.03 108.798 107.015C108.564 107.008 108.331 107.052 108.116 107.145C107.833 107.274 107.833 107.329 107.839 107.323C107.89 107.282 107.935 107.234 107.974 107.181C108.314 106.735 108.609 106.255 108.853 105.749C109.142 105.184 109.419 104.581 109.695 103.973C110.236 102.743 110.734 101.471 111.232 100.186C111.73 98.9017 112.203 97.6048 112.664 96.2955L114.066 92.3739L116.432 92.9886C115.965 95.7915 115.363 98.5206 114.637 101.299C114.287 102.682 113.875 104.053 113.408 105.436C113.174 106.13 112.916 106.819 112.621 107.526C112.314 108.293 111.935 109.03 111.49 109.726C111.327 109.961 111.146 110.183 110.949 110.39C110.635 110.729 110.254 110.999 109.83 111.183C109.454 111.344 109.047 111.42 108.638 111.404C108.18 111.387 107.734 111.254 107.341 111.017C106.878 110.728 106.494 110.329 106.222 109.855C106.13 109.695 106.05 109.536 105.995 109.419L105.878 109.185L105.645 108.706L105.177 107.753C104.563 106.475 103.948 105.184 103.413 103.887C102.878 102.59 102.313 101.274 101.784 99.9528C101.256 98.6313 100.782 97.3097 100.334 95.8837L104.993 94.3593Z" fill="#E58A7B"/>
<path d="M103.001 89.8353C105.356 90.3947 108.005 97.3528 108.005 97.3528L101.004 103.309C101.004 103.309 96.4735 95.7239 97.3894 93.2222C98.3421 90.6159 99.928 89.1038 103.001 89.8353Z" fill="#4CAF4F"/>
<path d="M115.178 90.1734L117.637 88.1204L119.346 90.7819L118.086 93.0009C118.086 93.0009 116.082 94.8449 114.311 93.9044C114.031 93.2729 113.963 92.567 114.12 91.8937C114.276 91.2204 114.648 90.6164 115.178 90.1734Z" fill="#E58A7B"/>
<path d="M122.075 88.1265L121.89 88.7965L118 89.4481L117.618 88.1204L122.075 88.1265Z" fill="#E58A7B"/>
<path d="M100.057 194.582L93.0376 190.046L94.2977 187.858L102.184 192.707L100.057 194.582Z" fill="#4CAF4F"/>
<path d="M88.1324 198.196C87.5165 198.121 86.9247 197.911 86.399 197.582C86.3773 197.574 86.3585 197.56 86.3452 197.541C86.3319 197.523 86.3247 197.5 86.3247 197.477C86.3247 197.454 86.3319 197.432 86.3452 197.413C86.3585 197.394 86.3773 197.38 86.399 197.373C86.5895 197.311 88.243 196.801 88.7225 197.194C88.7764 197.239 88.8173 197.298 88.8411 197.364C88.8648 197.429 88.8706 197.501 88.8577 197.569C88.8491 197.68 88.8125 197.787 88.7512 197.879C88.6898 197.972 88.6059 198.047 88.5073 198.098C88.3922 198.161 88.2635 198.195 88.1324 198.196ZM86.7494 197.52C87.5177 197.914 88.1324 198.055 88.4274 197.907C88.4917 197.872 88.5457 197.82 88.5845 197.758C88.6232 197.696 88.6453 197.624 88.6487 197.551C88.6487 197.453 88.6487 197.41 88.5934 197.385C88.3352 197.176 87.4132 197.336 86.7371 197.52H86.7494Z" fill="#263238"/>
<path d="M86.442 197.625C86.4096 197.624 86.3787 197.611 86.356 197.588C86.3468 197.571 86.342 197.552 86.342 197.533C86.342 197.513 86.3468 197.494 86.356 197.477C86.356 197.422 86.7555 196.088 87.3825 195.787C87.4626 195.75 87.5496 195.731 87.6376 195.731C87.7256 195.731 87.8126 195.75 87.8927 195.787C87.979 195.814 88.0537 195.869 88.1049 195.944C88.1562 196.019 88.181 196.108 88.1754 196.199C88.1324 196.752 87.0075 197.514 86.4912 197.643L86.442 197.625ZM87.6345 195.947C87.5747 195.949 87.516 195.963 87.4624 195.99C87.0813 196.174 86.7678 196.893 86.6141 197.33C87.1551 197.102 87.8988 196.5 87.9234 196.162C87.9234 196.106 87.9234 196.039 87.782 195.977C87.736 195.953 87.6861 195.936 87.6345 195.928V195.947Z" fill="#263238"/>
<path d="M96.9038 200.852C96.2093 200.852 95.2442 199.961 94.7156 199.413C94.7021 199.395 94.6948 199.372 94.6948 199.349C94.6948 199.326 94.7021 199.303 94.7156 199.284C94.7277 199.265 94.745 199.248 94.7655 199.238C94.7861 199.227 94.8092 199.222 94.8324 199.223C95.0782 199.223 97.2112 199.543 97.5124 200.145C97.5443 200.199 97.5611 200.26 97.5611 200.323C97.5611 200.386 97.5443 200.447 97.5124 200.501C97.4672 200.595 97.3989 200.676 97.314 200.736C97.2291 200.796 97.1302 200.834 97.0268 200.846L96.9038 200.852ZM95.1213 199.499C95.8958 200.249 96.5781 200.667 96.9653 200.618C97.0331 200.609 97.0977 200.584 97.1535 200.544C97.2092 200.505 97.2543 200.452 97.2849 200.391C97.2987 200.37 97.306 200.345 97.306 200.32C97.306 200.295 97.2987 200.27 97.2849 200.249C97.1251 199.917 95.988 199.635 95.1213 199.499Z" fill="#263238"/>
<path d="M95.1889 199.469C95.0509 199.473 94.9129 199.462 94.777 199.438C94.758 199.435 94.7401 199.427 94.7251 199.416C94.71 199.404 94.6982 199.388 94.691 199.37C94.6818 199.352 94.677 199.332 94.677 199.312C94.677 199.292 94.6818 199.272 94.691 199.254C94.7278 199.211 95.5577 198.209 96.3444 198.141C96.5672 198.124 96.7878 198.194 96.9591 198.338C97.1988 198.547 97.1866 198.731 97.1251 198.848C96.9714 199.266 95.908 199.469 95.1889 199.469ZM95.029 199.241C95.7175 199.278 96.8177 199.051 96.9591 198.75C96.9591 198.75 97.0083 198.651 96.8485 198.516C96.7849 198.461 96.7106 198.419 96.6302 198.394C96.5499 198.368 96.4651 198.36 96.3813 198.368C95.8513 198.516 95.3794 198.823 95.029 199.247V199.241Z" fill="#263238"/>
<path d="M86.6079 196.961L81.3955 195.486C81.3056 195.458 81.2089 195.465 81.1238 195.505C81.0387 195.545 80.9713 195.614 80.9345 195.701L79.1765 199.653C79.1352 199.754 79.1158 199.863 79.1196 199.972C79.1234 200.082 79.1503 200.189 79.1985 200.287C79.2466 200.385 79.3151 200.472 79.3992 200.542C79.4834 200.612 79.5813 200.663 79.6867 200.692C81.5307 201.171 82.4158 201.307 84.7086 201.964C86.1223 202.358 88.1384 203.089 90.087 203.642C92.0355 204.196 92.687 202.296 91.931 201.891C88.5134 200.083 88.2429 198.817 87.3086 197.465C87.1413 197.22 86.8933 197.042 86.6079 196.961Z" fill="#4CAF4F"/>
<path d="M94.8569 198.694L90.4066 195.621C90.3312 195.566 90.2382 195.541 90.1453 195.55C90.0524 195.559 89.966 195.602 89.9026 195.67L86.9522 198.842C86.8803 198.924 86.8266 199.02 86.7949 199.124C86.7631 199.229 86.7538 199.339 86.7678 199.447C86.7817 199.555 86.8186 199.659 86.8758 199.752C86.933 199.844 87.0093 199.924 87.0997 199.985C88.6671 201.036 89.4785 201.46 91.4393 202.819C92.6686 203.655 95.0474 205.511 96.7071 206.667C98.3667 207.822 99.6022 206.236 99.0121 205.609C96.369 202.788 95.7912 201.018 95.3548 199.413C95.279 199.122 95.1026 198.868 94.8569 198.694Z" fill="#4CAF4F"/>
<path d="M91.2488 192.978L83.2273 188.989L84.0571 186.813L92.6257 191.017L91.2488 192.978Z" fill="#4CAF4F"/>
<path d="M80.8178 117.791L80.1416 119.561C80.074 119.696 80.2338 119.838 80.4613 119.838H100.795C100.973 119.838 101.12 119.752 101.133 119.641L101.305 117.883C101.305 117.766 101.164 117.662 100.973 117.662H81.1374C81.0777 117.656 81.0175 117.665 80.9619 117.687C80.9063 117.71 80.8568 117.745 80.8178 117.791Z" fill="#4CAF4F"/>
<path opacity="0.4" d="M80.8178 117.791L80.1416 119.561C80.074 119.696 80.2338 119.838 80.4613 119.838H100.795C100.973 119.838 101.12 119.752 101.133 119.641L101.305 117.883C101.305 117.766 101.164 117.662 100.973 117.662H81.1374C81.0777 117.656 81.0175 117.665 80.9619 117.687C80.9063 117.71 80.8568 117.745 80.8178 117.791Z" fill="white"/>
<path d="M84.0202 120.01H83.4855C83.381 120.01 83.3011 119.954 83.3072 119.887L83.5592 117.606C83.5592 117.545 83.6576 117.49 83.7621 117.49H84.2968C84.4013 117.49 84.4813 117.545 84.4751 117.606L84.2231 119.887C84.2169 119.954 84.1247 120.01 84.0202 120.01Z" fill="#4CAF4F"/>
<path d="M96.5595 120.01H96.0309C95.9264 120.01 95.8465 119.954 95.8526 119.887L96.0985 117.606C96.0985 117.545 96.203 117.49 96.3075 117.49H96.8361C96.9406 117.49 97.0267 117.545 97.0144 117.606L96.7685 119.887C96.7378 119.954 96.6702 120.01 96.5595 120.01Z" fill="#4CAF4F"/>
<g style="mix-blend-mode:multiply">
<path d="M83.5531 224.105C92.6476 224.105 100.02 223.571 100.02 222.912C100.02 222.254 92.6476 221.72 83.5531 221.72C74.4585 221.72 67.0859 222.254 67.0859 222.912C67.0859 223.571 74.4585 224.105 83.5531 224.105Z" fill="#F5F5F5"/>
</g>
<path d="M93.5846 221.228C90.671 220.38 87.4378 219.292 85.4832 218.155C85.4279 218.118 85.3664 218.1 85.3111 218.069V204.878H91.2058C91.6533 204.851 92.0737 204.655 92.3812 204.329C92.6886 204.003 92.8599 203.571 92.8599 203.123C92.8599 202.675 92.6886 202.243 92.3812 201.917C92.0737 201.591 91.6533 201.395 91.2058 201.368H85.3418V141.241H81.8013V201.368H75.9434C75.7042 201.354 75.4647 201.389 75.2394 201.471C75.0142 201.552 74.8081 201.679 74.6337 201.844C74.4594 202.008 74.3204 202.206 74.2255 202.426C74.1305 202.646 74.0815 202.883 74.0815 203.123C74.0815 203.363 74.1305 203.6 74.2255 203.82C74.3204 204.04 74.4594 204.238 74.6337 204.402C74.8081 204.567 75.0142 204.694 75.2394 204.775C75.4647 204.857 75.7042 204.892 75.9434 204.878H81.8013V218.05C81.7459 218.05 81.6906 218.1 81.6353 218.136C79.6499 219.292 76.4413 220.38 73.5277 221.21C73.3309 221.269 73.1619 221.397 73.0513 221.571C72.9407 221.744 72.8959 221.951 72.9248 222.155C72.9538 222.358 73.0547 222.545 73.2093 222.68C73.3639 222.816 73.5619 222.892 73.7675 222.894H93.3449C93.5413 222.881 93.7273 222.8 93.8717 222.666C94.016 222.532 94.1101 222.353 94.1381 222.158C94.1662 221.963 94.1265 221.764 94.0258 221.595C93.925 221.426 93.7693 221.296 93.5846 221.228Z" fill="#E0E0E0"/>
<path d="M94.4882 135.118H72.6303C70.8718 135.118 69.4463 136.544 69.4463 138.302V144.8C69.4463 146.558 70.8718 147.984 72.6303 147.984H94.4882C96.2466 147.984 97.6722 146.558 97.6722 144.8V138.302C97.6722 136.544 96.2466 135.118 94.4882 135.118Z" fill="#4CAF4F"/>
<path d="M72.4275 147.99V149.108C72.4275 150.03 73.4294 150.78 74.6588 150.78H92.4843C93.7137 150.78 94.7156 150.03 94.7156 149.108V147.99H72.4275Z" fill="#4CAF4F"/>
<path opacity="0.3" d="M72.4275 147.99V149.108C72.4275 150.03 73.4294 150.78 74.6588 150.78H92.4843C93.7137 150.78 94.7156 150.03 94.7156 149.108V147.99H72.4275Z" fill="white"/>
</svg>
