<svg width="54" height="48" viewBox="0 0 54 48" fill="none" xmlns="http://www.w3.org/2000/svg">
<g filter="url(#filter0_d_211_2091)">
<path d="M49.9187 26.4721C49.9187 33.3918 44.3092 39.0013 37.3894 39.0013L18.5956 39.0013C16.6734 39.0013 15.1152 37.4431 15.1152 35.521L15.1152 11.8546C15.1152 8.01031 18.2316 4.8939 22.0759 4.8939L46.4384 4.89391C48.3605 4.89391 49.9187 6.45211 49.9187 8.37425L49.9187 26.4721Z" fill="#E8F5E9"/>
<path d="M21.3728 6.98213C18.8869 6.98213 16.8632 9.02432 16.8632 11.5207C16.8632 13.1 17.6742 14.4944 18.8988 15.3072C17.4197 15.8018 16.1399 16.7261 15.2013 17.9353C14.6823 17.5361 14.1024 17.215 13.4773 16.985C14.4252 16.2812 15.0447 15.1508 15.0447 13.8802C15.0447 11.7629 13.3323 10.0297 11.2279 10.0297C9.12346 10.0297 7.41107 11.7629 7.41107 13.8802C7.41107 15.1515 8.03106 16.2825 8.97981 16.9863C6.46799 17.9131 4.67407 20.3399 4.67407 23.1959V25.202C4.67433 25.355 4.73551 25.5015 4.84397 25.6092C4.95244 25.7172 5.09922 25.7773 5.25216 25.7768H14.0539C14.0753 25.7791 14.0966 25.7804 14.1179 25.7801H28.6281C28.6494 25.7804 28.671 25.7791 28.6921 25.7768H37.4945C37.8109 25.7755 38.0672 25.5187 38.068 25.202V23.1959C38.068 20.3399 36.2772 17.9131 33.7667 16.986C34.7154 16.2825 35.3354 15.1512 35.3354 13.8799C35.3354 11.7626 33.623 10.0294 31.5186 10.0294C29.4142 10.0294 27.7017 11.7626 27.7017 13.8799C27.7017 15.1505 28.3215 16.2812 29.2694 16.9847C28.643 17.2153 28.0629 17.5374 27.5432 17.9376C26.605 16.7276 25.3269 15.8021 23.8479 15.3072C25.0722 14.4944 25.8835 13.1 25.8835 11.5207C25.8835 9.02432 23.8587 6.98213 21.3729 6.98213H21.3728ZM21.3728 8.13368C23.232 8.13368 24.7307 9.64254 24.7307 11.5207C24.7307 13.3843 23.2553 14.8785 21.4167 14.9024C21.4021 14.9024 21.3877 14.9004 21.3728 14.9004C21.3579 14.9004 21.3437 14.9024 21.3288 14.9024C19.4902 14.8788 18.0158 13.3843 18.0158 11.5207C18.0158 9.64227 19.5133 8.13368 21.3725 8.13368H21.3728ZM11.228 11.1811C12.7031 11.1811 13.8932 12.3784 13.8932 13.8801C13.8932 15.3717 12.7185 16.5639 11.2572 16.5801C11.2475 16.5801 11.238 16.579 11.2279 16.579C11.2182 16.579 11.2087 16.5801 11.1986 16.5801C9.73735 16.5639 8.56264 15.3715 8.56264 13.8801C8.56264 12.3785 9.75275 11.1811 11.2279 11.1811H11.228ZM31.5182 11.1811C32.9934 11.1811 34.1835 12.3784 34.1835 13.8801C34.1835 15.3717 33.0088 16.5639 31.5475 16.5801C31.5377 16.5801 31.5282 16.579 31.5182 16.579C31.5084 16.579 31.4989 16.5801 31.4889 16.5801C30.0276 16.5639 28.8529 15.3715 28.8529 13.8801C28.8529 12.3785 30.043 11.1811 31.5182 11.1811H31.5182ZM21.3287 16.0539C21.3433 16.0542 21.3577 16.0559 21.3726 16.0559C21.3873 16.0559 21.4017 16.0539 21.4166 16.0539C25.1038 16.0775 28.0548 19.0538 28.0548 22.7796L28.0545 24.6283H14.6913V22.7796C14.6913 19.0535 17.6414 16.0776 21.3282 16.0539H21.3287ZM11.1839 17.7329C11.1985 17.7332 11.2129 17.735 11.2278 17.735C11.2427 17.735 11.2569 17.7329 11.2718 17.7329C12.5189 17.7429 13.6571 18.173 14.5634 18.8924C13.9149 20.0399 13.5399 21.3644 13.5399 22.7799V24.6242H5.82516V23.1958C5.82516 20.1678 8.2059 17.7565 11.1837 17.7327L11.1839 17.7329ZM31.4741 17.7329C31.489 17.7332 31.5032 17.735 31.5181 17.735C31.533 17.735 31.5471 17.7329 31.562 17.7329C34.5399 17.7566 36.9206 20.1681 36.9206 23.1961V24.6242H29.202L29.2017 22.7799C29.2017 21.3652 28.8277 20.0417 28.1805 18.8945C29.087 18.174 30.226 17.7429 31.4742 17.7329H31.4741Z" fill="#103E13"/>
</g>
<defs>
<filter id="filter0_d_211_2091" x="0.674072" y="0.0214386" width="53.2446" height="46.9799" filterUnits="userSpaceOnUse" color-interpolation-filters="sRGB">
<feFlood flood-opacity="0" result="BackgroundImageFix"/>
<feColorMatrix in="SourceAlpha" type="matrix" values="0 0 0 0 0 0 0 0 0 0 0 0 0 0 0 0 0 0 127 0" result="hardAlpha"/>
<feOffset dy="4"/>
<feGaussianBlur stdDeviation="2"/>
<feComposite in2="hardAlpha" operator="out"/>
<feColorMatrix type="matrix" values="0 0 0 0 0 0 0 0 0 0 0 0 0 0 0 0 0 0 0.25 0"/>
<feBlend mode="normal" in2="BackgroundImageFix" result="effect1_dropShadow_211_2091"/>
<feBlend mode="normal" in="SourceGraphic" in2="effect1_dropShadow_211_2091" result="shape"/>
</filter>
</defs>
</svg>
