<svg width="46" height="40" viewBox="0 0 46 40" fill="none" xmlns="http://www.w3.org/2000/svg">
<path d="M45.6658 26.4721C45.6658 33.3918 40.0562 39.0013 33.1365 39.0013L14.3426 39.0013C12.4205 39.0013 10.8623 37.4431 10.8623 35.521L10.8623 11.8546C10.8623 8.01031 13.9787 4.8939 17.823 4.8939L42.1854 4.89391C44.1076 4.89391 45.6658 6.45211 45.6658 8.37425L45.6658 26.4721Z" fill="#E8F5E9"/>
<path d="M20.1282 16.4797C19.9605 16.4797 19.8049 16.4337 19.6667 16.3595V16.3615C19.6667 16.6252 19.5642 16.8728 19.3782 17.0583C19.1923 17.2443 18.9448 17.3468 18.6814 17.3468C18.5113 17.3468 18.3537 17.2996 18.214 17.2235C18.1999 17.4647 18.1035 17.6902 17.9315 17.8624C17.7455 18.0484 17.498 18.1508 17.2345 18.1508C16.7108 18.1508 16.2856 17.7392 16.2549 17.2233C16.0929 17.3109 15.9097 17.3568 15.7208 17.3447C15.2057 17.3109 14.8023 16.8658 14.8023 16.3312V11.8995L14.2977 12.7738C14.1055 13.1081 13.7457 13.3158 13.3583 13.3158C13.1696 13.3158 12.9831 13.2662 12.818 13.1716C12.6123 13.0524 12.4652 12.861 12.404 12.6321C12.3425 12.403 12.3744 12.1634 12.4932 11.958C12.4934 11.958 14.1443 9.09913 14.245 8.92352C14.257 8.89712 14.2911 8.82054 14.3201 8.75527C14.3479 8.69295 14.3716 8.62899 14.3944 8.56471C14.8923 7.15915 16.1251 6.28605 17.6118 6.28605C19.5425 6.28605 21.1132 7.98926 21.1132 10.0828L21.1134 15.4943C21.1134 15.7577 21.011 16.0051 20.8252 16.1913C20.6393 16.3773 20.3918 16.4798 20.1281 16.4798L20.1282 16.4797ZM17.6118 6.80959C16.3343 6.80959 15.3161 7.53118 14.8879 8.7398C14.8605 8.81655 14.832 8.89329 14.7987 8.96808C14.7021 9.18471 14.7021 9.18471 14.6749 9.21587L14.6713 9.21275C14.5365 9.4671 14.136 10.1606 12.9466 12.2201C12.8977 12.3045 12.8847 12.4026 12.9097 12.4964C12.9349 12.5902 12.9954 12.6692 13.0792 12.7176C13.3393 12.867 13.6955 12.7706 13.8438 12.5123L14.8374 10.792C14.8968 10.6895 15.0168 10.6391 15.1319 10.6703C15.2464 10.701 15.3259 10.8048 15.3259 10.9232V16.3313C15.3259 16.5865 15.5185 16.8067 15.7551 16.8223C15.8916 16.8295 16.0188 16.7838 16.1144 16.6883C16.2013 16.6014 16.2492 16.4856 16.2492 16.3618V12.8248C16.2492 12.6802 16.3665 12.5629 16.5111 12.5629C16.6558 12.5629 16.773 12.68 16.773 12.8248L16.7729 17.1658C16.7729 17.4203 16.98 17.6274 17.2345 17.6274C17.3581 17.6274 17.4742 17.5795 17.5613 17.4926C17.6482 17.4055 17.6961 17.2894 17.6961 17.1658V12.8248C17.6961 12.6802 17.8132 12.5629 17.958 12.5629C18.1027 12.5629 18.2199 12.68 18.2199 12.8248L18.2198 16.3211V16.3618C18.2198 16.6161 18.4269 16.8233 18.6816 16.8233C18.8051 16.8233 18.9208 16.7752 19.0084 16.688C19.0953 16.6012 19.1432 16.4854 19.1432 16.3616V12.8246C19.1432 12.68 19.2603 12.5627 19.4051 12.5627C19.5497 12.5627 19.667 12.6798 19.667 12.8246L19.6667 15.4944C19.6667 15.7491 19.8738 15.9562 20.1281 15.9562C20.2519 15.9562 20.3677 15.9082 20.4546 15.8214C20.5419 15.7342 20.5896 15.6181 20.5896 15.4944L20.5898 10.0829C20.5898 8.27822 19.2539 6.80964 17.6118 6.80964L17.6118 6.80959Z" fill="#103E13"/>
<path d="M9.83847 20.2409L13.6388 17.9611C14.097 17.6859 14.6866 17.8028 14.9804 18.2274C15.0877 18.382 15.1425 18.5623 15.151 18.7458C15.2927 18.6718 15.4468 18.6316 15.6038 18.6316C15.6841 18.6316 15.7648 18.6416 15.8445 18.6615C16.0998 18.7253 16.315 18.8848 16.4503 19.1105C16.5858 19.3365 16.6253 19.6013 16.5615 19.8563C16.5026 20.0923 16.3591 20.2909 16.1595 20.4272C16.2991 20.5095 16.4195 20.6219 16.5051 20.7649C16.6405 20.9908 16.6801 21.2556 16.6164 21.5109C16.5526 21.7659 16.3931 21.981 16.1671 22.1167L16.1658 22.1175C16.3029 22.1997 16.4211 22.3109 16.5057 22.4517C16.6414 22.6777 16.6809 22.9425 16.6171 23.1979C16.5531 23.453 16.3936 23.6682 16.1679 23.8037L11.5276 26.5875C10.6616 27.1068 9.66041 27.2861 8.70892 27.0918C7.74892 26.8956 6.95386 26.3438 6.47044 25.5379C5.7054 24.2629 5.82005 22.7564 6.76907 21.6067C6.81253 21.5542 6.85533 21.5007 6.8942 21.4453C6.93536 21.3868 6.98341 21.3179 6.99981 21.2943C7.09804 21.1188 8.70092 18.2309 8.70075 18.2312C8.86262 17.9391 9.166 17.7738 9.47889 17.774C9.62485 17.774 9.77293 17.8099 9.90954 17.8857C10.0745 17.9778 10.2131 18.1121 10.31 18.274C10.5093 18.6061 10.5163 19.0217 10.3287 19.358L9.83847 20.2409ZM9.86126 18.5432C9.81042 18.4584 9.74056 18.3909 9.65512 18.343C9.4785 18.2452 9.25613 18.3089 9.15889 18.4848C8.01194 20.5512 7.62096 21.2553 7.47008 21.5059L7.47352 21.5067C7.4609 21.5487 7.4609 21.5487 7.32282 21.746C7.27591 21.8127 7.22491 21.8769 7.17293 21.94C6.35688 22.9287 6.26213 24.1729 6.91923 25.2685C7.32626 25.9471 7.99897 26.4124 8.8135 26.5787C9.6369 26.7461 10.5048 26.5903 11.258 26.1384L15.8987 23.3545C16.0046 23.291 16.0794 23.1901 16.1093 23.0706C16.1391 22.9512 16.1206 22.8271 16.0569 22.7211C15.9261 22.503 15.6419 22.4313 15.4238 22.5627L13.1344 23.9362C13.0105 24.0106 12.8494 23.9706 12.7751 23.8464C12.7007 23.7225 12.7409 23.5616 12.8648 23.4871L15.1543 22.1137L15.8979 21.6676C16.0038 21.604 16.0788 21.5032 16.1086 21.3839C16.1385 21.2644 16.1199 21.1401 16.0563 21.0343C15.9253 20.816 15.6411 20.745 15.4231 20.8759L12.3901 22.6954C12.2658 22.77 12.1052 22.7297 12.0308 22.6057C11.9563 22.4817 11.9967 22.3208 12.1205 22.2464L15.8429 20.0133C15.9489 19.9497 16.0237 19.849 16.0535 19.7294C16.0834 19.61 16.0648 19.4859 16.0014 19.38C15.9379 19.2742 15.837 19.1994 15.7175 19.1696C15.5973 19.1397 15.4736 19.1583 15.368 19.2216L14.6789 19.635C14.6788 19.635 14.6788 19.6351 14.6786 19.6351H14.6784L11.6456 21.4546C11.5213 21.5294 11.3605 21.4891 11.2863 21.3649C11.2118 21.241 11.2521 21.0801 11.376 21.0056L14.409 19.1861C14.5149 19.1225 14.5899 19.0216 14.6197 18.9024C14.6525 18.7716 14.6276 18.6377 14.5499 18.5256C14.4151 18.3306 14.1268 18.2788 13.9082 18.4101L9.27083 21.1921C9.16932 21.2528 9.03927 21.238 8.95416 21.1559C8.86889 21.0735 8.8497 20.9441 8.90709 20.8407L9.87138 19.1033C9.96814 18.9297 9.96436 18.7152 9.86121 18.5433L9.86126 18.5432Z" fill="#103E13"/>
<path d="M27.9983 25.5377C27.515 26.3437 26.7201 26.8954 25.76 27.0916C24.8083 27.2856 23.8075 27.1067 22.9412 26.5873L18.3005 23.8034C18.0747 23.6679 17.915 23.4527 17.851 23.1972C17.7876 22.9422 17.8273 22.6774 17.9626 22.4517C18.047 22.3107 18.1654 22.1995 18.3027 22.1173L18.3014 22.1165C18.0755 21.9811 17.9158 21.7659 17.8522 21.5107C17.7882 21.2555 17.8279 20.9905 17.9634 20.7646C18.0506 20.6194 18.1702 20.5059 18.3066 20.4254C18.1085 20.2892 17.9658 20.0912 17.9071 19.8564C17.8432 19.601 17.8829 19.3362 18.0183 19.1105C18.1536 18.8847 18.3689 18.7251 18.6241 18.6613C18.7038 18.6413 18.7847 18.6315 18.8647 18.6315C19.0218 18.6317 19.176 18.6715 19.3176 18.7456C19.3263 18.5621 19.3809 18.3819 19.4882 18.2272C19.7822 17.803 20.3713 17.6856 20.8302 17.9609L24.6304 20.2404L24.1405 19.3581C23.9526 19.0213 23.9595 18.6057 24.1587 18.2735C24.2558 18.1118 24.3945 17.9775 24.5603 17.8845C24.6966 17.809 24.8442 17.7733 24.9898 17.7733C25.3026 17.7735 25.6063 17.9384 25.768 18.2305C26.3314 19.2458 27.3948 21.1606 27.4695 21.2943C27.4854 21.3174 27.5335 21.3862 27.5747 21.4448C27.6138 21.5004 27.6562 21.5535 27.6999 21.6063C28.6488 22.7566 28.7633 24.2628 27.9983 25.5377L27.9983 25.5377ZM27.2959 21.9401C27.2438 21.8769 27.1926 21.8125 27.146 21.7461C27.0043 21.545 27.0007 21.5398 26.9901 21.4871C26.8244 21.2131 26.4204 20.4856 25.3097 18.4846C25.2122 18.3089 24.9909 18.2448 24.8146 18.3422C24.7278 18.3908 24.6581 18.4585 24.6073 18.5433C24.5043 18.715 24.5004 18.9295 24.5976 19.1037L25.5616 20.8405C25.6191 20.9441 25.5999 21.0734 25.5148 21.1557C25.4299 21.2382 25.3 21.2526 25.198 21.1919L20.5606 18.4099C20.342 18.2789 20.0539 18.3302 19.9188 18.5254C19.841 18.6376 19.8163 18.7714 19.8487 18.9021C19.8786 19.0215 19.9535 19.1222 20.0596 19.1858C20.06 19.186 20.0601 19.1863 20.0605 19.1865L23.0925 21.0055C23.2165 21.0799 23.2567 21.2406 23.1822 21.3648C23.1078 21.4886 22.9472 21.5291 22.8229 21.4545L19.1005 19.2214C18.9948 19.1581 18.8705 19.1394 18.7512 19.1694C18.6314 19.1993 18.5308 19.274 18.4673 19.3801C18.4037 19.4859 18.3853 19.6101 18.4148 19.7294C18.4447 19.8488 18.5196 19.9497 18.6255 20.0133L19.3499 20.4477L22.3478 22.2464C22.4718 22.3209 22.512 22.4816 22.4375 22.6057C22.3631 22.7295 22.2025 22.7699 22.0782 22.6954L19.0455 20.8759C18.8274 20.7447 18.5434 20.8159 18.4122 21.0343C18.3486 21.1403 18.3302 21.2644 18.3597 21.3838C18.3896 21.5032 18.4645 21.6039 18.5706 21.6677L19.3141 22.1137L21.6033 23.4872C21.7273 23.5616 21.7675 23.7224 21.693 23.8465C21.6186 23.9703 21.458 24.011 21.3337 23.9362L19.0445 22.5628C18.9389 22.4995 18.8151 22.4808 18.6951 22.5108C18.5757 22.5406 18.4747 22.6154 18.4112 22.7212C18.3477 22.8271 18.3292 22.9514 18.3587 23.0706C18.3886 23.19 18.4635 23.2907 18.5696 23.3545L23.2103 26.1384C23.9634 26.5902 24.8319 26.7467 25.6548 26.5787C26.4692 26.4124 27.1419 25.9472 27.5489 25.2686C28.2067 24.1728 28.1121 22.9284 27.2962 21.94L27.2959 21.9401Z" fill="#103E13"/>
</svg>
