<svg width="54" height="48" viewBox="0 0 54 48" fill="none" xmlns="http://www.w3.org/2000/svg">
<g filter="url(#filter0_d_211_2100)">
<path d="M49.7922 26.4721C49.7922 33.3918 44.1827 39.0013 37.263 39.0013L18.4691 39.0013C16.547 39.0013 14.9888 37.4431 14.9888 35.521L14.9888 11.8546C14.9888 8.01031 18.1052 4.89391 21.9495 4.89391L46.3119 4.89391C48.234 4.89391 49.7922 6.45211 49.7922 8.37426L49.7922 26.4721Z" fill="#E8F5E9"/>
<path d="M23.2834 13.2543C23.0662 13.2543 22.8896 13.078 22.8896 12.8605V12.1914C22.8896 11.9742 23.0659 11.7976 23.2834 11.7976C23.5006 11.7976 23.6771 11.9739 23.6771 12.1914V12.8605C23.6771 13.078 23.5006 13.2543 23.2834 13.2543Z" fill="#103E13"/>
<path d="M21.6279 13.2543C21.4107 13.2543 21.2341 13.078 21.2341 12.8605V12.1914C21.2341 11.9742 21.4104 11.7976 21.6279 11.7976C21.8451 11.7976 22.0216 11.9739 22.0216 12.1914V12.8605C22.0214 13.078 21.8453 13.2543 21.6279 13.2543Z" fill="#103E13"/>
<path d="M19.9726 13.2543C19.7554 13.2543 19.5789 13.078 19.5789 12.8605V12.1914C19.5789 11.9742 19.7551 11.7976 19.9726 11.7976C20.1898 11.7976 20.3664 11.9739 20.3664 12.1914V12.8605C20.3664 13.078 20.1901 13.2543 19.9726 13.2543Z" fill="#103E13"/>
<path d="M23.2834 15.9907C23.0662 15.9907 22.8896 15.8144 22.8896 15.5969V14.928C22.8896 14.7109 23.0659 14.5343 23.2834 14.5343C23.5006 14.5343 23.6771 14.7106 23.6771 14.928V15.5969C23.6771 15.8144 23.5006 15.9907 23.2834 15.9907Z" fill="#103E13"/>
<path d="M21.6279 15.9907C21.4107 15.9907 21.2341 15.8144 21.2341 15.5969V14.928C21.2341 14.7109 21.4104 14.5343 21.6279 14.5343C21.8451 14.5343 22.0216 14.7106 22.0216 14.928V15.5969C22.0214 15.8144 21.8453 15.9907 21.6279 15.9907Z" fill="#103E13"/>
<path d="M19.9726 15.9907C19.7554 15.9907 19.5789 15.8144 19.5789 15.5969V14.928C19.5789 14.7109 19.7551 14.5343 19.9726 14.5343C20.1898 14.5343 20.3664 14.7106 20.3664 14.928V15.5969C20.3664 15.8144 20.1901 15.9907 19.9726 15.9907Z" fill="#103E13"/>
<path d="M23.2834 18.7271C23.0662 18.7271 22.8896 18.5508 22.8896 18.3334V17.6642C22.8896 17.447 23.0659 17.2705 23.2834 17.2705C23.5006 17.2705 23.6771 17.4468 23.6771 17.6642V18.3334C23.6771 18.5508 23.5006 18.7271 23.2834 18.7271Z" fill="#103E13"/>
<path d="M21.6279 18.7271C21.4107 18.7271 21.2341 18.5508 21.2341 18.3334V17.6642C21.2341 17.447 21.4104 17.2705 21.6279 17.2705C21.8451 17.2705 22.0216 17.4468 22.0216 17.6642V18.3334C22.0214 18.5508 21.8453 18.7271 21.6279 18.7271Z" fill="#103E13"/>
<path d="M19.9726 18.7271C19.7554 18.7271 19.5789 18.5508 19.5789 18.3334V17.6642C19.5789 17.447 19.7551 17.2705 19.9726 17.2705C20.1898 17.2705 20.3664 17.4468 20.3664 17.6642V18.3334C20.3664 18.5508 20.1901 18.7271 19.9726 18.7271Z" fill="#103E13"/>
<path d="M23.2834 21.463C23.0662 21.463 22.8896 21.2867 22.8896 21.0692V20.4001C22.8896 20.1829 23.0659 20.0063 23.2834 20.0063C23.5006 20.0063 23.6771 20.1826 23.6771 20.4001V21.0692C23.6771 21.2867 23.5006 21.463 23.2834 21.463Z" fill="#103E13"/>
<path d="M21.6279 21.463C21.4107 21.463 21.2341 21.2867 21.2341 21.0692V20.4001C21.2341 20.1829 21.4104 20.0063 21.6279 20.0063C21.8451 20.0063 22.0216 20.1826 22.0216 20.4001V21.0692C22.0214 21.2867 21.8453 21.463 21.6279 21.463Z" fill="#103E13"/>
<path d="M19.9726 21.463C19.7554 21.463 19.5789 21.2867 19.5789 21.0692V20.4001C19.5789 20.1829 19.7551 20.0063 19.9726 20.0063C20.1898 20.0063 20.3664 20.1826 20.3664 20.4001V21.0692C20.3664 21.2867 20.1901 21.463 19.9726 21.463Z" fill="#103E13"/>
<path d="M23.2834 24.1993C23.0662 24.1993 22.8896 24.0231 22.8896 23.8056V23.1367C22.8896 22.9195 23.0659 22.743 23.2834 22.743C23.5006 22.743 23.6771 22.9193 23.6771 23.1367V23.8056C23.6771 24.0228 23.5006 24.1993 23.2834 24.1993Z" fill="#103E13"/>
<path d="M21.6279 24.1993C21.4107 24.1993 21.2341 24.0231 21.2341 23.8056V23.1367C21.2341 22.9195 21.4104 22.743 21.6279 22.743C21.8451 22.743 22.0216 22.9193 22.0216 23.1367V23.8056C22.0214 24.0228 21.8453 24.1993 21.6279 24.1993Z" fill="#103E13"/>
<path d="M19.9726 24.1993C19.7554 24.1993 19.5789 24.0231 19.5789 23.8056L19.5791 23.1367C19.5791 22.9195 19.7554 22.743 19.9729 22.743C20.1901 22.743 20.3666 22.9193 20.3666 23.1367V23.8056C20.3664 24.0228 20.1901 24.1993 19.9726 24.1993Z" fill="#103E13"/>
<path d="M8.72445 26.9225C8.72445 27.1397 8.90073 27.3163 9.1182 27.3163H33.0962C33.3134 27.3163 33.49 27.14 33.49 26.9225C33.49 26.7053 33.3137 26.5288 33.0962 26.5288H32.3684V15.2237C32.3684 15.0065 32.1921 14.83 31.9746 14.83L25.5459 14.8302V6.67987C25.5459 6.54204 25.474 6.41463 25.3564 6.34324C25.2392 6.27158 25.0926 6.26718 24.9707 6.33061L17.6617 10.136C17.5313 10.2038 17.45 10.3384 17.45 10.4853V17.6045H10.3765C10.1593 17.6045 9.98276 17.7807 9.98276 17.9982V26.5288H9.11732C8.90013 26.5286 8.72412 26.7049 8.72412 26.9223L8.72445 26.9225ZM25.546 20.7937H31.5813V26.5291L25.546 26.5288V20.7937ZM25.546 18.0575H31.5813V20.0065L25.546 20.0062V18.0575ZM25.546 15.6173H31.5813V17.2706H25.546V15.6173ZM18.2371 10.7244L24.7583 7.3289V26.5285H18.2371V10.7244ZM12.7167 23.384C12.7167 22.5668 13.3641 21.9018 14.1601 21.9018C14.9561 21.9018 15.6039 22.5665 15.6039 23.384V26.529H12.7167V23.384ZM10.7702 18.3918H17.4499V26.5288H16.3913V23.3838C16.3913 22.1326 15.3908 21.1144 14.1601 21.1144C12.93 21.1144 11.9295 22.1323 11.9295 23.3838V26.5288H10.7702V18.3918Z" fill="#103E13"/>
</g>
<defs>
<filter id="filter0_d_211_2100" x="0.547729" y="0.0214386" width="53.2445" height="46.9799" filterUnits="userSpaceOnUse" color-interpolation-filters="sRGB">
<feFlood flood-opacity="0" result="BackgroundImageFix"/>
<feColorMatrix in="SourceAlpha" type="matrix" values="0 0 0 0 0 0 0 0 0 0 0 0 0 0 0 0 0 0 127 0" result="hardAlpha"/>
<feOffset dy="4"/>
<feGaussianBlur stdDeviation="2"/>
<feComposite in2="hardAlpha" operator="out"/>
<feColorMatrix type="matrix" values="0 0 0 0 0 0 0 0 0 0 0 0 0 0 0 0 0 0 0.25 0"/>
<feBlend mode="normal" in2="BackgroundImageFix" result="effect1_dropShadow_211_2100"/>
<feBlend mode="normal" in="SourceGraphic" in2="effect1_dropShadow_211_2100" result="shape"/>
</filter>
</defs>
</svg>
