<svg width="134" height="22" viewBox="0 0 134 22" fill="none" xmlns="http://www.w3.org/2000/svg">
<path d="M17.0185 11.9155L12.3793 19.861L7.74004 11.9155H17.0185ZM18.2614 11.2053H6.49219L12.3793 21.2664L18.2614 11.2053Z" fill="white"/>
<path d="M25.0841 2.03305L29.7234 9.97857H20.4449L25.0841 2.03305ZM25.0841 0.612793L19.197 10.6738H30.9712L25.0841 0.612793Z" fill="white"/>
<path d="M0.851562 0.612793L5.78769 9.51179L11.1817 0.836249L0.851562 0.612793Z" fill="#4CAF4F"/>
<path d="M12.3793 1.39233L17.557 10.2417H7.19165L12.3793 1.39233Z" fill="#4CAF4F"/>
<path d="M18.8902 12.1737L24.0728 21.2664H13.4609L18.7291 12.1737H18.8902Z" fill="#4CAF4F"/>
<path d="M20.0122 11.6224L25.0842 20.576L30.2266 11.6224H20.0122Z" fill="#4CAF4F"/>
<path d="M52.5135 2.04907V19.5733H49.3132L41.6891 8.54366H41.5608V19.5733H37.8557V2.04907H41.1073L48.6715 13.0702H48.8255V2.04907H52.5135Z" fill="white"/>
<path d="M61.4959 19.83C60.144 19.83 58.9802 19.5562 58.0048 19.0086C57.035 18.4553 56.2877 17.6737 55.7629 16.664C55.2381 15.6486 54.9757 14.4478 54.9757 13.0616C54.9757 11.7097 55.2381 10.5231 55.7629 9.50202C56.2877 8.48091 57.0264 7.68513 57.9791 7.11468C58.9375 6.54423 60.0612 6.259 61.3505 6.259C62.2175 6.259 63.0247 6.39876 63.772 6.67828C64.525 6.9521 65.181 7.36568 65.7401 7.91902C66.3048 8.47235 66.7441 9.1683 67.0578 10.0069C67.3716 10.8397 67.5284 11.8152 67.5284 12.9333V13.9344H56.4303V11.6754H64.0972C64.0972 11.1506 63.9831 10.6857 63.7549 10.2807C63.5267 9.87566 63.2101 9.55906 62.8051 9.33088C62.4058 9.097 61.9409 8.98006 61.4104 8.98006C60.857 8.98006 60.3664 9.10841 59.9386 9.36511C59.5165 9.61611 59.1856 9.95553 58.946 10.3834C58.7064 10.8055 58.5838 11.2761 58.5781 11.7952V13.943C58.5781 14.5933 58.6979 15.1552 58.9375 15.6287C59.1827 16.1021 59.5279 16.4672 59.9728 16.7239C60.4178 16.9806 60.9454 17.109 61.5558 17.109C61.9608 17.109 62.3316 17.0519 62.6682 16.9379C63.0048 16.8238 63.2928 16.6526 63.5324 16.4244C63.772 16.1963 63.9546 15.9167 64.0801 15.5859L67.4514 15.8084C67.2803 16.6184 66.9295 17.3258 66.399 17.9304C65.8741 18.5294 65.1953 18.9972 64.3624 19.3337C63.5353 19.6646 62.5798 19.83 61.4959 19.83Z" fill="white"/>
<path d="M72.7181 6.43014L75.1311 11.0251L77.604 6.43014H81.3434L77.5356 13.0017L81.446 19.5733H77.7238L75.1311 15.0297L72.5812 19.5733H68.8162L72.7181 13.0017L68.9532 6.43014H72.7181Z" fill="white"/>
<path d="M88.976 19.83C87.6297 19.83 86.4717 19.5448 85.5019 18.9744C84.5379 18.3982 83.7963 17.5996 83.2772 16.5785C82.7638 15.5574 82.5071 14.3822 82.5071 13.0531C82.5071 11.7068 82.7666 10.526 83.2857 9.51058C83.8106 8.48947 84.555 7.69369 85.5191 7.12324C86.4831 6.54708 87.6297 6.259 88.9589 6.259C90.1055 6.259 91.1095 6.46722 91.9709 6.88365C92.8322 7.30008 93.5139 7.88479 94.0159 8.63778C94.5179 9.39078 94.7946 10.275 94.8459 11.2904H91.4061C91.3091 10.6344 91.0524 10.1067 90.636 9.70738C90.2253 9.30236 89.6862 9.09985 89.0188 9.09985C88.454 9.09985 87.9606 9.25387 87.5385 9.56192C87.122 9.86425 86.7969 10.3064 86.563 10.8882C86.3291 11.4701 86.2122 12.1746 86.2122 13.0017C86.2122 13.8403 86.3262 14.5534 86.5544 15.1409C86.7883 15.7285 87.1163 16.1763 87.5385 16.4843C87.9606 16.7924 88.454 16.9464 89.0188 16.9464C89.4352 16.9464 89.8089 16.8608 90.1397 16.6897C90.4763 16.5186 90.7529 16.2704 90.9697 15.9453C91.1922 15.6144 91.3377 15.2179 91.4061 14.7559H94.8459C94.7889 15.7599 94.5151 16.6441 94.0245 17.4085C93.5396 18.1672 92.8693 18.7604 92.0136 19.1883C91.158 19.6161 90.1454 19.83 88.976 19.83Z" fill="white"/>
<path d="M103.17 19.83C101.818 19.83 100.654 19.5562 99.6784 19.0086C98.7086 18.4553 97.9613 17.6737 97.4365 16.664C96.9117 15.6486 96.6493 14.4478 96.6493 13.0616C96.6493 11.7097 96.9117 10.5231 97.4365 9.50202C97.9613 8.48091 98.7 7.68513 99.6527 7.11468C100.611 6.54423 101.735 6.259 103.024 6.259C103.891 6.259 104.698 6.39876 105.446 6.67828C106.199 6.9521 106.855 7.36568 107.414 7.91902C107.978 8.47235 108.418 9.1683 108.731 10.0069C109.045 10.8397 109.202 11.8152 109.202 12.9333V13.9344H98.1039V11.6754H105.771C105.771 11.1506 105.657 10.6857 105.429 10.2807C105.2 9.87566 104.884 9.55906 104.479 9.33088C104.079 9.097 103.614 8.98006 103.084 8.98006C102.531 8.98006 102.04 9.10841 101.612 9.36511C101.19 9.61611 100.859 9.95553 100.62 10.3834C100.38 10.8055 100.257 11.2761 100.252 11.7952V13.943C100.252 14.5933 100.371 15.1552 100.611 15.6287C100.856 16.1021 101.201 16.4672 101.646 16.7239C102.091 16.9806 102.619 17.109 103.229 17.109C103.634 17.109 104.005 17.0519 104.342 16.9379C104.678 16.8238 104.966 16.6526 105.206 16.4244C105.446 16.1963 105.628 15.9167 105.754 15.5859L109.125 15.8084C108.954 16.6184 108.603 17.3258 108.073 17.9304C107.548 18.5294 106.869 18.9972 106.036 19.3337C105.209 19.6646 104.253 19.83 103.17 19.83Z" fill="white"/>
<path d="M115.226 11.9749V19.5733H111.581V6.43014H115.055V8.74902H115.209C115.5 7.98462 115.988 7.37994 116.672 6.93499C117.357 6.48433 118.187 6.259 119.162 6.259C120.075 6.259 120.871 6.45866 121.549 6.85798C122.228 7.25729 122.756 7.82774 123.132 8.56933C123.509 9.30521 123.697 10.1837 123.697 11.2048V19.5733H120.052V11.8551C120.058 11.0508 119.852 10.4233 119.436 9.97264C119.02 9.51628 118.446 9.2881 117.716 9.2881C117.225 9.2881 116.792 9.39363 116.415 9.6047C116.045 9.81577 115.754 10.1238 115.543 10.5288C115.337 10.9281 115.232 11.4102 115.226 11.9749Z" fill="white"/>
<path d="M133.561 6.43014V9.1683H125.646V6.43014H133.561ZM127.443 3.28125H131.088V15.5345C131.088 15.8711 131.139 16.1335 131.242 16.3218C131.345 16.5043 131.487 16.6327 131.67 16.7068C131.858 16.781 132.075 16.8181 132.32 16.8181C132.491 16.8181 132.663 16.8038 132.834 16.7753C133.005 16.741 133.136 16.7154 133.227 16.6983L133.801 19.4108C133.618 19.4678 133.361 19.5334 133.031 19.6076C132.7 19.6874 132.297 19.7359 131.824 19.753C130.946 19.7873 130.175 19.6703 129.514 19.4022C128.858 19.1341 128.347 18.7177 127.982 18.1529C127.617 17.5882 127.437 16.8751 127.443 16.0137V3.28125Z" fill="white"/>
</svg>
