<svg width="34" height="34" viewBox="0 0 34 34" fill="none" xmlns="http://www.w3.org/2000/svg">
<g clip-path="url(#clip0_211_2332)">
<path d="M32.4496 27.0268L32.4496 27.0269C32.5809 26.9359 32.6927 26.8197 32.7787 26.6851L33.072 26.8724L32.7787 26.6851C32.8646 26.5505 32.9229 26.4001 32.9503 26.2427C32.9776 26.0854 32.9734 25.9242 32.9378 25.7685L33.2771 25.691L32.9378 25.7685C32.9023 25.6127 32.8362 25.4657 32.7433 25.3357L32.7417 25.3336C31.4347 23.4756 29.6537 22.0017 27.5841 21.0652L27.0794 20.8368L27.5042 20.4812C28.764 19.4267 29.6682 18.0096 30.0937 16.4228C30.5192 14.836 30.4453 13.1566 29.8821 11.6132C29.3189 10.0699 28.2938 8.73766 26.9463 7.79787C25.5987 6.85808 23.9943 6.35642 22.3514 6.36119L22.3499 6.3612C21.6187 6.35998 20.891 6.46093 20.1879 6.66112L20.1816 6.6629L20.1816 6.66284C20.0254 6.70417 19.879 6.77616 19.7509 6.87462C19.6228 6.97308 19.5156 7.09603 19.4355 7.23633C19.3553 7.37663 19.3039 7.53146 19.2842 7.69182C19.2645 7.85218 19.2769 8.01485 19.3206 8.17038C19.3644 8.3259 19.4387 8.47116 19.5391 8.59771L19.2665 8.81408L19.5391 8.59771C19.6396 8.72426 19.7642 8.82957 19.9057 8.90749L19.7378 9.21237L19.9057 8.90749C20.0472 8.98542 20.2028 9.03441 20.3635 9.05162C20.5241 9.06883 20.6866 9.05391 20.8414 9.00773L20.8454 9.00653L20.8454 9.00656C21.3351 8.86687 21.8419 8.79648 22.3511 8.79744M32.4496 27.0268L22.3504 9.14547M32.4496 27.0268L32.4455 27.0297C32.2424 27.175 31.9987 27.2527 31.749 27.252C31.5537 27.2508 31.3614 27.2031 31.1881 27.113C31.0149 27.0228 30.8657 26.8928 30.7526 26.7336M32.4496 27.0268L30.4683 26.9344M22.3511 8.79744L22.3504 9.14547M22.3511 8.79744C22.3509 8.79744 22.3507 8.79744 22.3504 8.79744V9.14547M22.3511 8.79744C23.8277 8.79761 25.2438 9.38428 26.288 10.4284C27.3323 11.4727 27.919 12.8891 27.919 14.366C27.919 15.8429 27.3323 17.2592 26.288 18.3036C25.2437 19.3479 23.8273 19.9345 22.3504 19.9345C22.0274 19.9345 21.7175 20.0629 21.4891 20.2913C21.2607 20.5198 21.1323 20.8296 21.1323 21.1527C21.1323 21.4757 21.2607 21.7856 21.4891 22.014C21.7175 22.2425 22.0274 22.3708 22.3504 22.3708H22.3508C23.9982 22.3726 25.6212 22.7698 27.0832 23.529C28.5452 24.2882 29.8035 25.3872 30.7526 26.7336M22.3504 9.14547C23.735 9.14547 25.0629 9.69549 26.0419 10.6745C27.0209 11.6536 27.571 12.9814 27.571 14.366C27.571 15.7506 27.0209 17.0784 26.0419 18.0575C25.0629 19.0365 23.735 19.5865 22.3504 19.5865C21.9351 19.5865 21.5367 19.7515 21.243 20.0452C20.9493 20.3389 20.7843 20.7373 20.7843 21.1527C20.7843 21.568 20.9493 21.9664 21.243 22.2601C21.5367 22.5538 21.9351 22.7188 22.3504 22.7188C23.9422 22.7206 25.5102 23.1043 26.9228 23.8379C28.3354 24.5715 29.5513 25.6334 30.4683 26.9344M30.7526 26.7336C30.7525 26.7334 30.7524 26.7332 30.7522 26.7331L30.4683 26.9344M30.7526 26.7336C30.7527 26.7337 30.7528 26.7338 30.7528 26.7339L30.4683 26.9344M16.8667 20.4817L16.444 20.8374L16.9473 21.0652C19.0169 22.0017 20.7978 23.4756 22.1049 25.3336L22.1099 25.3406L22.1152 25.3475C22.2168 25.4776 22.2908 25.6269 22.3329 25.7865C22.375 25.9461 22.3842 26.1125 22.3599 26.2757C22.3357 26.439 22.2786 26.5956 22.192 26.7361C22.1054 26.8766 21.9912 26.998 21.8563 27.093C21.7214 27.188 21.5685 27.2546 21.4071 27.2887C21.2456 27.3229 21.0789 27.3239 20.9171 27.2916C20.7552 27.2594 20.6016 27.1946 20.4656 27.1012C20.3295 27.0078 20.2139 26.8878 20.1256 26.7483L20.1212 26.7412L20.1164 26.7344C19.1692 25.3854 17.9112 24.2842 16.4486 23.5241C14.986 22.7639 13.3619 22.367 11.7136 22.367C10.0653 22.367 8.4412 22.7639 6.97864 23.5241C5.51607 24.2842 4.25803 25.3854 3.31087 26.7344L3.3101 26.7355C3.19875 26.8954 3.0503 27.0259 2.87746 27.1159C2.70461 27.2058 2.51253 27.2525 2.31768 27.252L2.31555 27.252C2.06566 27.2528 1.82183 27.1751 1.61853 27.0297L1.61686 27.0286C1.35334 26.8425 1.17436 26.5596 1.11918 26.2418C1.06401 25.9241 1.13706 25.5975 1.32231 25.3336C2.62941 23.4756 4.41036 22.0017 6.47998 21.0652L6.98329 20.8374L6.56053 20.4817C5.30411 19.4248 4.40309 18.007 3.97963 16.4207C3.55618 14.8344 3.63077 13.1562 4.19329 11.6137C4.75582 10.0711 5.77907 8.73892 7.12432 7.7976C8.46957 6.85628 10.0717 6.35139 11.7136 6.35139C13.3555 6.35139 14.9577 6.85628 16.3029 7.7976C17.6482 8.73892 18.6714 10.0711 19.234 11.6137C19.7965 13.1562 19.8711 14.8344 19.4476 16.4207C19.0242 18.007 18.1231 19.4248 16.8667 20.4817ZM7.08354 11.2723C6.47166 12.188 6.14507 13.2646 6.14507 14.366C6.14507 15.8429 6.73175 17.2592 7.77606 18.3036C8.82037 19.3479 10.2368 19.9345 11.7136 19.9345C12.815 19.9345 13.8916 19.608 14.8073 18.9961C15.7231 18.3842 16.4368 17.5145 16.8583 16.497C17.2798 15.4795 17.39 14.3598 17.1752 13.2796C16.9603 12.1994 16.43 11.2072 15.6512 10.4284C14.8724 9.64965 13.8802 9.1193 12.8 8.90443C11.7198 8.68957 10.6002 8.79985 9.58263 9.22132C8.56511 9.64279 7.69542 10.3565 7.08354 11.2723Z" fill="#4CAF4F" stroke="#4CAF4F" stroke-width="0.696069"/>
</g>
<defs>
<clipPath id="clip0_211_2332">
<rect width="33.4113" height="33.4113" fill="white" transform="translate(0.228516 0.270569)"/>
</clipPath>
</defs>
</svg>
