<svg width="308" height="302" viewBox="0 0 308 302" fill="none" xmlns="http://www.w3.org/2000/svg">
<path d="M262.213 301.767C262.213 301.868 212.257 301.955 150.655 301.955C89.0519 301.955 39.0747 301.868 39.0747 301.767C39.0747 301.667 89.0231 301.58 150.655 301.58C212.286 301.58 262.213 301.674 262.213 301.767Z" fill="#263238"/>
<path d="M213.538 213.698C202.423 205.935 199.905 191.526 200.344 178.569C200.416 176.411 200.178 174.123 201.207 172.231C202.236 170.339 204.639 169.037 206.574 169.943C208.178 170.699 208.876 172.569 209.775 174.116C210.975 176.176 212.734 177.855 214.847 178.958C216.221 179.677 217.926 180.109 219.286 179.361C221.156 178.332 221.372 175.763 221.358 173.605C221.358 169.591 221.334 165.581 221.286 161.577C221.157 159.426 221.375 157.269 221.933 155.188C222.602 153.145 224.091 151.253 226.127 150.678C228.163 150.102 230.703 151.289 231.163 153.39C231.242 154.28 231.264 155.174 231.228 156.066C231.286 156.965 231.703 157.951 232.545 158.224C233.386 158.498 234.264 157.872 234.911 157.239C237.127 155.081 238.638 152.268 240.041 149.491C241.444 146.714 242.818 143.858 244.832 141.491C246.846 139.124 249.63 137.246 252.745 137.067C255.86 136.887 259.105 138.8 259.882 141.822C260.659 144.843 258.896 147.93 257.004 150.383C254.149 154.024 250.784 157.235 247.012 159.915C246.275 160.317 245.688 160.945 245.336 161.706C244.868 163.145 246.228 164.584 247.645 165.037C249.249 165.569 250.99 165.404 252.681 165.605C254.371 165.807 256.17 166.541 256.81 168.123C257.688 170.325 255.846 172.627 254.04 174.138C250.415 177.159 246.297 179.536 241.868 181.166C240.285 181.742 238.623 182.253 237.343 183.36C236.062 184.468 235.3 186.403 236.07 187.921C236.839 189.439 238.818 189.921 240.48 189.612C242.141 189.303 243.616 188.411 245.199 187.814C248.156 186.698 251.968 186.9 253.832 189.454C254.409 190.334 254.774 191.335 254.899 192.38C255.024 193.425 254.905 194.484 254.551 195.475C253.831 197.447 252.723 199.255 251.292 200.792C246.58 206.421 240.458 210.699 233.552 213.187C226.696 215.561 220.343 216.208 213.531 213.712" fill="#4CAF4F"/>
<path d="M256.717 138.844C256.717 138.844 256.652 138.915 256.508 139.045L255.868 139.613C255.307 140.117 254.479 140.851 253.436 141.822C250.479 144.568 247.732 147.533 245.22 150.692C243.616 152.685 241.954 154.944 240.185 157.397C238.415 159.85 236.588 162.498 234.775 165.31C232.842 168.277 231.072 171.346 229.473 174.504C228.638 176.152 227.904 177.871 227.149 179.627L224.919 184.986C221.979 191.737 219.419 198.647 217.25 205.684C215.503 211.441 214.299 217.349 213.653 223.331C213.235 227.367 213.167 231.433 213.452 235.481C213.567 236.92 213.675 238.021 213.775 238.769C213.818 239.129 213.847 239.416 213.876 239.625V239.92C213.845 239.827 213.823 239.73 213.811 239.632C213.775 239.424 213.732 239.143 213.675 238.783C213.545 238.064 213.408 236.927 213.279 235.489C212.932 231.433 212.956 227.353 213.351 223.302C213.956 217.295 215.134 211.359 216.869 205.576C219.019 198.519 221.573 191.592 224.516 184.828L226.804 179.49C227.559 177.742 228.3 176.008 229.142 174.353C230.752 171.185 232.537 168.109 234.487 165.138C236.329 162.26 238.185 159.656 239.933 157.224C241.681 154.793 243.372 152.519 244.969 150.534C247.506 147.383 250.289 144.439 253.292 141.728C254.357 140.772 255.206 140.052 255.781 139.57L256.45 139.031C256.532 138.959 256.622 138.896 256.717 138.844Z" fill="#263238"/>
<path d="M229.235 174.339C229.134 174.043 229.064 173.736 229.027 173.425C228.911 172.828 228.782 171.987 228.631 170.893C228.322 168.735 228.005 165.778 227.667 162.505C227.329 159.232 226.948 156.268 226.631 154.131C226.466 153.066 226.322 152.21 226.221 151.613C226.142 151.307 226.101 150.993 226.099 150.678C226.223 150.966 226.312 151.268 226.365 151.577C226.523 152.167 226.703 153.016 226.904 154.088C227.314 156.246 227.717 159.181 228.055 162.462C228.394 165.742 228.681 168.62 228.904 170.857C229.012 171.864 229.106 172.72 229.178 173.404C229.234 173.712 229.253 174.026 229.235 174.339Z" fill="#263238"/>
<path d="M256.918 169.174C256.568 169.25 256.211 169.293 255.853 169.303C255.134 169.368 254.112 169.454 252.846 169.598C250.314 169.872 246.832 170.375 243.012 171.095C239.192 171.814 235.76 172.627 233.293 173.253C232.062 173.569 231.07 173.857 230.415 174.051C230.066 174.175 229.704 174.262 229.336 174.31C229.668 174.143 230.015 174.006 230.372 173.9C231.048 173.663 232.026 173.332 233.249 172.979C235.703 172.26 239.134 171.404 242.969 170.67C246.217 170.049 249.494 169.593 252.789 169.303C254.062 169.195 255.091 169.152 255.81 169.138C256.18 169.113 256.551 169.125 256.918 169.174Z" fill="#263238"/>
<path d="M217.221 205.072C217.144 204.968 217.081 204.854 217.034 204.734L216.559 203.734C216.149 202.863 215.595 201.576 214.933 200C213.595 196.835 211.89 192.403 210.077 187.483C208.264 182.562 206.595 178.13 205.329 174.929C204.711 173.375 204.2 172.102 203.819 171.152L203.416 170.123C203.36 170.005 203.321 169.879 203.301 169.749C203.377 169.853 203.44 169.967 203.488 170.087L203.962 171.087C204.365 171.958 204.926 173.246 205.588 174.821C206.926 177.986 208.631 182.418 210.444 187.339C212.257 192.259 213.926 196.691 215.192 199.892C215.811 201.446 216.322 202.72 216.696 203.669C216.861 204.079 216.998 204.389 217.106 204.698C217.162 204.817 217.201 204.943 217.221 205.072Z" fill="#263238"/>
<path d="M253.968 193.223C253.853 193.29 253.73 193.34 253.602 193.375L252.537 193.734L248.602 195.008C245.278 196.087 240.688 197.626 235.652 199.324C230.617 201.022 226.005 202.533 222.66 203.54C220.991 204.051 219.631 204.439 218.689 204.698L217.602 204.979C217.476 205.019 217.346 205.045 217.214 205.058C217.329 204.992 217.453 204.941 217.581 204.907L218.646 204.547L222.581 203.274C225.904 202.194 230.494 200.655 235.53 198.957C240.566 197.259 245.17 195.749 248.515 194.741C250.192 194.231 251.544 193.842 252.494 193.583L253.58 193.303C253.706 193.262 253.837 193.236 253.968 193.223Z" fill="#263238"/>
<path d="M238.976 18.7171L235.271 20.0408L233.681 15.1992C230.76 6.27141 221.451 1.53052 212.897 4.54483C204.344 7.55914 199.79 17.3503 202.711 26.2781L204.301 31.1197L200.581 32.4506C199.163 33.0007 198.011 34.0762 197.365 35.4535C196.72 36.8308 196.63 38.404 197.114 39.8461L207.423 71.3489C207.637 72.0628 207.992 72.7264 208.468 73.3002C208.943 73.8741 209.529 74.3465 210.191 74.6894C210.852 75.0323 211.576 75.2388 212.319 75.2964C213.062 75.3541 213.809 75.2618 214.516 75.0251L252.911 61.2916C254.348 60.7425 255.516 59.6574 256.169 58.2648C256.823 56.8721 256.911 55.2803 256.414 53.8242L246.098 22.3214C245.878 21.6095 245.518 20.9491 245.037 20.3797C244.557 19.8102 243.967 19.3434 243.302 19.007C242.638 18.6706 241.912 18.4716 241.169 18.4218C240.425 18.372 239.68 18.4724 238.976 18.7171ZM209.71 23.753C208.923 21.4316 209.064 18.8955 210.105 16.6761C211.146 14.4566 213.005 12.726 215.293 11.8468C216.423 11.4602 217.619 11.3052 218.81 11.391C220.001 11.4768 221.163 11.8016 222.226 12.3461C223.289 12.8906 224.231 13.6437 224.996 14.5603C225.762 15.4769 226.335 16.5383 226.681 17.6812L228.264 22.5228L211.293 28.5946L209.71 23.753ZM231.293 51.7091L233.926 59.7521C233.974 59.9133 233.958 60.087 233.882 60.2371C233.806 60.3871 233.674 60.502 233.516 60.5578L229.825 61.8743C229.678 61.915 229.521 61.8973 229.387 61.8249C229.253 61.7525 229.152 61.631 229.106 61.4858L226.451 53.4788C224.987 53.3991 223.583 52.8741 222.426 51.9741C221.269 51.0741 220.414 49.8421 219.976 48.443C219.351 46.5934 219.465 44.5734 220.295 42.806C221.125 41.0386 222.607 39.6609 224.43 38.9612C225.33 38.6537 226.282 38.5305 227.231 38.5991C228.18 38.6676 229.105 38.9264 229.951 39.3601C230.798 39.7937 231.549 40.3934 232.158 41.1233C232.768 41.8532 233.225 42.6984 233.501 43.6086C233.964 45.0298 234.002 46.5552 233.611 47.9978C233.22 49.4405 232.417 50.7377 231.3 51.7307L231.293 51.7091Z" fill="#4CAF4F"/>
<path d="M235.106 19.9545C235.106 20.0552 228.235 22.6379 219.689 25.7098C211.142 28.7816 204.171 31.2492 204.135 31.1773C204.099 31.1053 211.005 28.5011 219.559 25.422C228.113 22.343 235.07 19.861 235.106 19.9545Z" fill="#263238"/>
<path d="M243.264 21.2782C243.295 21.3406 243.322 21.4056 243.343 21.4724C243.4 21.6163 243.465 21.8034 243.551 22.0336C243.738 22.5587 243.997 23.2853 244.321 24.1918L247.084 32.2348C248.235 35.6447 249.609 39.6878 251.134 44.1769C251.853 46.4286 252.702 48.7739 253.494 51.2415C253.917 52.5131 254.1 53.8524 254.033 55.191C253.972 55.8872 253.774 56.5644 253.45 57.1838C253.105 57.8011 252.643 58.3458 252.091 58.788C250.979 59.5994 249.746 60.2283 248.436 60.6513L244.731 61.9822L237.717 64.4929L225.84 68.723L217.818 71.5431L215.66 72.2625L215.084 72.4496C215.023 72.4769 214.957 72.4939 214.89 72.4999C214.89 72.4999 214.948 72.4999 215.07 72.4136L215.631 72.1906L217.789 71.3776L225.768 68.4425L237.623 64.126L244.623 61.5937L248.328 60.2556C249.601 59.8499 250.798 59.24 251.875 58.4499C252.389 58.0395 252.819 57.5339 253.141 56.9607C253.446 56.3879 253.629 55.7586 253.681 55.1119C253.747 53.8221 253.571 52.5314 253.163 51.3062C252.386 48.8602 251.566 46.4934 250.825 44.2416C249.328 39.7454 247.947 35.6879 246.853 32.2779C245.76 28.8679 244.839 26.127 244.206 24.199C243.904 23.2566 243.674 22.5228 243.487 21.9904L243.314 21.4149C243.292 21.3713 243.275 21.3255 243.264 21.2782Z" fill="#263238"/>
<path d="M223.005 11.3576C223.005 11.3576 222.624 11.1706 221.919 10.8828C220.914 10.4967 219.851 10.2827 218.775 10.2497C217.18 10.195 215.593 10.4948 214.128 11.1274C212.346 11.9151 210.823 13.1893 209.732 14.8036C208.634 16.4133 208.045 18.3155 208.042 20.2639C208.057 21.8608 208.299 23.4474 208.761 24.976C209.135 26.2853 209.524 27.3284 209.782 28.055C209.935 28.4241 210.06 28.804 210.157 29.1917C209.952 28.8466 209.781 28.4829 209.646 28.1054C209.351 27.386 208.926 26.3644 208.509 25.0479C207.997 23.5033 207.718 21.8908 207.682 20.2639C207.663 18.2419 208.265 16.2629 209.408 14.5949C210.537 12.9217 212.123 11.6081 213.977 10.8109C215.487 10.1748 217.124 9.89421 218.761 9.99075C219.86 10.0468 220.94 10.3028 221.948 10.7461C222.217 10.8704 222.477 11.0147 222.725 11.1778C222.827 11.2227 222.922 11.2834 223.005 11.3576Z" fill="#263238"/>
<path d="M223.336 39.508C223.451 39.4384 223.571 39.3783 223.696 39.3281C224.056 39.1656 224.429 39.0333 224.811 38.9325C225.417 38.7535 226.043 38.6472 226.674 38.6159C227.533 38.5698 228.392 38.6995 229.199 38.9972C231.041 39.6447 232.732 41.5223 233.566 44.033C233.966 45.3804 233.966 46.8151 233.566 48.1624C233.122 49.6248 232.327 50.9562 231.25 52.04L231.293 51.8458C232.25 54.4716 233.293 57.3205 234.372 60.2916L234.437 60.4715L234.257 60.5362L232.609 61.083L229.012 62.2844L228.832 62.3419L228.775 62.1621C227.789 59.1837 226.71 56.4068 225.897 53.6803L226.055 53.8026C224.649 53.6858 223.308 53.1579 222.199 52.2846C221.196 51.5121 220.374 50.5301 219.789 49.407C219.262 48.4111 218.999 47.2963 219.027 46.1697C219.06 45.0182 219.348 43.8884 219.869 42.8611C220.39 41.8338 221.132 40.9344 222.041 40.2274C222.416 39.9235 222.836 39.6807 223.286 39.508C222.879 39.7491 222.486 40.0108 222.106 40.2921C221.107 41.1373 220.342 42.2247 219.883 43.4503C219.489 44.3745 219.305 45.3744 219.344 46.3781C219.382 47.3819 219.643 48.3647 220.106 49.2559C220.681 50.3363 221.483 51.2789 222.458 52.0185C223.516 52.8485 224.795 53.3489 226.135 53.4573H226.257L226.293 53.5652C227.084 56.2414 228.171 59.0399 229.17 62.0326L228.933 61.9175L232.53 60.7161L234.17 60.1621L234.055 60.4067C232.983 57.4356 231.947 54.5795 230.998 51.9537V51.8458L231.084 51.7595C232.13 50.7206 232.91 49.4447 233.357 48.0401C233.739 46.7513 233.739 45.3795 233.357 44.0906C232.573 41.6734 230.955 39.8389 229.199 39.1914C228.422 38.8918 227.593 38.7523 226.76 38.7814C226.139 38.7956 225.521 38.8801 224.919 39.0332C223.847 39.2994 223.343 39.544 223.336 39.508Z" fill="#263238"/>
<path d="M201.099 247.229L129.238 246.898C125.088 246.876 121.117 245.207 118.196 242.258C115.276 239.309 113.646 235.322 113.663 231.172L114.425 51.0257C114.434 48.9696 114.847 46.9354 115.642 45.0393C116.438 43.1433 117.599 41.4225 119.059 39.9753C120.52 38.5282 122.251 37.383 124.154 36.6054C126.058 35.8278 128.096 35.4329 130.152 35.4433L202.006 35.7742C206.156 35.7952 210.128 37.4624 213.049 40.4096C215.971 43.3569 217.603 47.3433 217.588 51.4933L216.826 231.633C216.817 233.689 216.404 235.724 215.609 237.621C214.814 239.518 213.653 241.24 212.193 242.688C210.732 244.136 209.001 245.283 207.098 246.062C205.194 246.841 203.156 247.238 201.099 247.229Z" fill="#455A64"/>
<path d="M201.898 41.9684H187.97C187.516 41.9768 187.068 42.0747 186.651 42.2564C186.234 42.4381 185.858 42.7001 185.542 43.0275C185.227 43.3548 184.979 43.7411 184.813 44.1642C184.647 44.5873 184.566 45.039 184.575 45.4935V48.0186C184.583 48.4727 184.502 48.924 184.336 49.3467C184.17 49.7694 183.922 50.1552 183.607 50.482C183.291 50.8087 182.915 51.0701 182.498 51.251C182.081 51.432 181.633 51.529 181.179 51.5365L154.029 51.4142C153.11 51.3897 152.239 51.0017 151.606 50.3353C150.974 49.669 150.632 48.7788 150.655 47.8603V45.3352C150.678 44.4179 150.337 43.5288 149.706 42.8626C149.074 42.1965 148.205 41.8077 147.288 41.7813H142.389L130.195 41.7238C127.294 41.7065 124.505 42.8392 122.438 44.8739C120.371 46.9085 119.195 49.6793 119.166 52.5796L118.447 228.417C118.44 229.856 118.717 231.282 119.262 232.614C119.806 233.945 120.608 235.157 121.62 236.179C122.633 237.201 123.837 238.014 125.164 238.571C126.491 239.127 127.914 239.417 129.353 239.424L201.064 239.755C202.503 239.761 203.93 239.484 205.263 238.939C206.596 238.395 207.808 237.593 208.831 236.579C209.854 235.566 210.667 234.361 211.224 233.033C211.781 231.706 212.071 230.281 212.078 228.841L212.797 53.0041C212.814 50.0956 211.676 47.2993 209.632 45.2299C207.588 43.1605 204.806 41.9874 201.898 41.9684Z" fill="white"/>
<path d="M192.251 216.295L138.928 216.065C138.374 216.065 137.928 215.46 137.935 214.727L137.993 200.777C137.993 200.058 138.446 199.439 139 199.439L192.323 199.684C192.629 199.737 192.904 199.906 193.089 200.157C193.274 200.408 193.355 200.72 193.315 201.029L193.265 214.964C193.265 215.705 192.805 216.302 192.251 216.295Z" fill="#4CAF4F"/>
<path d="M155.14 209.618C154.846 209.618 154.563 209.571 154.291 209.476C154.023 209.378 153.816 209.254 153.669 209.103L153.833 208.78C153.972 208.916 154.159 209.031 154.393 209.125C154.631 209.216 154.88 209.261 155.14 209.261C155.389 209.261 155.591 209.231 155.746 209.171C155.904 209.106 156.019 209.022 156.091 208.916C156.167 208.81 156.204 208.693 156.204 208.565C156.204 208.41 156.159 208.286 156.068 208.191C155.982 208.097 155.867 208.023 155.723 207.971C155.58 207.914 155.421 207.865 155.248 207.823C155.074 207.782 154.901 207.739 154.727 207.693C154.553 207.644 154.393 207.58 154.246 207.501C154.103 207.422 153.986 207.318 153.895 207.19C153.808 207.058 153.765 206.886 153.765 206.675C153.765 206.478 153.816 206.299 153.918 206.137C154.023 205.971 154.184 205.839 154.399 205.741C154.614 205.639 154.889 205.588 155.225 205.588C155.448 205.588 155.668 205.62 155.887 205.684C156.106 205.744 156.295 205.829 156.453 205.939L156.312 206.273C156.142 206.159 155.961 206.076 155.768 206.024C155.58 205.971 155.397 205.944 155.219 205.944C154.982 205.944 154.786 205.976 154.631 206.041C154.476 206.105 154.361 206.192 154.286 206.301C154.214 206.407 154.178 206.527 154.178 206.663C154.178 206.818 154.221 206.942 154.308 207.037C154.399 207.131 154.516 207.205 154.659 207.258C154.806 207.31 154.967 207.357 155.14 207.399C155.314 207.441 155.485 207.486 155.655 207.535C155.829 207.584 155.987 207.648 156.131 207.727C156.278 207.803 156.395 207.905 156.482 208.033C156.572 208.161 156.617 208.329 156.617 208.537C156.617 208.729 156.565 208.908 156.459 209.074C156.353 209.237 156.191 209.369 155.972 209.471C155.757 209.569 155.48 209.618 155.14 209.618ZM157.53 209.584V205.622H157.949V209.584H157.53ZM159.238 209.584V205.622H159.583L162.317 209.063H162.136V205.622H162.549V209.584H162.204L159.476 206.142H159.657V209.584H159.238ZM165.58 209.618C165.278 209.618 164.999 209.569 164.742 209.471C164.489 209.369 164.269 209.227 164.08 209.046C163.895 208.865 163.75 208.652 163.644 208.406C163.542 208.161 163.491 207.893 163.491 207.603C163.491 207.312 163.542 207.044 163.644 206.799C163.75 206.554 163.897 206.341 164.086 206.159C164.274 205.978 164.495 205.839 164.748 205.741C165.004 205.639 165.284 205.588 165.585 205.588C165.887 205.588 166.163 205.635 166.412 205.729C166.665 205.824 166.88 205.967 167.057 206.159L166.797 206.425C166.631 206.259 166.448 206.141 166.248 206.069C166.048 205.997 165.833 205.961 165.602 205.961C165.357 205.961 165.131 206.003 164.923 206.086C164.719 206.165 164.54 206.28 164.386 206.431C164.235 206.578 164.116 206.752 164.029 206.952C163.946 207.148 163.904 207.365 163.904 207.603C163.904 207.837 163.946 208.054 164.029 208.254C164.116 208.454 164.235 208.629 164.386 208.78C164.54 208.927 164.719 209.042 164.923 209.125C165.131 209.205 165.355 209.244 165.597 209.244C165.823 209.244 166.036 209.21 166.236 209.142C166.44 209.074 166.627 208.959 166.797 208.797L167.034 209.114C166.846 209.28 166.625 209.406 166.372 209.493C166.119 209.576 165.855 209.618 165.58 209.618ZM166.633 209.063V207.603H167.034V209.114L166.633 209.063ZM171.297 209.618C170.792 209.618 170.393 209.472 170.103 209.182C169.812 208.891 169.667 208.461 169.667 207.891V205.622H170.086V207.874C170.086 208.342 170.192 208.688 170.403 208.91C170.614 209.133 170.912 209.244 171.297 209.244C171.686 209.244 171.986 209.133 172.197 208.91C172.408 208.688 172.514 208.342 172.514 207.874V205.622H172.922V207.891C172.922 208.461 172.776 208.891 172.486 209.182C172.199 209.472 171.803 209.618 171.297 209.618ZM174.184 209.584V205.622H175.667C176.002 205.622 176.291 205.676 176.533 205.786C176.774 205.892 176.959 206.046 177.087 206.25C177.219 206.45 177.285 206.693 177.285 206.98C177.285 207.259 177.219 207.501 177.087 207.705C176.959 207.905 176.774 208.059 176.533 208.169C176.291 208.278 176.002 208.333 175.667 208.333H174.416L174.603 208.135V209.584H174.184ZM174.603 208.169L174.416 207.965H175.655C176.052 207.965 176.351 207.88 176.555 207.71C176.763 207.537 176.867 207.293 176.867 206.98C176.867 206.663 176.763 206.418 176.555 206.244C176.351 206.071 176.052 205.984 175.655 205.984H174.416L174.603 205.786V208.169Z" fill="#E8E8E3"/>
<path d="M149.564 93.6578L131.061 93.5739L131.046 96.9694L149.549 97.0534L149.564 93.6578Z" fill="#4CAF4F"/>
<path opacity="0.1" d="M149.564 93.6578L131.061 93.5739L131.046 96.9694L149.549 97.0534L149.564 93.6578Z" fill="black"/>
<path d="M203.804 114.506C203.95 114.491 204.092 114.457 204.229 114.405C204.428 114.327 204.601 114.195 204.728 114.023C204.856 113.851 204.932 113.647 204.948 113.434C204.948 112.29 204.948 110.621 204.948 108.477C204.948 107.406 204.948 106.204 204.948 104.88C204.948 104.557 204.948 104.219 204.948 103.88C204.995 103.552 204.924 103.218 204.747 102.938C204.648 102.804 204.519 102.694 204.37 102.618C204.222 102.542 204.058 102.501 203.891 102.499H202.768H192.373L132.202 102.276C132.048 102.274 131.895 102.308 131.758 102.377C131.62 102.446 131.501 102.547 131.411 102.672C131.237 102.953 131.17 103.288 131.223 103.614C131.223 104.334 131.223 105.053 131.223 105.772C131.223 107.211 131.223 108.65 131.223 110.089C131.223 110.808 131.223 111.528 131.223 112.247C131.194 112.582 131.194 112.919 131.223 113.254C131.261 113.398 131.331 113.531 131.429 113.643C131.526 113.755 131.648 113.844 131.785 113.902C131.926 113.958 132.078 113.985 132.231 113.981H135.892L151.87 114.067L178.92 114.233L197.157 114.377L202.114 114.434H203.401C203.696 114.434 203.84 114.434 203.84 114.434H203.401H202.114H197.157H178.92L151.87 114.348L135.892 114.283H132.231C132.029 114.291 131.828 114.257 131.641 114.182C131.451 114.101 131.283 113.978 131.148 113.823C131.014 113.667 130.916 113.482 130.864 113.283C130.822 113.094 130.808 112.9 130.821 112.708V112.175C130.821 111.456 130.821 110.736 130.821 110.017C130.821 108.578 130.821 107.139 130.821 105.701C130.821 104.981 130.821 104.262 130.821 103.542C130.807 103.351 130.807 103.158 130.821 102.967C130.848 102.755 130.929 102.554 131.058 102.384C131.182 102.21 131.346 102.069 131.537 101.973C131.727 101.876 131.938 101.827 132.151 101.83L192.323 102.161L202.718 102.233H203.84C204.038 102.233 204.233 102.281 204.408 102.372C204.583 102.464 204.734 102.596 204.848 102.758C205.05 103.071 205.132 103.447 205.078 103.816C205.078 104.154 205.078 104.492 205.078 104.816C205.078 106.125 205.078 107.326 205.078 108.413C205.078 110.571 205.027 112.226 205.013 113.377C204.995 113.598 204.915 113.81 204.781 113.987C204.647 114.164 204.466 114.299 204.258 114.377C204.121 114.461 203.965 114.506 203.804 114.506Z" fill="#E0E0E0"/>
<path d="M170.46 105.888H136.619V109.06H170.46V105.888Z" fill="#4CAF4F"/>
<path opacity="0.2" d="M170.46 105.888H136.619V109.06H170.46V105.888Z" fill="white"/>
<path d="M149.438 124.635L130.935 124.551L130.919 127.946L149.422 128.03L149.438 124.635Z" fill="#4CAF4F"/>
<path opacity="0.1" d="M149.438 124.635L130.935 124.551L130.919 127.946L149.422 128.03L149.438 124.635Z" fill="black"/>
<path d="M203.337 145.484C203.482 145.466 203.626 145.439 203.768 145.405C203.969 145.341 204.154 145.234 204.311 145.093C204.467 144.951 204.591 144.778 204.675 144.584C204.788 144.294 204.832 143.981 204.804 143.671C204.804 143.325 204.804 142.951 204.804 142.534C204.804 141.7 204.804 140.75 204.804 139.657V135.088C204.839 134.758 204.766 134.425 204.596 134.139C204.418 133.845 204.139 133.628 203.812 133.527C203.453 133.463 203.088 133.444 202.725 133.47H192.373L132.411 133.247C132.088 133.247 131.777 133.365 131.535 133.578C131.292 133.791 131.136 134.085 131.094 134.405C131.094 135.088 131.094 135.844 131.094 136.563C131.094 138.002 131.094 139.441 131.094 140.88C131.094 141.599 131.094 142.318 131.094 143.038C131.067 143.374 131.082 143.712 131.137 144.045C131.227 144.337 131.412 144.59 131.662 144.764C131.928 144.933 132.24 145.013 132.554 144.995H133.554H135.633L151.554 145.074L178.51 145.239L196.682 145.383L201.625 145.441H196.682H178.51L151.54 145.412L135.619 145.354H132.49C132.101 145.377 131.714 145.274 131.389 145.059C131.062 144.832 130.823 144.5 130.713 144.117C130.648 143.751 130.629 143.379 130.655 143.009C130.655 142.29 130.655 141.57 130.655 140.851C130.655 139.412 130.655 137.973 130.655 136.534C130.655 135.815 130.655 135.095 130.655 134.376C130.708 133.965 130.908 133.587 131.219 133.312C131.531 133.038 131.931 132.887 132.346 132.887L192.308 133.218L202.661 133.297C203.046 133.273 203.433 133.3 203.812 133.376C204.185 133.498 204.501 133.755 204.696 134.095C204.883 134.412 204.963 134.78 204.927 135.146C204.927 135.484 204.927 135.815 204.927 136.146C204.927 137.448 204.927 138.642 204.927 139.743C204.927 140.844 204.927 141.772 204.927 142.62C204.927 143.031 204.927 143.412 204.927 143.764C204.953 144.086 204.901 144.409 204.776 144.707C204.682 144.905 204.547 145.081 204.379 145.223C204.212 145.364 204.016 145.468 203.804 145.527C203.647 145.54 203.489 145.525 203.337 145.484Z" fill="#E0E0E0"/>
<path d="M149.298 156.957L130.795 156.873L130.78 160.268L149.283 160.352L149.298 156.957Z" fill="#4CAF4F"/>
<path opacity="0.1" d="M149.298 156.957L130.795 156.873L130.78 160.268L149.283 160.352L149.298 156.957Z" fill="black"/>
<path d="M203.193 177.792C203.338 177.775 203.483 177.749 203.625 177.713C203.825 177.65 204.009 177.544 204.165 177.404C204.321 177.264 204.446 177.092 204.531 176.9C204.644 176.61 204.688 176.297 204.66 175.987C204.66 175.634 204.66 175.267 204.66 174.843C204.66 174.015 204.66 173.059 204.66 171.965V167.397C204.695 167.066 204.622 166.733 204.452 166.447C204.27 166.159 203.992 165.945 203.668 165.843C203.31 165.776 202.945 165.755 202.581 165.778H192.229L132.267 165.555C131.944 165.556 131.633 165.674 131.391 165.887C131.149 166.1 130.992 166.394 130.95 166.713C130.95 167.433 130.95 168.152 130.95 168.872C130.95 170.31 130.95 171.749 130.95 173.188C130.95 173.907 130.95 174.627 130.95 175.346C130.923 175.68 130.938 176.016 130.993 176.346C131.079 176.64 131.265 176.894 131.518 177.066C131.783 177.238 132.096 177.319 132.411 177.296H135.54L151.46 177.382L178.417 177.548L196.589 177.692L201.531 177.749H196.589H178.417L151.46 177.67L135.54 177.605H132.411C132.021 177.631 131.634 177.528 131.31 177.31C130.982 177.083 130.744 176.751 130.634 176.368C130.569 176.002 130.55 175.63 130.576 175.26C130.576 174.541 130.576 173.821 130.576 173.102C130.576 171.663 130.576 170.224 130.576 168.785C130.576 168.066 130.576 167.346 130.576 166.591C130.627 166.18 130.826 165.802 131.136 165.528C131.446 165.254 131.846 165.102 132.259 165.102L192.222 165.433L202.574 165.512C202.96 165.488 203.347 165.515 203.725 165.591C204.099 165.713 204.414 165.97 204.61 166.311C204.796 166.627 204.877 166.995 204.84 167.361C204.84 167.699 204.84 168.037 204.84 168.361C204.84 169.663 204.84 170.857 204.84 171.958C204.84 173.059 204.84 173.987 204.84 174.835C204.84 175.246 204.84 175.627 204.84 175.979C204.868 176.301 204.816 176.625 204.689 176.922C204.596 177.12 204.461 177.296 204.293 177.438C204.126 177.579 203.929 177.683 203.718 177.742C203.549 177.8 203.369 177.817 203.193 177.792Z" fill="#E0E0E0"/>
<path d="M169.737 137.762L135.897 137.609L135.883 140.781L169.723 140.935L169.737 137.762Z" fill="#4CAF4F"/>
<path opacity="0.2" d="M169.737 137.762L135.897 137.609L135.883 140.781L169.723 140.935L169.737 137.762Z" fill="white"/>
<path d="M138.957 171.922C138.936 172.211 138.83 172.488 138.653 172.718C138.476 172.948 138.235 173.121 137.961 173.215C137.687 173.309 137.39 173.321 137.109 173.249C136.828 173.176 136.575 173.023 136.38 172.808C136.186 172.593 136.058 172.325 136.014 172.038C135.97 171.752 136.011 171.458 136.132 171.194C136.254 170.931 136.45 170.709 136.696 170.555C136.942 170.402 137.228 170.324 137.518 170.332C137.919 170.354 138.295 170.534 138.564 170.831C138.834 171.129 138.975 171.521 138.957 171.922Z" fill="#4CAF4F"/>
<path d="M143.54 171.943C143.554 172.146 143.526 172.35 143.458 172.541C143.39 172.733 143.284 172.909 143.145 173.057C143.006 173.206 142.839 173.325 142.652 173.406C142.466 173.487 142.265 173.529 142.061 173.529C141.858 173.529 141.657 173.487 141.47 173.406C141.284 173.325 141.116 173.206 140.978 173.057C140.839 172.909 140.732 172.733 140.664 172.541C140.597 172.35 140.569 172.146 140.583 171.943C140.569 171.741 140.597 171.537 140.664 171.345C140.732 171.154 140.839 170.978 140.978 170.829C141.116 170.681 141.284 170.562 141.47 170.481C141.657 170.4 141.858 170.358 142.061 170.358C142.265 170.358 142.466 170.4 142.652 170.481C142.839 170.562 143.006 170.681 143.145 170.829C143.284 170.978 143.39 171.154 143.458 171.345C143.526 171.537 143.554 171.741 143.54 171.943Z" fill="#4CAF4F"/>
<path d="M148.129 171.965C148.108 172.254 148.002 172.531 147.825 172.761C147.648 172.991 147.408 173.164 147.133 173.258C146.859 173.352 146.563 173.364 146.282 173.292C146.001 173.219 145.747 173.066 145.553 172.851C145.358 172.636 145.231 172.368 145.187 172.082C145.143 171.795 145.184 171.501 145.305 171.238C145.426 170.974 145.622 170.752 145.868 170.598C146.115 170.445 146.401 170.367 146.691 170.375C147.091 170.399 147.465 170.579 147.734 170.877C148.003 171.174 148.145 171.565 148.129 171.965Z" fill="#4CAF4F"/>
<path d="M152.712 171.987C152.691 172.276 152.585 172.553 152.408 172.783C152.231 173.012 151.99 173.185 151.716 173.28C151.442 173.374 151.146 173.386 150.865 173.313C150.584 173.241 150.33 173.088 150.135 172.873C149.941 172.657 149.813 172.39 149.769 172.103C149.725 171.816 149.766 171.523 149.888 171.259C150.009 170.996 150.205 170.773 150.451 170.62C150.697 170.467 150.983 170.389 151.273 170.397C151.673 170.421 152.048 170.601 152.317 170.898C152.586 171.195 152.728 171.586 152.712 171.987Z" fill="#4CAF4F"/>
<path d="M157.295 172.001C157.275 172.291 157.17 172.568 156.994 172.799C156.818 173.03 156.577 173.204 156.303 173.299C156.029 173.395 155.732 173.408 155.451 173.336C155.169 173.264 154.915 173.112 154.72 172.897C154.524 172.682 154.396 172.414 154.352 172.127C154.307 171.84 154.348 171.546 154.469 171.282C154.59 171.018 154.786 170.795 155.033 170.642C155.279 170.488 155.566 170.41 155.856 170.418C156.255 170.442 156.628 170.621 156.897 170.917C157.166 171.213 157.309 171.602 157.295 172.001Z" fill="#4CAF4F"/>
<path d="M161.885 172.023C161.865 172.311 161.761 172.587 161.587 172.817C161.412 173.048 161.174 173.222 160.902 173.318C160.629 173.415 160.335 173.43 160.054 173.361C159.773 173.293 159.519 173.144 159.322 172.932C159.125 172.721 158.994 172.456 158.945 172.172C158.897 171.887 158.932 171.594 159.048 171.329C159.163 171.064 159.354 170.839 159.596 170.681C159.838 170.523 160.121 170.439 160.41 170.44C160.815 170.455 161.198 170.63 161.474 170.927C161.751 171.223 161.898 171.617 161.885 172.023Z" fill="#4CAF4F"/>
<path d="M166.467 172.044C166.481 172.247 166.454 172.451 166.386 172.642C166.318 172.834 166.211 173.009 166.073 173.158C165.934 173.307 165.766 173.425 165.58 173.506C165.393 173.587 165.192 173.629 164.989 173.629C164.785 173.629 164.584 173.587 164.398 173.506C164.211 173.425 164.044 173.307 163.905 173.158C163.766 173.009 163.66 172.834 163.592 172.642C163.524 172.451 163.496 172.247 163.51 172.044C163.496 171.841 163.524 171.638 163.592 171.446C163.66 171.254 163.766 171.079 163.905 170.93C164.044 170.781 164.211 170.663 164.398 170.582C164.584 170.501 164.785 170.459 164.989 170.459C165.192 170.459 165.393 170.501 165.58 170.582C165.766 170.663 165.934 170.781 166.073 170.93C166.211 171.079 166.318 171.254 166.386 171.446C166.454 171.638 166.481 171.841 166.467 172.044Z" fill="#4CAF4F"/>
<path d="M171.05 172.066C171.03 172.354 170.927 172.63 170.752 172.861C170.577 173.091 170.339 173.265 170.067 173.362C169.795 173.458 169.5 173.473 169.219 173.405C168.939 173.336 168.684 173.187 168.487 172.975C168.29 172.764 168.159 172.499 168.111 172.215C168.062 171.93 168.098 171.637 168.213 171.372C168.329 171.107 168.519 170.882 168.761 170.724C169.003 170.566 169.286 170.482 169.575 170.483C169.98 170.498 170.363 170.673 170.639 170.97C170.916 171.266 171.063 171.66 171.05 172.066Z" fill="#4CAF4F"/>
<path d="M175.632 172.087C175.613 172.377 175.508 172.655 175.332 172.886C175.155 173.116 174.915 173.29 174.641 173.386C174.366 173.481 174.07 173.494 173.788 173.422C173.507 173.351 173.253 173.198 173.057 172.983C172.862 172.768 172.734 172.5 172.689 172.213C172.645 171.926 172.686 171.633 172.807 171.368C172.928 171.104 173.124 170.882 173.37 170.728C173.617 170.575 173.903 170.497 174.194 170.505C174.592 170.529 174.966 170.708 175.235 171.003C175.504 171.299 175.646 171.688 175.632 172.087Z" fill="#4CAF4F"/>
<g opacity="0.2">
<path d="M138.957 171.922C138.936 172.211 138.83 172.488 138.653 172.718C138.476 172.948 138.235 173.121 137.961 173.215C137.687 173.309 137.39 173.321 137.109 173.249C136.828 173.176 136.575 173.023 136.38 172.808C136.186 172.593 136.058 172.325 136.014 172.038C135.97 171.752 136.011 171.458 136.132 171.194C136.254 170.931 136.45 170.709 136.696 170.555C136.942 170.402 137.228 170.324 137.518 170.332C137.919 170.354 138.295 170.534 138.564 170.831C138.834 171.129 138.975 171.521 138.957 171.922Z" fill="white"/>
<path d="M143.54 171.943C143.554 172.146 143.526 172.35 143.458 172.541C143.39 172.733 143.284 172.909 143.145 173.057C143.006 173.206 142.839 173.325 142.652 173.406C142.466 173.487 142.265 173.529 142.061 173.529C141.858 173.529 141.657 173.487 141.47 173.406C141.284 173.325 141.116 173.206 140.978 173.057C140.839 172.909 140.732 172.733 140.664 172.541C140.597 172.35 140.569 172.146 140.583 171.943C140.569 171.741 140.597 171.537 140.664 171.345C140.732 171.154 140.839 170.978 140.978 170.829C141.116 170.681 141.284 170.562 141.47 170.481C141.657 170.4 141.858 170.358 142.061 170.358C142.265 170.358 142.466 170.4 142.652 170.481C142.839 170.562 143.006 170.681 143.145 170.829C143.284 170.978 143.39 171.154 143.458 171.345C143.526 171.537 143.554 171.741 143.54 171.943Z" fill="white"/>
<path d="M148.129 171.965C148.108 172.254 148.002 172.531 147.825 172.761C147.648 172.991 147.408 173.164 147.133 173.258C146.859 173.352 146.563 173.364 146.282 173.292C146.001 173.219 145.747 173.066 145.553 172.851C145.358 172.636 145.231 172.368 145.187 172.081C145.143 171.795 145.184 171.501 145.305 171.238C145.426 170.974 145.622 170.752 145.868 170.598C146.115 170.445 146.401 170.367 146.691 170.375C147.091 170.399 147.465 170.579 147.734 170.876C148.003 171.174 148.145 171.564 148.129 171.965Z" fill="white"/>
<path d="M152.712 171.987C152.691 172.276 152.585 172.553 152.408 172.783C152.231 173.012 151.99 173.185 151.716 173.28C151.442 173.374 151.146 173.386 150.865 173.313C150.584 173.241 150.33 173.088 150.135 172.873C149.941 172.657 149.813 172.39 149.769 172.103C149.725 171.816 149.766 171.523 149.888 171.259C150.009 170.996 150.205 170.773 150.451 170.62C150.697 170.467 150.983 170.389 151.273 170.397C151.673 170.421 152.048 170.601 152.317 170.898C152.586 171.195 152.728 171.586 152.712 171.987Z" fill="white"/>
<path d="M157.295 172.001C157.275 172.291 157.17 172.568 156.994 172.799C156.818 173.03 156.577 173.204 156.303 173.299C156.029 173.395 155.732 173.408 155.451 173.336C155.169 173.264 154.915 173.112 154.72 172.897C154.524 172.682 154.396 172.414 154.352 172.127C154.307 171.84 154.348 171.546 154.469 171.282C154.59 171.018 154.786 170.795 155.033 170.642C155.279 170.488 155.566 170.41 155.856 170.418C156.255 170.442 156.628 170.621 156.897 170.917C157.166 171.213 157.309 171.602 157.295 172.001Z" fill="white"/>
<path d="M161.885 172.023C161.865 172.311 161.761 172.587 161.587 172.817C161.412 173.048 161.174 173.222 160.902 173.318C160.629 173.415 160.335 173.43 160.054 173.361C159.773 173.293 159.519 173.144 159.322 172.932C159.125 172.721 158.994 172.456 158.945 172.171C158.897 171.887 158.932 171.594 159.048 171.329C159.163 171.064 159.354 170.839 159.596 170.681C159.838 170.523 160.121 170.439 160.41 170.44C160.815 170.455 161.198 170.63 161.474 170.926C161.751 171.223 161.898 171.617 161.885 172.023Z" fill="white"/>
<path d="M166.467 172.044C166.481 172.247 166.454 172.451 166.386 172.642C166.318 172.834 166.211 173.009 166.073 173.158C165.934 173.307 165.766 173.425 165.58 173.506C165.393 173.587 165.192 173.629 164.989 173.629C164.785 173.629 164.584 173.587 164.398 173.506C164.211 173.425 164.044 173.307 163.905 173.158C163.766 173.009 163.66 172.834 163.592 172.642C163.524 172.451 163.496 172.247 163.51 172.044C163.496 171.841 163.524 171.638 163.592 171.446C163.66 171.254 163.766 171.079 163.905 170.93C164.044 170.781 164.211 170.663 164.398 170.582C164.584 170.501 164.785 170.459 164.989 170.459C165.192 170.459 165.393 170.501 165.58 170.582C165.766 170.663 165.934 170.781 166.073 170.93C166.211 171.079 166.318 171.254 166.386 171.446C166.454 171.638 166.481 171.841 166.467 172.044Z" fill="white"/>
<path d="M171.05 172.066C171.03 172.354 170.927 172.63 170.752 172.861C170.577 173.091 170.339 173.265 170.067 173.362C169.795 173.458 169.5 173.473 169.219 173.405C168.939 173.336 168.684 173.187 168.487 172.975C168.29 172.764 168.159 172.499 168.111 172.215C168.062 171.93 168.098 171.637 168.213 171.372C168.329 171.107 168.519 170.882 168.761 170.724C169.003 170.566 169.286 170.482 169.575 170.483C169.98 170.498 170.363 170.673 170.639 170.97C170.916 171.266 171.063 171.66 171.05 172.066Z" fill="white"/>
<path d="M175.632 172.087C175.613 172.377 175.508 172.655 175.332 172.886C175.155 173.116 174.915 173.29 174.641 173.386C174.366 173.481 174.07 173.494 173.788 173.422C173.507 173.351 173.253 173.198 173.057 172.983C172.862 172.768 172.734 172.5 172.689 172.213C172.645 171.926 172.686 171.632 172.807 171.368C172.928 171.104 173.124 170.882 173.37 170.728C173.617 170.575 173.903 170.497 174.194 170.505C174.592 170.529 174.966 170.708 175.235 171.003C175.504 171.299 175.646 171.688 175.632 172.087Z" fill="white"/>
</g>
<path d="M169.122 68.2338C169.622 68.0138 170.046 67.6516 170.341 67.1924C170.637 66.7332 170.79 66.1972 170.784 65.6512C170.802 65.2962 170.748 64.9412 170.625 64.6077C170.502 64.2742 170.313 63.9693 170.068 63.7115C169.823 63.4536 169.529 63.2483 169.202 63.108C168.876 62.9677 168.524 62.8953 168.169 62.8953C167.813 62.8953 167.461 62.9677 167.135 63.108C166.808 63.2483 166.514 63.4536 166.269 63.7115C166.024 63.9693 165.835 64.2742 165.712 64.6077C165.589 64.9412 165.535 65.2962 165.554 65.6512C165.543 66.2027 165.695 66.745 165.992 67.2098C166.289 67.6746 166.717 68.0409 167.223 68.2626C163.194 68.8669 163.374 73.2409 163.374 73.2409L172.899 73.2841C172.899 73.2841 173.122 68.8309 169.122 68.2338Z" fill="#4CAF4F"/>
<path opacity="0.1" d="M169.122 68.2338C169.622 68.0138 170.046 67.6516 170.341 67.1924C170.637 66.7332 170.79 66.1972 170.784 65.6512C170.802 65.2962 170.748 64.9412 170.625 64.6077C170.502 64.2742 170.313 63.9693 170.068 63.7115C169.823 63.4536 169.529 63.2483 169.202 63.108C168.876 62.9677 168.524 62.8953 168.169 62.8953C167.813 62.8953 167.461 62.9677 167.135 63.108C166.808 63.2483 166.514 63.4536 166.269 63.7115C166.024 63.9693 165.835 64.2742 165.712 64.6077C165.589 64.9412 165.535 65.2962 165.554 65.6512C165.543 66.2027 165.695 66.745 165.992 67.2098C166.289 67.6746 166.717 68.0409 167.223 68.2626C163.194 68.8669 163.374 73.2409 163.374 73.2409L172.899 73.2841C172.899 73.2841 173.122 68.8309 169.122 68.2338Z" fill="black"/>
<path d="M184.599 76.1052L150.651 75.9512L150.632 80.0086L184.581 80.1626L184.599 76.1052Z" fill="#4CAF4F"/>
<path opacity="0.2" d="M184.599 76.1052L150.651 75.9512L150.632 80.0086L184.581 80.1626L184.599 76.1052Z" fill="white"/>
<path d="M59.7934 97.1324H59.4553L58.4769 97.2044C57.9474 97.2362 57.4209 97.3059 56.9014 97.413C56.5649 97.4603 56.2311 97.5251 55.9014 97.6072L54.7864 97.9166C52.8884 98.4989 51.0978 99.3857 49.4843 100.542C47.3526 102.09 45.5727 104.071 44.2614 106.355C43.4908 107.672 42.8775 109.075 42.4342 110.535C41.9683 112.122 41.7001 113.76 41.6356 115.413C41.5927 116.281 41.6072 117.151 41.6788 118.017C41.6788 118.456 41.8011 118.894 41.8586 119.341C41.907 119.79 41.9912 120.235 42.1104 120.671C42.7573 123.558 44.0699 126.254 45.9435 128.543C47.8171 130.833 50.1998 132.653 52.9015 133.858C54.8569 134.702 56.9528 135.173 59.0812 135.247C61.2795 135.367 63.48 135.052 65.5559 134.319L66.1889 134.081H66.2753L66.3472 134.124L75.4189 138.729L75.1528 138.959C74.1816 135.952 73.2463 133.038 72.3399 130.24V130.132L72.419 130.052C74.6197 127.836 76.2533 125.121 77.1815 122.139C78.0221 119.412 78.2674 116.537 77.9009 113.708C77.5748 111.193 76.7663 108.765 75.5196 106.557C74.4451 104.66 73.0588 102.957 71.419 101.521C70.0662 100.384 68.5688 99.4306 66.9659 98.6864C65.7531 98.1633 64.4899 97.7655 63.1962 97.4993L61.7574 97.2619L60.7143 97.1828L60.0812 97.1396H59.8654C59.9371 97.1317 60.0095 97.1317 60.0812 97.1396H60.7215L61.7646 97.1828L63.2034 97.3914C64.5132 97.6381 65.7936 98.0215 67.0235 98.5353C68.6539 99.2707 70.1782 100.222 71.5557 101.363C73.2256 102.793 74.6413 104.495 75.7427 106.398C77.0247 108.63 77.858 111.091 78.1958 113.643C78.5928 116.516 78.3646 119.441 77.5268 122.218C76.5926 125.263 74.9337 128.035 72.6924 130.297L72.7355 130.11C73.642 132.909 74.5844 135.822 75.5628 138.822L75.6995 139.261L75.2894 139.052L66.2177 134.455H66.376L65.7285 134.693C63.6127 135.437 61.3715 135.76 59.1316 135.642C56.9573 135.559 54.8176 135.072 52.8224 134.203C49.0165 132.573 45.8501 129.741 43.8082 126.139C42.8686 124.475 42.1824 122.681 41.7723 120.815C41.66 120.368 41.5759 119.914 41.5205 119.456C41.463 119.002 41.3694 118.556 41.3479 118.11C41.1532 115.551 41.4237 112.977 42.1464 110.513C42.6007 109.033 43.2311 107.613 44.024 106.283C45.3665 103.978 47.1836 101.984 49.3548 100.435C50.9948 99.2748 52.8156 98.3948 54.7432 97.8303L55.8727 97.5425C56.2051 97.4654 56.5413 97.4054 56.8798 97.3626C57.4047 97.2655 57.9362 97.2077 58.4697 97.19L59.4553 97.154C59.5674 97.1389 59.6804 97.1317 59.7934 97.1324Z" fill="#4CAF4F"/>
<path d="M63.894 113.909H62.5631L59.6855 109.866V107.211C59.6855 107.211 57.628 107.082 57.8726 110.557C58.1172 114.031 57.8726 113.146 57.8726 113.146C57.8726 113.146 53.5058 113.146 53.1461 113.542C52.7864 113.938 52.7648 118.153 52.7144 120.506C52.6869 121.073 52.8496 121.633 53.1767 122.097C53.5039 122.561 53.9767 122.902 54.5201 123.067C54.6725 123.109 54.8297 123.131 54.9878 123.132C56.0813 123.132 61.6423 122.247 61.6423 122.247H63.9372L63.894 113.909Z" fill="#4CAF4F"/>
<path d="M67.6997 113.197L66.8795 122.29H64.6062V113.384L67.6997 113.197Z" fill="#4CAF4F"/>
<path d="M94.8142 298.322V292.171L83.7857 292.092L83.6921 301.393L84.3756 301.444C87.4187 301.638 99.8572 301.926 101.9 301.293C104.174 300.588 94.8142 298.322 94.8142 298.322Z" fill="#4CAF4F"/>
<path d="M102.159 300.717C102.159 300.818 98.0301 300.904 92.9439 300.904C87.8577 300.904 83.7283 300.818 83.7283 300.717C83.7283 300.616 87.8577 300.53 92.9439 300.53C98.0301 300.53 102.159 300.616 102.159 300.717Z" fill="#263238"/>
<path d="M95.0084 299.58C94.9149 299.53 95.0084 299.206 95.2315 298.861C95.4545 298.516 95.7566 298.372 95.8286 298.444C95.9005 298.516 95.7494 298.789 95.5336 299.084C95.3178 299.379 95.102 299.631 95.0084 299.58Z" fill="#263238"/>
<path d="M95.7134 299.983C95.6127 299.983 95.6631 299.58 95.8789 299.199C96.0947 298.818 96.3825 298.588 96.4616 298.645C96.5407 298.703 96.4112 299.027 96.2098 299.365C96.0084 299.703 95.8069 300.019 95.7134 299.983Z" fill="#263238"/>
<path d="M87.0519 300.688C87.0087 300.688 86.8433 300.559 86.6059 300.286C86.3161 299.934 85.9933 299.611 85.6419 299.322C85.2963 299.045 84.8847 298.864 84.4477 298.796C84.1095 298.753 83.8937 298.796 83.8721 298.753C83.8505 298.71 84.0592 298.559 84.4548 298.53C84.977 298.519 85.4864 298.692 85.8937 299.019C86.2752 299.33 86.597 299.708 86.8433 300.134C87.0087 300.451 87.0951 300.66 87.0519 300.688Z" fill="#263238"/>
<path d="M95.0444 298.422C95.0947 298.509 94.9077 298.724 94.5912 298.84C94.2746 298.955 93.9941 298.911 93.9797 298.84C93.9653 298.768 94.1883 298.617 94.4617 298.516C94.735 298.415 94.9868 298.336 95.0444 298.422Z" fill="#263238"/>
<path d="M94.8719 297.825C94.8719 297.933 94.5842 298.019 94.2101 298.027C93.836 298.034 93.541 297.947 93.5482 297.847C93.5554 297.746 93.8504 297.653 94.2101 297.645C94.5698 297.638 94.8575 297.724 94.8719 297.825Z" fill="#263238"/>
<path d="M121.972 298.322V292.171L110.943 292.092L110.85 301.3L111.533 301.35C114.576 301.545 127.022 301.926 129.058 301.293C131.331 300.588 121.972 298.322 121.972 298.322Z" fill="#4CAF4F"/>
<path d="M129.317 300.732C129.317 300.832 125.195 300.919 120.101 300.919C115.008 300.919 110.893 300.832 110.893 300.732C110.893 300.631 115.015 300.545 120.101 300.545C125.188 300.545 129.317 300.631 129.317 300.732Z" fill="#263238"/>
<path d="M122.166 299.58C122.08 299.53 122.166 299.206 122.389 298.861C122.612 298.516 122.914 298.372 122.986 298.444C123.058 298.516 122.907 298.789 122.691 299.084C122.475 299.379 122.26 299.631 122.166 299.58Z" fill="#263238"/>
<path d="M122.871 299.983C122.778 299.983 122.821 299.58 123.044 299.199C123.267 298.818 123.547 298.588 123.626 298.645C123.706 298.703 123.569 299.027 123.367 299.365C123.166 299.703 122.972 300.019 122.871 299.983Z" fill="#263238"/>
<path d="M114.209 300.688C114.166 300.688 114.008 300.559 113.763 300.286C113.474 299.934 113.151 299.611 112.799 299.322C112.454 299.045 112.042 298.864 111.605 298.796C111.274 298.753 111.051 298.796 111.03 298.753C111.008 298.71 111.217 298.559 111.612 298.53C112.134 298.519 112.644 298.692 113.051 299.019C113.435 299.328 113.757 299.707 114.001 300.134C114.166 300.451 114.253 300.66 114.209 300.688Z" fill="#263238"/>
<path d="M122.202 298.422C122.252 298.509 122.065 298.724 121.749 298.84C121.432 298.955 121.152 298.911 121.137 298.84C121.123 298.768 121.346 298.617 121.619 298.516C121.893 298.415 122.145 298.336 122.202 298.422Z" fill="#263238"/>
<path d="M122.044 297.825C122.044 297.933 121.756 298.019 121.382 298.027C121.008 298.034 120.72 297.947 120.727 297.847C120.734 297.746 121.022 297.653 121.382 297.645C121.742 297.638 122.044 297.724 122.044 297.825Z" fill="#263238"/>
<path d="M162.604 115.664C162.316 115.369 161.604 115.513 161.604 115.513C161.675 115.099 161.675 114.676 161.604 114.261C161.474 113.859 160.568 113.938 160.568 113.938C160.526 113.599 160.526 113.255 160.568 112.916C160.575 112.841 160.559 112.765 160.522 112.7C160.484 112.634 160.428 112.582 160.359 112.549C159.931 112.374 159.47 112.291 159.007 112.305C158.453 111.909 160.697 108.765 161.532 107.758C162.367 106.751 162.215 105.967 161.474 105.967C160.964 105.967 158.345 108.988 157.539 110.003C156.734 111.017 154.597 113.837 154.525 111.585C154.453 109.334 153.547 107.636 152.978 107.348C152.41 107.06 151.806 107.736 152.115 108.362C152.387 109.073 152.556 109.819 152.619 110.578C152.697 111.182 152.67 111.796 152.539 112.391C152.301 113.499 151.976 114.586 151.568 115.643H151.511C151.511 115.643 135.813 130.7 134.677 131.772C133.662 132.736 113.26 130.628 109.166 130.196C107.775 129.993 106.371 129.897 104.965 129.909C103.188 129.988 102.872 130.239 101.102 130.261C96.6325 130.311 92.1735 130.703 87.7641 131.434C85.7675 131.773 83.9024 132.654 82.3725 133.981C80.8425 135.308 79.7064 137.03 79.088 138.959C74.9658 151.836 65.6279 182.317 63.9805 199.439C62.7356 201.697 61.6118 204.019 60.6137 206.396C59.4554 209.547 59.736 209.655 60.1245 209.727C61.1748 209.921 62.369 204.266 62.8151 205.633C63.2611 207 60.5489 212.374 61.6496 212.532C63.0884 212.734 64.2323 206.777 64.369 206.302C64.5057 205.827 65.2179 205.979 65.0884 206.425C64.8798 207.058 62.8582 213.77 64.2683 213.986C65.0452 214.101 65.1316 212.683 65.1316 212.683C65.1316 212.683 66.5704 206.259 67.225 206.389C67.8797 206.518 67.1819 210.309 66.8509 211.576C66.52 212.842 66.9804 213.482 67.6567 213.173C68.1171 212.957 69.2178 209.108 69.5199 207.856C69.8221 206.604 70.5775 203.137 71.5918 205.144C72.6062 207.151 74.1457 208.317 74.7788 208.345C74.9215 208.329 75.0559 208.27 75.1649 208.177C75.2739 208.083 75.3524 207.959 75.3903 207.821C75.4282 207.682 75.4238 207.536 75.3776 207.4C75.3315 207.264 75.2457 207.145 75.1313 207.058C74.5868 206.526 74.1194 205.921 73.7429 205.259C73.4073 204.744 73.1638 204.174 73.0234 203.576C72.7335 202.382 72.5648 201.163 72.5199 199.936L72.4048 199.216C74.0162 191.238 78.6564 167.821 85.3541 152.865L88.1022 158.519L89.2964 162.706L81.9729 180.785L113.209 180.375L108.548 162.433L114.209 143.728C120.332 143.865 136.051 144.095 138.669 142.908C141.964 141.469 159.007 119.945 159.007 119.945C160.118 119.082 161.182 118.159 162.194 117.182C162.194 117.182 163.23 116.312 162.604 115.664Z" fill="#FFBE9D"/>
<path d="M80.5987 167.426C81.5051 164.332 86.1597 149.038 86.1597 149.038C86.1597 149.038 88.4474 161.505 87.8431 163.008C87.2872 164.296 86.6305 165.537 85.8791 166.721C80.5987 174.756 81.2893 178.778 81.2893 178.778L113.195 177.807C113.267 173.346 110.627 162.973 110.08 161.318C109.533 159.663 111.353 154.246 111.353 154.246C111.353 154.246 114.95 150.584 114.821 148.7C114.753 147.006 114.543 145.322 114.195 143.664L133.619 144.383L133.007 131.218L105.109 128.427C104.138 131.168 95.3537 129.822 95.3537 129.822C85.8719 130.139 85.282 131.88 81.3397 134.944C77.3973 138.009 70.8723 164.311 70.8723 164.311L80.5987 167.426Z" fill="#4CAF4F"/>
<path d="M99.4617 164.311C98.9088 164.409 98.3456 164.438 97.7855 164.397C96.7423 164.397 95.3107 164.325 93.7352 164.167C92.1597 164.008 90.7353 163.785 89.7209 163.584C89.1616 163.512 88.6132 163.372 88.0879 163.167C88.6503 163.167 89.2115 163.22 89.7641 163.325C90.7857 163.455 92.2029 163.634 93.7712 163.793C95.3395 163.951 96.7639 164.059 97.7927 164.131C98.3534 164.138 98.9123 164.198 99.4617 164.311Z" fill="#263238"/>
<path d="M101.649 161.598C101.095 161.869 100.511 162.07 99.9076 162.196C97.0374 162.95 94.0762 163.301 91.1093 163.239C90.4953 163.259 89.8813 163.201 89.282 163.066C89.8879 162.99 90.4987 162.958 91.1093 162.973C92.2387 162.937 93.7927 162.857 95.5048 162.656C97.217 162.455 98.7422 162.167 99.8213 161.937C100.421 161.777 101.032 161.663 101.649 161.598Z" fill="#263238"/>
<path d="M112.382 149.498C112.368 150.047 112.293 150.592 112.159 151.124C111.972 152.124 111.684 153.491 111.318 154.987C110.951 156.483 110.598 157.865 110.282 158.8C110.154 159.335 109.966 159.854 109.72 160.347C109.761 159.8 109.862 159.259 110.023 158.735C110.296 157.613 110.605 156.318 110.951 154.901C111.296 153.484 111.627 152.189 111.9 151.066C111.998 150.526 112.159 150 112.382 149.498Z" fill="#263238"/>
<path d="M80.9369 165.591C79.2726 165.334 77.6301 164.952 76.0234 164.447C74.3816 164.063 72.7705 163.558 71.2034 162.937C72.8669 163.198 74.5091 163.58 76.1169 164.08C77.7591 164.463 79.3702 164.968 80.9369 165.591Z" fill="#263238"/>
<path d="M114.54 143.505C114.269 143.552 113.992 143.552 113.72 143.505C112.969 143.428 112.231 143.252 111.526 142.98C110.349 142.538 109.278 141.854 108.381 140.974C107.484 140.093 106.781 139.034 106.318 137.865C105.805 136.58 105.586 135.196 105.677 133.815C105.709 132.676 106.05 131.567 106.663 130.606C107.094 129.959 107.738 129.483 108.483 129.261C108.682 129.206 108.888 129.18 109.094 129.182C109.238 129.182 109.31 129.182 109.31 129.182C109.31 129.182 109.008 129.182 108.526 129.376C107.843 129.629 107.263 130.102 106.879 130.722C105.9 132.261 105.627 135.074 106.67 137.7C107.156 138.938 107.916 140.05 108.893 140.951C109.694 141.689 110.616 142.283 111.62 142.707C112.561 143.079 113.54 143.347 114.54 143.505Z" fill="#263238"/>
<path d="M131.31 144.124C131.13 141.918 131.072 139.704 131.137 137.491C131.081 135.281 131.148 133.069 131.339 130.865C131.519 133.069 131.576 135.281 131.511 137.491C131.572 139.704 131.504 141.919 131.31 144.124Z" fill="#263238"/>
<path d="M104.922 129.232C105.001 127.628 105.167 125.815 105.167 125.815C105.167 125.815 109.138 125.376 109.375 121.276C109.612 117.175 109.375 107.715 109.375 107.715L102.181 104.032L94.1956 110.312L95.4257 130.815L102.749 131.283C103.309 131.298 103.852 131.091 104.259 130.707C104.667 130.322 104.905 129.792 104.922 129.232Z" fill="#FFBE9D"/>
<path d="M105.634 118.031C105.634 118.031 105.634 118.11 105.569 118.204C105.516 118.272 105.447 118.325 105.368 118.361C105.289 118.396 105.202 118.411 105.116 118.405C104.656 118.405 104.21 117.873 104.052 117.254C103.976 116.954 103.976 116.64 104.052 116.341C104.066 116.21 104.114 116.085 104.189 115.976C104.264 115.868 104.365 115.781 104.483 115.722C104.58 115.682 104.689 115.682 104.785 115.722C104.857 115.757 104.915 115.816 104.951 115.887C105.001 116.01 104.951 116.089 104.951 116.082C104.951 116.074 104.951 116.01 104.879 115.938C104.841 115.886 104.786 115.85 104.724 115.837C104.661 115.824 104.596 115.834 104.541 115.866C104.452 115.919 104.379 115.994 104.328 116.083C104.276 116.173 104.248 116.273 104.246 116.377C104.185 116.644 104.185 116.922 104.246 117.189C104.39 117.751 104.778 118.204 105.123 118.247C105.191 118.256 105.26 118.251 105.325 118.233C105.391 118.214 105.452 118.182 105.505 118.139C105.591 118.082 105.62 118.024 105.634 118.031Z" fill="#EB996E"/>
<path d="M111.843 105.499C111.289 103.614 109.282 102.679 107.454 102.161C104.67 101.37 101.663 101.024 98.9437 102.024C96.2244 103.024 92.9583 104.78 92.9583 107.78C91.354 107.65 90.4331 109.053 89.8001 110.794C89.3953 111.855 89.1528 112.97 89.0807 114.103C88.8792 118.031 87.7785 123.456 85.2318 126.333C83.793 127.937 81.8003 129.045 80.9802 131.045C80.2607 132.779 80.6348 134.837 79.9658 136.592C79.3687 138.139 78.0522 139.239 77.0882 140.585C76.106 142.111 75.5281 143.862 75.4085 145.672C75.289 147.483 75.6318 149.295 76.4047 150.937C77.1832 152.537 78.2793 153.961 79.6262 155.124C80.9731 156.287 82.5426 157.163 84.2391 157.699C87.5994 158.722 91.1829 158.757 94.5625 157.8C97.099 157.193 99.4651 156.02 101.483 154.368C103.548 152.682 104.966 150.334 105.498 147.721C106.008 144.786 105.188 141.8 104.577 138.88C102.663 129.65 103.21 129.168 105.627 120.599C105.685 120.448 105.713 120.29 105.757 120.139C105.8 119.988 105.821 119.916 105.85 119.801C105.919 119.462 105.955 119.118 105.958 118.772C105.605 118.903 105.222 118.931 104.853 118.852C104.485 118.773 104.147 118.591 103.879 118.326C103.61 118.044 103.423 117.695 103.337 117.315C103.25 116.935 103.269 116.538 103.39 116.168C103.559 115.763 103.812 115.398 104.132 115.097C104.452 114.796 104.831 114.565 105.246 114.42C106.044 114.089 106.9 113.916 107.685 113.549C109.346 112.758 110.497 111.118 111.282 109.398C111.926 108.207 112.125 106.824 111.843 105.499Z" fill="#263238"/>
<path d="M105.922 118.225C106.074 118.45 106.199 118.691 106.296 118.945C106.512 119.398 106.8 120.038 107.116 120.779L107.174 120.916H107.023L106.303 120.981C105.807 120.981 105.39 121.074 104.9 121.067C104.858 121.058 104.818 121.037 104.786 121.008C104.753 120.979 104.728 120.943 104.713 120.902C104.692 120.836 104.692 120.766 104.713 120.7C104.73 120.603 104.752 120.507 104.778 120.412L104.908 119.902C104.973 119.561 105.074 119.228 105.21 118.909C105.196 119.256 105.146 119.601 105.059 119.938L104.958 120.448C104.922 120.621 104.857 120.887 104.958 120.866C105.318 120.866 105.828 120.787 106.303 120.758L107.023 120.693L106.929 120.851C106.62 120.132 106.361 119.456 106.21 118.988C106.077 118.749 105.98 118.492 105.922 118.225Z" fill="#4CAF4F"/>
<path d="M81.2894 178.778L113.195 177.807L127.08 232.007L124.526 294.178H107.656L109.72 233.33L97.3825 195.598L99.2818 296.588L82.2319 296.84L80.4405 201.914C80.3614 199.274 79.4981 193.324 79.8218 190.706L81.2894 178.778Z" fill="#263238"/>
<path d="M101.627 196.367C101.105 196.4 100.58 196.369 100.066 196.274C99.1019 196.159 97.7854 195.957 96.3393 195.67C94.8933 195.382 93.5984 195.051 92.6632 194.785C92.1632 194.675 91.6796 194.501 91.2244 194.267C91.2244 194.159 93.5696 194.72 96.4473 195.303C99.3249 195.885 101.641 196.259 101.627 196.367Z" fill="#455A64"/>
<path d="M124.353 290.768C124.353 290.869 120.533 290.955 115.821 290.955C111.109 290.955 107.281 290.869 107.281 290.768C107.281 290.667 111.102 290.581 115.821 290.581C120.54 290.581 124.353 290.66 124.353 290.768Z" fill="#455A64"/>
<path d="M99.1307 293.962C99.1307 294.07 95.4185 294.149 90.8431 294.149C86.2677 294.149 82.5627 294.07 82.5627 293.962C82.5627 293.854 86.2749 293.775 90.8431 293.775C95.4113 293.775 99.1307 293.861 99.1307 293.962Z" fill="#455A64"/>
<path d="M96.9294 293.703C96.8287 293.703 96.3827 271.639 95.9294 244.424C95.4762 217.209 95.21 195.13 95.3035 195.13C95.3971 195.13 95.8575 217.187 96.3035 244.416C96.7496 271.646 97.0373 293.703 96.9294 293.703Z" fill="#455A64"/>
<path d="M122.087 290.768C122.079 290.67 122.079 290.571 122.087 290.473V289.61C122.087 288.833 122.145 287.718 122.188 286.3C122.288 283.423 122.432 279.243 122.612 274.121C123.001 263.819 123.547 249.618 124.145 233.942C124.145 233.791 124.145 233.647 124.145 233.517V233.568C120.368 218.46 116.95 204.748 114.469 194.828L111.591 183.094C111.26 181.72 111.008 180.648 110.828 179.9C110.742 179.548 110.684 179.274 110.634 179.066C110.606 178.972 110.589 178.875 110.584 178.778C110.621 178.868 110.65 178.962 110.67 179.058C110.728 179.26 110.8 179.533 110.9 179.879C111.095 180.598 111.375 181.691 111.735 183.058C112.454 185.835 113.469 189.835 114.735 194.763C117.238 204.676 120.691 218.352 124.519 233.481V233.532C124.519 233.661 124.519 233.812 124.519 233.956C123.878 249.632 123.296 263.826 122.871 274.128C122.648 279.257 122.461 283.408 122.332 286.3C122.26 287.739 122.202 288.833 122.166 289.61C122.166 289.976 122.123 290.264 122.116 290.473C122.117 290.572 122.107 290.671 122.087 290.768Z" fill="#455A64"/>
<path d="M116.584 232.251C115.372 232.65 114.124 232.927 112.857 233.079C111.303 233.345 109.979 233.532 109.382 233.561V233.417C109.577 233.474 109.677 233.51 109.677 233.539C109.677 233.568 109.555 233.539 109.354 233.539H108.922L109.354 233.41C109.915 233.244 111.238 232.971 112.792 232.69C114.039 232.42 115.308 232.273 116.584 232.251Z" fill="#455A64"/>
<path d="M116.289 234.316C115.166 234.367 114.042 234.317 112.929 234.165C111.805 234.142 110.686 234.019 109.584 233.798C111.832 233.615 114.095 233.789 116.289 234.316Z" fill="#455A64"/>
<path opacity="0.2" d="M81.1528 179.922C81.5307 180.407 82.0066 180.807 82.5496 181.096C83.0925 181.385 83.6903 181.556 84.3038 181.598C85.5888 181.75 86.8886 181.726 88.167 181.526C96.4042 180.612 105.131 179.771 113.195 177.807C102.757 178.389 91.7281 178.195 81.2895 178.778L81.1816 179.67" fill="black"/>
<g opacity="0.2">
<path d="M91.908 194.634L97.7927 217.468L97.3826 195.598L91.908 194.634Z" fill="black"/>
</g>
</svg>
