<svg width="35" height="34" viewBox="0 0 35 34" fill="none" xmlns="http://www.w3.org/2000/svg">
<path d="M4.43658 11.5985V11.9465H4.78462H29.8431H30.1912V11.5985V10.0323C30.1912 9.24774 29.8795 8.49529 29.3247 7.9405C28.7699 7.38571 28.0174 7.07404 27.2329 7.07404H7.39488C6.61029 7.07404 5.85784 7.38571 5.30305 7.9405C4.74826 8.49529 4.43658 9.24774 4.43658 10.0323V11.5985ZM30.1912 13.6867V13.3387H29.8431H4.78462H4.43658V13.6867V23.6057C4.43658 24.3903 4.74826 25.1427 5.30305 25.6975C5.85784 26.2523 6.61029 26.564 7.39488 26.564H27.2329C28.0174 26.564 28.7699 26.2523 29.3247 25.6975C29.8795 25.1427 30.1912 24.3903 30.1912 23.6057V13.6867ZM3.04445 10.0323C3.04445 8.87852 3.50279 7.77197 4.31866 6.95611C5.13452 6.14025 6.24107 5.6819 7.39488 5.6819H27.2329C28.3867 5.6819 29.4932 6.14024 30.3091 6.95611C31.1249 7.77197 31.5833 8.87852 31.5833 10.0323V23.6057C31.5833 24.7595 31.1249 25.866 30.3091 26.6819C29.4932 27.4978 28.3867 27.9561 27.2329 27.9561H7.39488C6.24107 27.9561 5.13452 27.4978 4.31866 26.6819C3.50279 25.866 3.04445 24.7595 3.04445 23.6057V10.0323ZM22.5344 20.2994H25.6667C25.8513 20.2994 26.0284 20.3727 26.1589 20.5032C26.2894 20.6338 26.3628 20.8108 26.3628 20.9954C26.3628 21.18 26.2894 21.3571 26.1589 21.4876C26.0284 21.6182 25.8513 21.6915 25.6667 21.6915H22.5344C22.3498 21.6915 22.1727 21.6182 22.0422 21.4876C21.9117 21.3571 21.8383 21.18 21.8383 20.9954C21.8383 20.8108 21.9117 20.6338 22.0422 20.5032C22.1727 20.3727 22.3498 20.2994 22.5344 20.2994Z" fill="#4CAF4F" stroke="#4CAF4F" stroke-width="0.696069"/>
</svg>
