<svg width="29" height="20" viewBox="0 0 29 20" fill="none" xmlns="http://www.w3.org/2000/svg">
<g clip-path="url(#clip0_211_2073)">
<path d="M27.0804 0.79739C27.0804 1.12175 27.3466 1.3847 27.675 1.3847H28.2696C28.598 1.3847 28.8641 1.12175 28.8641 0.79739C28.8641 0.47303 28.598 0.210083 28.2696 0.210083H27.675C27.3466 0.210083 27.0804 0.47303 27.0804 0.79739Z" fill="#212326"/>
<g filter="url(#filter0_d_211_2073)">
<path d="M9.83827 19.0039H12.7265L11.8857 18.1733C11.6627 17.9531 11.3602 17.8293 11.0449 17.8293H9.83827C5.24113 17.8293 1.51444 14.1481 1.51444 9.60701C1.51444 5.06594 5.24113 1.38469 9.83827 1.38468H19.3512C23.9483 1.38468 27.675 5.06594 27.675 9.60701C27.675 14.1481 23.9483 17.8293 19.3512 17.8293H15.7926C15.3195 17.8293 14.8659 17.6437 14.5313 17.3133L13.5463 16.3402C12.9888 15.7895 12.2326 15.4801 11.4441 15.4801H9.83827C6.55459 15.4801 3.89267 12.8506 3.89267 9.60701C3.89267 6.36337 6.55459 3.73392 9.83827 3.73392H19.3512C22.6349 3.73392 25.2968 6.36337 25.2968 9.60701C25.2968 12.8506 22.6349 15.4801 19.3512 15.4801H17.0663C16.5932 15.4801 16.1395 15.2945 15.805 14.9641L14.8199 13.991C14.2624 13.4403 13.5062 13.1309 12.7178 13.1309H9.83827C7.86809 13.1309 6.27091 11.5532 6.27091 9.60701C6.27091 7.66085 7.86809 6.08315 9.83827 6.08315H19.3512C21.3214 6.08315 22.9186 7.66085 22.9186 9.60701C22.9186 11.5294 21.3601 13.0923 19.4231 13.1302L19.4228 13.1309H18.5527C18.0796 13.1309 17.6259 12.9452 17.2914 12.6148L16.3063 11.6417C15.8488 11.1898 15.2577 10.9004 14.6246 10.8111L14.5947 10.7816H9.83827C9.18154 10.7816 8.64915 10.2557 8.64915 9.60701C8.64915 8.95829 9.18154 8.43239 9.83827 8.43239H19.3512C20.0079 8.43239 20.5403 8.95829 20.5403 9.60701C20.5403 10.2557 20.0079 10.7816 19.3512 10.7816H16.973L17.8138 11.6122C18.0368 11.8325 18.3393 11.9562 18.6546 11.9562H19.3512C20.6647 11.9562 21.7295 10.9044 21.7295 9.60701C21.7295 8.30957 20.6647 7.25777 19.3512 7.25777H9.83827C8.52481 7.25777 7.46003 8.30957 7.46003 9.60701C7.46003 10.9044 8.52481 11.9562 9.83827 11.9562H14.2042C14.6773 11.9562 15.1309 12.1419 15.4655 12.4723L16.4506 13.4454C17.0081 13.9961 17.7642 14.3055 18.5527 14.3055H19.6485V14.2965C22.1369 14.1449 24.1077 12.1033 24.1077 9.60701C24.1077 7.01214 21.9781 4.90854 19.3512 4.90854H9.83827C7.21136 4.90854 5.08179 7.01214 5.08179 9.60701C5.08179 12.2019 7.21136 14.3055 9.83827 14.3055H12.7178C13.1909 14.3055 13.6445 14.4911 13.9791 14.8215L14.9642 15.7946C15.5217 16.3453 16.2778 16.6547 17.0663 16.6547H19.3512C23.2916 16.6547 26.4859 13.4994 26.4859 9.60701C26.4859 5.71465 23.2916 2.5593 19.3512 2.5593H9.83827C5.89786 2.5593 2.70355 5.71465 2.70355 9.60701C2.70355 13.4994 5.89786 16.6547 9.83827 16.6547H11.4441C11.9172 16.6547 12.3709 16.8403 12.7054 17.1707L13.6905 18.1438C14.248 18.6945 15.0042 19.0039 15.7926 19.0039H19.3512C24.6051 19.0039 28.8642 14.7968 28.8642 9.60701C28.8642 4.41722 24.6051 0.210067 19.3512 0.210068L9.83827 0.21007C4.58441 0.21007 0.325317 4.41722 0.325317 9.60701C0.325318 14.7968 4.58441 19.0039 9.83827 19.0039Z" fill="#212326"/>
</g>
</g>
<defs>
<filter id="filter0_d_211_2073" x="-3.67468" y="0.210068" width="36.5388" height="26.7939" filterUnits="userSpaceOnUse" color-interpolation-filters="sRGB">
<feFlood flood-opacity="0" result="BackgroundImageFix"/>
<feColorMatrix in="SourceAlpha" type="matrix" values="0 0 0 0 0 0 0 0 0 0 0 0 0 0 0 0 0 0 127 0" result="hardAlpha"/>
<feOffset dy="4"/>
<feGaussianBlur stdDeviation="2"/>
<feComposite in2="hardAlpha" operator="out"/>
<feColorMatrix type="matrix" values="0 0 0 0 0 0 0 0 0 0 0 0 0 0 0 0 0 0 0.25 0"/>
<feBlend mode="normal" in2="BackgroundImageFix" result="effect1_dropShadow_211_2073"/>
<feBlend mode="normal" in="SourceGraphic" in2="effect1_dropShadow_211_2073" result="shape"/>
</filter>
<clipPath id="clip0_211_2073">
<rect width="28.5388" height="18.7939" fill="white" transform="translate(0.325317 0.210068)"/>
</clipPath>
</defs>
</svg>
