<svg width="33" height="21" viewBox="0 0 33 21" fill="none" xmlns="http://www.w3.org/2000/svg">
<g clip-path="url(#clip0_211_2057)">
<path d="M30.7849 2.99527C30.7849 3.0188 30.7849 3.04822 30.7788 3.06588C30.7481 3.29536 30.7481 3.52484 30.7665 3.76021C30.7788 3.81905 30.791 3.8779 30.8401 3.92497C30.9198 4.01323 31.0424 3.99558 31.0915 3.88966C31.116 3.83671 31.116 3.78375 31.1037 3.73079C31.0424 3.50719 31.0301 3.27182 31.024 3.04234C31.024 3.03057 31.024 3.01292 31.024 2.99527C31.0914 2.98938 31.1528 2.9835 31.2079 2.9835C31.2509 2.97761 31.2876 2.97173 31.3183 2.95407C31.4102 2.907 31.4102 2.80697 31.3121 2.7599C31.2754 2.74224 31.2263 2.73636 31.1834 2.73636C31.0301 2.74224 30.8769 2.74224 30.7236 2.74224C30.6684 2.74224 30.6132 2.74813 30.558 2.75401C30.5274 2.7599 30.4906 2.7599 30.4661 2.77755C30.4232 2.7952 30.3987 2.82462 30.3987 2.86581C30.4048 2.907 30.4232 2.93054 30.4661 2.94819C30.4906 2.96585 30.5213 2.97173 30.5519 2.97173C30.6255 2.97761 30.7052 2.98938 30.7849 2.99527ZM32.4709 3.26594C32.4709 3.27182 32.477 3.27771 32.477 3.27771C32.5015 3.43658 32.5261 3.58957 32.5444 3.74256C32.5506 3.79551 32.5567 3.84259 32.5935 3.88378C32.6732 3.98381 32.7958 3.97204 32.851 3.86613C32.8755 3.81317 32.8816 3.76021 32.8694 3.70137C32.8326 3.52484 32.8142 3.34832 32.7774 3.17768C32.7529 3.07176 32.7223 2.97173 32.6916 2.87758C32.6732 2.81874 32.6303 2.77755 32.5567 2.77167C32.4832 2.7599 32.428 2.7952 32.3973 2.84816C32.3605 2.89523 32.3299 2.94231 32.3053 2.99527C32.2624 3.08941 32.2256 3.18356 32.1766 3.27182C32.1704 3.29536 32.1643 3.31301 32.1521 3.33066C32.146 3.31889 32.1398 3.31301 32.1398 3.31301C32.0601 3.16591 31.9865 3.0188 31.9069 2.87758C31.8946 2.86581 31.8884 2.85404 31.8823 2.84228C31.8455 2.78932 31.8026 2.7599 31.7352 2.7599C31.6739 2.76578 31.6248 2.80109 31.5942 2.85404C31.5819 2.87758 31.5819 2.89523 31.5758 2.91877C31.5512 3.10707 31.5206 3.29536 31.4961 3.48365C31.4838 3.58957 31.4777 3.69548 31.4777 3.8014C31.4716 3.82494 31.4777 3.85436 31.4899 3.8779C31.5022 3.92497 31.539 3.95439 31.588 3.96027C31.6493 3.96616 31.6922 3.94851 31.7107 3.90143C31.729 3.86613 31.7352 3.83671 31.7413 3.80729C31.7659 3.70137 31.7842 3.60134 31.8026 3.50131C31.8149 3.44247 31.821 3.39539 31.8394 3.33066C31.8517 3.3542 31.8639 3.37186 31.8762 3.3895C31.9313 3.46012 31.9865 3.53073 32.054 3.58957C32.1214 3.63664 32.1766 3.63076 32.2318 3.5778C32.2441 3.56603 32.2502 3.56015 32.2624 3.54838C32.3176 3.466 32.3851 3.38362 32.4402 3.30124C32.4525 3.28947 32.4586 3.27771 32.4709 3.26594Z" fill="#3A3B7B"/>
<path d="M18.3447 3.11087C18.3021 3.2227 18.294 3.30326 18.3136 3.37022C18.3354 3.46128 18.3918 3.49109 18.4683 3.46793C19.1884 3.29703 20.7675 3.78213 21.3521 3.91734C21.49 3.94573 21.6022 3.7749 21.5081 3.62175C21.3708 3.47342 19.7924 2.8384 19.1902 2.80378C18.9541 2.79098 18.5321 2.73288 18.3447 3.11087Z" fill="#3A3B7B"/>
<path d="M24.516 1.05525C24.5928 1.09777 24.6357 1.13832 24.6568 1.18364C24.6884 1.24308 24.6717 1.2842 24.6187 1.30518C24.1427 1.52816 23.5093 2.4881 23.2536 2.81917C23.1917 2.89533 23.0487 2.85107 23.0271 2.72583C23.0315 2.58422 23.593 1.54247 23.9064 1.25873C24.0295 1.14795 24.233 0.930586 24.516 1.05525Z" fill="#3A3B7B"/>
<path d="M20.7252 0.582699C20.8174 0.516004 20.9132 0.492632 20.9622 0.535976C21.6804 1.12548 22.0612 2.059 22.297 2.91362C22.3059 2.93353 22.3065 2.9621 22.2994 2.99191C22.2964 3.01739 22.277 3.0443 22.2462 3.06512C22.2133 3.08811 22.185 3.09511 22.1717 3.0753C21.8569 2.66439 20.0591 1.06561 20.7252 0.582699Z" fill="#3A3B7B"/>
<path d="M5.5167 10.8031C5.68883 10.6801 5.87596 10.5777 6.07398 10.4983C6.28116 10.4414 6.50199 10.4508 6.7031 10.5252C6.90416 10.5995 7.0746 10.7346 7.18855 10.9101C7.29048 11.0852 7.33034 11.2873 7.30221 11.4861C7.27407 11.6848 7.17943 11.8693 7.03249 12.012C6.9186 12.1276 6.78928 12.2283 6.648 12.3115C6.01827 12.702 5.38294 13.071 4.74765 13.4615C4.61765 13.5592 4.47974 13.6468 4.33525 13.7235C4.11547 13.8287 3.86429 13.8569 3.62514 13.8032C3.386 13.7495 3.17394 13.6173 3.02563 13.4294C2.91476 13.2963 2.82119 13.1509 2.74699 12.9961C2.14512 11.782 1.52096 10.5732 0.941383 9.33759C0.673885 8.80275 0.456544 8.18763 0.244776 7.59393C0.153155 7.42143 0.135264 7.22145 0.194911 7.03647C0.254559 6.8515 0.38704 6.69616 0.564172 6.60348C0.741306 6.51081 0.949113 6.48815 1.1434 6.54026C1.3377 6.59238 1.50314 6.71519 1.60455 6.88255C1.91626 7.28013 2.19218 7.70243 2.42933 8.14487C3.0312 9.21459 3.60521 10.2843 4.18478 11.322C4.21853 11.3793 4.25574 11.4346 4.29624 11.4878C4.73247 11.3117 5.14277 11.0816 5.5167 10.8031Z" fill="#3A3B7B"/>
<path d="M11.7396 10.43C10.3631 11.9757 8.05594 11.5853 6.8968 9.59558C6.072 8.18353 5.92712 5.85149 7.72159 4.3806C8.10478 4.07266 8.56298 3.86289 9.05348 3.77085C9.65488 3.6881 10.2682 3.78993 10.8056 4.06179C11.3431 4.33365 11.7773 4.76161 12.0461 5.28454C13.0269 6.99613 12.8876 9.17837 11.7396 10.43ZM11.1823 6.82496C11.0361 6.40436 10.7427 6.04528 10.3519 5.80869C10.1308 5.65743 9.86215 5.58389 9.59118 5.60045C9.32016 5.61701 9.06339 5.72267 8.86401 5.89961C8.06711 6.57892 7.89989 8.18889 8.47947 9.14631C8.55336 9.30243 8.66183 9.44116 8.79741 9.55282C8.93299 9.66449 9.09236 9.74638 9.26435 9.79272C9.43634 9.8391 9.61679 9.84882 9.79312 9.82125C9.96946 9.79363 10.1373 9.72941 10.2851 9.63302C10.7171 9.31156 11.034 8.86893 11.1918 8.36667C11.3496 7.86436 11.3405 7.32736 11.1656 6.83033L11.1823 6.82496Z" fill="#3A3B7B"/>
<path d="M17.3571 7.49889C17.2161 7.52797 17.0706 7.52972 16.9289 7.50398C16.7873 7.47824 16.6524 7.42562 16.5323 7.34914C16.4272 7.29143 16.3367 7.21211 16.2674 7.11682C16.198 7.02153 16.1516 6.91271 16.1314 6.79811C16.1111 6.68355 16.1176 6.56611 16.1502 6.45421C16.1829 6.34232 16.2411 6.23877 16.3205 6.15101C16.4589 5.97466 16.6553 5.8484 16.8778 5.79266C17.4589 5.63081 18.0571 5.53213 18.6611 5.4985C18.7939 5.48368 18.9283 5.49446 19.0566 5.5302C19.1849 5.56598 19.3045 5.62595 19.4083 5.70669C19.5121 5.78739 19.5981 5.88722 19.6612 6.00026C19.7243 6.1133 19.7632 6.23731 19.7757 6.36498C19.9498 6.99213 19.9689 7.64969 19.8314 8.28518C19.3299 10.3391 17.6023 11.0451 15.6629 10.3872C15.1185 10.2113 14.6412 9.88354 14.292 9.44583C13.8262 8.9187 13.496 8.29399 13.3279 7.62193C13.1917 7.02346 13.2066 6.40246 13.3714 5.81069C13.5362 5.21892 13.8461 4.67356 14.2753 4.22015C14.6825 3.72735 15.2111 3.33952 15.8134 3.09157C16.194 2.89024 16.6393 2.83299 17.0617 2.93111C17.1575 2.95657 17.2445 3.00616 17.3136 3.07475C17.3828 3.14335 17.4315 3.22843 17.4548 3.3212C17.4781 3.41397 17.4752 3.51103 17.4462 3.60232C17.4173 3.69362 17.3634 3.77581 17.2902 3.84039C17.151 3.9613 16.9998 4.06879 16.8388 4.16131C16.3433 4.46413 15.9122 4.85434 15.5682 5.31127C15.3427 5.60695 15.1874 5.94649 15.1133 6.30594C15.0391 6.66539 15.0479 7.03608 15.1391 7.39195C15.2655 7.87714 15.5459 8.31266 15.9416 8.63816C17.1676 9.70792 18.7614 8.67559 18.4828 7.21541C18.076 7.31171 17.7193 7.41333 17.3571 7.49889Z" fill="#3A3B7B"/>
<path d="M24.847 10.5155C23.0359 11.5853 20.9739 10.5155 20.5225 8.26912C20.1937 6.66452 20.8179 4.41805 23.0025 3.56226C23.4672 3.3841 23.9714 3.32154 24.4681 3.3804C25.0649 3.48525 25.6123 3.76723 26.0332 4.18658C26.4542 4.60593 26.7274 5.14148 26.8143 5.71779C27.1821 7.62725 26.3461 9.66512 24.847 10.5155ZM25.4768 6.91588C25.4762 6.47155 25.3125 6.04159 25.0143 5.70173C24.8548 5.49152 24.6244 5.34091 24.3622 5.27553C24.1 5.2102 23.8223 5.23415 23.5764 5.34339C22.5956 5.74986 21.9046 7.2261 22.1554 8.31192C22.1745 8.48231 22.2322 8.64664 22.3244 8.79341C22.4166 8.94017 22.5411 9.06582 22.6892 9.16162C22.8373 9.25736 23.0054 9.32095 23.1817 9.34788C23.3581 9.37476 23.5385 9.36439 23.7102 9.31746C24.2286 9.14363 24.6775 8.81878 24.9942 8.38822C25.3109 7.95766 25.4797 7.44291 25.4768 6.91588Z" fill="#3A3B7B"/>
<path d="M28.6458 10.9649C28.6185 11.1606 28.5112 11.338 28.3477 11.4578C28.1841 11.5777 27.9776 11.6303 27.7737 11.604C27.5697 11.5778 27.385 11.4748 27.2601 11.3179C27.1351 11.1609 27.0804 10.9627 27.1077 10.767C27.1351 10.5712 27.2423 10.3939 27.4058 10.274C27.5694 10.1541 27.7759 10.1016 27.9799 10.1278C28.1838 10.154 28.3686 10.2569 28.4935 10.4139C28.6184 10.5709 28.6732 10.7691 28.6458 10.9649ZM28.161 3.74946C28.267 3.5941 28.4224 3.47579 28.6042 3.41217C28.786 3.34855 28.9844 3.34304 29.1697 3.39645C29.3581 3.44169 29.5245 3.54767 29.6412 3.69665C29.7578 3.84563 29.8176 4.02856 29.8106 4.2148C29.786 4.51354 29.7394 4.81024 29.6712 5.10267C29.4873 6.0922 29.309 7.08168 29.114 8.06052C29.0248 8.45098 28.9078 8.82539 28.7796 9.22117C28.735 9.3449 28.6605 9.45671 28.5622 9.54745C28.5011 9.61572 28.4231 9.66806 28.3354 9.69967C28.2476 9.73133 28.153 9.74119 28.0602 9.72839C27.9674 9.71559 27.8795 9.68054 27.8045 9.6265C27.7296 9.57241 27.6701 9.50107 27.6316 9.41909C27.5653 9.272 27.5293 9.11396 27.5257 8.95375C27.5257 8.29051 27.5257 7.62193 27.5703 6.95332C27.646 5.99916 27.795 5.05165 28.0161 4.11852C28.0421 3.99351 28.0911 3.87396 28.161 3.76551V3.74946Z" fill="#3A3B7B"/>
<path fill-rule="evenodd" clip-rule="evenodd" d="M3.16219 15.263C3.09639 15.404 3.07834 15.5611 3.1105 15.7124C3.13189 15.9118 3.17887 16.1079 3.25038 16.2963C3.33966 16.527 3.43955 16.7551 3.56273 17.0362C3.59106 17.1009 3.62066 17.1684 3.65164 17.2395C3.81775 17.6203 4.02617 18.1071 4.30418 18.8116C4.38287 19.0117 4.45275 19.2134 4.52311 19.4166C4.55154 19.4987 4.58006 19.581 4.60926 19.6635C4.71393 19.957 4.89404 20.2206 5.13276 20.4295C5.23414 20.5443 5.3686 20.628 5.51937 20.6699C5.67308 20.7125 5.83656 20.7098 5.98864 20.6621C6.14072 20.6143 6.27429 20.5238 6.37202 20.4022C6.46783 20.2829 6.5248 20.1392 6.53588 19.9891C6.59803 19.6967 6.57682 19.3935 6.47437 19.1116C6.31178 18.6435 6.12656 18.1747 5.91298 17.7162L5.912 17.7142C5.56063 16.9969 5.20348 16.2845 4.82942 15.5718L4.82662 15.5668C4.71712 15.3812 4.57481 15.2152 4.40609 15.0764C4.29656 14.9524 4.14548 14.8689 3.97863 14.84C3.80823 14.8106 3.63248 14.8403 3.48277 14.9237C3.34114 15.0014 3.22887 15.1201 3.16219 15.263Z" fill="#3A3B7B"/>
<path fill-rule="evenodd" clip-rule="evenodd" d="M8.52871 13.4966C7.97778 13.3596 7.40242 13.3397 6.8427 13.4381C6.40918 13.4791 5.98281 13.5751 5.68673 13.7652C5.53615 13.862 5.4144 13.9862 5.34668 14.1441C5.27859 14.3029 5.26989 14.4845 5.3257 14.6868C5.42758 15.0574 5.55989 15.4177 5.69173 15.7769L5.71309 15.8351L5.71361 15.8363C6.11058 16.8798 6.51135 17.9197 6.91575 18.956C6.96291 19.1193 7.0296 19.2769 7.11447 19.4255L7.11606 19.4282C7.22818 19.6128 7.37199 19.7779 7.54141 19.9166C7.62614 19.9929 7.73092 20.0456 7.84454 20.0692C7.95928 20.093 8.07859 20.0861 8.1895 20.0492C8.30045 20.0124 8.39869 19.947 8.47356 19.8602C8.54722 19.7748 8.59545 19.672 8.61316 19.5625C8.68626 19.2651 8.66284 18.9534 8.546 18.6691C8.50955 18.5735 8.48094 18.4757 8.4508 18.3728C8.44075 18.3385 8.43056 18.3036 8.41981 18.268C9.34552 17.9207 10.3305 17.4537 10.6768 16.3674C10.8125 15.992 10.8238 15.5854 10.7092 15.2035C10.5945 14.8213 10.3592 14.4824 10.0357 14.2337C9.59537 13.8854 9.08104 13.6339 8.52871 13.4966ZM7.00161 14.8291C7.01983 14.8241 7.0382 14.8194 7.05662 14.815C7.65928 14.7241 8.27587 14.8452 8.79286 15.1561C9.0207 15.3082 9.11403 15.4772 9.13006 15.6398C9.14661 15.8072 9.08319 15.9886 8.95578 16.1629C8.71505 16.4923 8.27573 16.756 7.87889 16.8051C7.58959 16.1657 7.29581 15.5004 7.00161 14.8291Z" fill="#3A3B7B"/>
<g filter="url(#filter0_d_211_2057)">
<path d="M12.2016 12.3261C12.8577 12.0353 13.6704 11.9851 14.3064 12.1896C14.4665 12.2343 14.6055 12.3312 14.6995 12.4635C14.7928 12.5951 14.8359 12.7536 14.8215 12.912C14.8206 13.0149 14.7943 13.1161 14.7448 13.2074C14.6944 13.3003 14.6215 13.3803 14.5321 13.4405C14.4427 13.5006 14.3396 13.5393 14.2314 13.5531C14.1232 13.5669 14.0131 13.5556 13.9104 13.5199L13.9026 13.5172L13.8953 13.5135C13.8427 13.4871 13.7869 13.4672 13.7292 13.4543L13.7256 13.4535C13.2782 13.3395 12.8562 13.5284 12.7021 13.7606C12.6286 13.8713 12.6195 13.9831 12.6807 14.0848C12.7463 14.1936 12.9071 14.3158 13.2325 14.4029C13.322 14.4264 13.4137 14.4492 13.5068 14.4723C13.7641 14.5363 14.0316 14.6027 14.2901 14.6948L14.2911 14.6952C15.4841 15.1308 15.9283 16.0331 15.7763 16.8817C15.6258 17.7209 14.8956 18.4847 13.7974 18.6649C13.3978 18.7499 12.982 18.7333 12.591 18.6168C12.1991 18.5 11.8458 18.2868 11.5663 17.9983L11.559 17.9908C11.4707 17.8821 11.4114 17.7544 11.3851 17.619C11.3609 17.4967 11.3736 17.3703 11.4218 17.2548C11.4696 17.1399 11.5506 17.0405 11.655 16.968C11.7654 16.8859 11.8984 16.8367 12.0376 16.8264C12.1764 16.8161 12.3152 16.8451 12.4371 16.9096C12.5588 16.966 12.672 17.038 12.7736 17.1236L12.7755 17.1252C12.9552 17.283 13.1727 17.3241 13.3812 17.286C13.5928 17.2474 13.7917 17.1272 13.9197 16.9678C14.0468 16.8094 14.0979 16.6212 14.0373 16.4385C13.9764 16.2545 13.7931 16.0483 13.3905 15.8759C13.2852 15.833 13.1761 15.7985 13.0626 15.7648C13.032 15.7557 13.0008 15.7467 12.9693 15.7375C12.8854 15.713 12.799 15.6878 12.7143 15.6601C12.656 15.641 12.5982 15.6229 12.5409 15.605C12.3842 15.556 12.2316 15.5083 12.0846 15.4443C11.7648 15.3398 11.4885 15.1392 11.2968 14.872C11.1044 14.6038 11.0075 14.2831 11.0207 13.9577C11.0217 13.1648 11.5421 12.6186 12.2016 12.3261Z" fill="#3A3B7B"/>
</g>
<path d="M20.5194 12.2417C20.3922 12.1821 20.2515 12.1537 20.1101 12.1593C19.9687 12.1649 19.8309 12.2042 19.7092 12.2737C19.5883 12.3427 19.4871 12.4393 19.4145 12.5549C19.348 12.6523 19.302 12.7613 19.2791 12.8756C19.2561 12.9899 19.2567 13.1074 19.2806 13.2214C19.3043 13.3679 19.3306 13.5104 19.3565 13.6509C19.3995 13.8835 19.4413 14.1108 19.4689 14.3426L19.4699 14.3484C19.5326 14.7119 19.5655 15.0795 19.5684 15.4479L19.5687 15.4532C19.5902 15.851 19.4489 16.2411 19.1753 16.5407L19.171 16.546C19.0819 16.6555 18.9629 16.7391 18.8271 16.7874C18.6914 16.8357 18.5444 16.8468 18.4024 16.8195C18.2605 16.7921 18.1293 16.7274 18.0235 16.6326C17.9177 16.5378 17.8414 16.4162 17.8033 16.2822C17.722 15.9997 17.6749 15.7092 17.6629 15.4164L17.8018 13.294C17.8039 13.2663 17.8062 13.2378 17.8086 13.2091C17.8139 13.1447 17.8193 13.079 17.8215 13.0178C17.8248 12.9277 17.822 12.835 17.8001 12.7473C17.7778 12.6576 17.7352 12.5723 17.6597 12.4997C17.5849 12.4278 17.4839 12.3748 17.3569 12.3387C17.1272 12.2749 16.933 12.2769 16.7711 12.3428C16.6092 12.4087 16.4982 12.5311 16.4197 12.6725C16.3418 12.8127 16.2917 12.9787 16.2539 13.145C16.2258 13.2683 16.2032 13.3978 16.1818 13.5211C16.1743 13.5636 16.1671 13.6053 16.1598 13.6458L16.1596 13.647C16.0448 14.3231 16.0106 15.0095 16.0577 15.693C16.0665 16.0623 16.1468 16.4269 16.2944 16.7681C16.4611 17.2083 16.7628 17.5897 17.16 17.862C17.5579 18.1349 18.0328 18.2852 18.5217 18.2931C19.0107 18.3011 19.4906 18.1662 19.898 17.9065C20.3047 17.6472 20.6199 17.2755 20.8019 16.8406C21.0564 16.2867 21.176 15.6842 21.1513 15.0792C21.1364 14.6375 21.1113 14.1924 21.0864 13.7495C21.0741 13.5323 21.0619 13.3155 21.051 13.1001C21.0455 12.884 20.9713 12.6748 20.8383 12.5004C20.756 12.3902 20.6464 12.3012 20.5194 12.2417Z" fill="#3A3B7B"/>
<path d="M25.0221 15.5697C25.0092 15.5854 24.9956 15.6017 24.9814 15.6186C24.8779 15.0457 24.782 14.473 24.6859 13.8994C24.6515 13.6936 24.6169 13.4869 24.582 13.2808L24.5781 13.2578L24.5654 13.238C24.5414 13.2006 24.539 13.1639 24.539 13.0857V13.0767L24.5376 13.0678C24.5116 12.9063 24.4355 12.7561 24.3193 12.6367C24.2034 12.5176 24.0528 12.4348 23.8873 12.3988C23.722 12.3597 23.5482 12.3683 23.388 12.4236C23.2281 12.4788 23.0888 12.578 22.9874 12.7088C22.9031 12.8091 22.834 12.9204 22.7822 13.0393C22.6646 13.2955 22.5461 13.5523 22.4272 13.8098L22.4251 13.8143C22.1283 14.4571 21.8295 15.1043 21.5393 15.7566L21.5384 15.7587C21.3603 16.1817 21.2133 16.6273 21.0668 17.0716C21.0375 17.1603 21.0083 17.2489 20.9788 17.3373C20.9259 17.4775 20.9027 17.6264 20.9107 17.7753C20.9011 17.9086 20.9343 18.0415 21.006 18.1562C21.0791 18.2732 21.1886 18.3652 21.319 18.4194C21.4573 18.4776 21.6118 18.4899 21.7582 18.4545C21.9043 18.4191 22.0341 18.3382 22.127 18.2244C22.2457 18.0843 22.3479 17.9314 22.4312 17.7694C22.6769 17.2869 22.9118 16.7985 23.1457 16.3122C23.2361 16.1241 23.324 15.9556 23.4241 15.7722C23.4309 15.7948 23.4379 15.8169 23.4452 15.839C23.55 16.2819 23.727 16.7062 23.9695 17.0962C24.0154 17.1789 24.0793 17.2511 24.1569 17.3079C24.2354 17.3654 24.326 17.4058 24.4224 17.4263C24.5189 17.4468 24.6188 17.4469 24.7152 17.4266C24.8116 17.4063 24.9025 17.3659 24.981 17.3087L25.1365 17.1969L26.3434 16.2213L26.272 16.6578C26.1741 17.2578 26.0768 17.8528 25.9736 18.448C25.906 18.7118 25.9061 18.9873 25.9738 19.2511C26.0032 19.3995 26.078 19.5361 26.1886 19.6435C26.3002 19.7518 26.4432 19.8254 26.5989 19.8548C26.7546 19.8841 26.9159 19.8679 27.0619 19.8081C27.2058 19.7492 27.3281 19.6508 27.4136 19.5253C27.6126 19.2883 27.7365 19.0015 27.7705 18.6988C27.8217 18.2714 27.8796 17.8382 27.9375 17.4051C28.0042 16.9059 28.0709 16.4069 28.1272 15.9174L28.1274 15.9159C28.1816 15.3801 28.2078 14.8421 28.206 14.3038C28.2179 14.1337 28.1738 13.9642 28.0797 13.8194C27.9854 13.674 27.8456 13.561 27.6805 13.4964C27.5087 13.4214 27.3163 13.4014 27.1318 13.4393C26.9484 13.4769 26.7825 13.5697 26.658 13.704C26.4354 13.9016 26.2265 14.1131 26.0328 14.337L26.0315 14.3385C25.82 14.5914 25.61 14.8493 25.4013 15.1055C25.2744 15.2613 25.1479 15.4167 25.0221 15.5697Z" fill="#3A3B7B"/>
</g>
<defs>
<filter id="filter0_d_211_2057" x="7.01953" y="12.0655" width="12.7855" height="14.6528" filterUnits="userSpaceOnUse" color-interpolation-filters="sRGB">
<feFlood flood-opacity="0" result="BackgroundImageFix"/>
<feColorMatrix in="SourceAlpha" type="matrix" values="0 0 0 0 0 0 0 0 0 0 0 0 0 0 0 0 0 0 127 0" result="hardAlpha"/>
<feOffset dy="4"/>
<feGaussianBlur stdDeviation="2"/>
<feComposite in2="hardAlpha" operator="out"/>
<feColorMatrix type="matrix" values="0 0 0 0 0 0 0 0 0 0 0 0 0 0 0 0 0 0 0.25 0"/>
<feBlend mode="normal" in2="BackgroundImageFix" result="effect1_dropShadow_211_2057"/>
<feBlend mode="normal" in="SourceGraphic" in2="effect1_dropShadow_211_2057" result="shape"/>
</filter>
<clipPath id="clip0_211_2057">
<rect width="32.7153" height="20.186" fill="white" transform="translate(0.160278 0.513992)"/>
</clipPath>
</defs>
</svg>
