<svg width="28" height="21" viewBox="0 0 28 21" fill="none" xmlns="http://www.w3.org/2000/svg">
<g clip-path="url(#clip0_211_2050)">
<g filter="url(#filter0_d_211_2050)">
<path fill-rule="evenodd" clip-rule="evenodd" d="M7.04577 3.37805L0.0949707 10.259C1.48526 11.6353 3.07345 12.7952 4.80502 13.7027C5.28364 14.9595 6.03386 16.1382 7.05567 17.1497C10.9 20.9553 17.1328 20.9553 20.9771 17.1497C21.9989 16.1382 22.7491 14.9595 23.2277 13.7026C24.9593 12.7952 26.5475 11.6353 27.9377 10.259L20.9926 3.38365C20.9874 3.3785 20.9823 3.37336 20.9771 3.36822C17.1328 -0.437418 10.9 -0.437418 7.05567 3.36822C7.05237 3.3715 7.04907 3.37477 7.04577 3.37805ZM20.312 14.9441C18.2864 15.6209 16.16 15.9674 14.0164 15.9674C11.8727 15.9674 9.74639 15.6209 7.72083 14.9441C7.9403 15.2324 8.1826 15.509 8.4478 15.7716C11.5232 18.8161 16.5095 18.8161 19.5849 15.7716C19.8501 15.509 20.0925 15.2324 20.312 14.9441ZM8.59057 4.60855C9.11283 4.95012 9.66815 5.2424 10.2492 5.4807C11.4435 5.97042 12.7236 6.22248 14.0164 6.22248C15.3091 6.22248 16.5892 5.97042 17.7835 5.4807C18.3646 5.2424 18.9199 4.95011 19.4422 4.60854C16.4051 1.74779 11.6276 1.7478 8.59057 4.60855Z" fill="#3B4158"/>
</g>
</g>
<defs>
<filter id="filter0_d_211_2050" x="-3.90503" y="0.513992" width="35.8428" height="27.4899" filterUnits="userSpaceOnUse" color-interpolation-filters="sRGB">
<feFlood flood-opacity="0" result="BackgroundImageFix"/>
<feColorMatrix in="SourceAlpha" type="matrix" values="0 0 0 0 0 0 0 0 0 0 0 0 0 0 0 0 0 0 127 0" result="hardAlpha"/>
<feOffset dy="4"/>
<feGaussianBlur stdDeviation="2"/>
<feComposite in2="hardAlpha" operator="out"/>
<feColorMatrix type="matrix" values="0 0 0 0 0 0 0 0 0 0 0 0 0 0 0 0 0 0 0.25 0"/>
<feBlend mode="normal" in2="BackgroundImageFix" result="effect1_dropShadow_211_2050"/>
<feBlend mode="normal" in="SourceGraphic" in2="effect1_dropShadow_211_2050" result="shape"/>
</filter>
<clipPath id="clip0_211_2050">
<rect width="27.8428" height="19.4899" fill="white" transform="translate(0.0949707 0.513992)"/>
</clipPath>
</defs>
</svg>
