<svg width="36" height="40" viewBox="0 0 36 40" fill="none" xmlns="http://www.w3.org/2000/svg">
<g filter="url(#filter0_d_211_2046)">
<g clip-path="url(#clip0_211_2046)">
<path fill-rule="evenodd" clip-rule="evenodd" d="M10.979 3.44421C14.8233 3.44421 17.9397 6.56062 17.9397 10.4049V3.44421H24.9004C28.7446 3.44421 31.8611 6.56062 31.8611 10.4049C31.8611 14.2492 28.7446 17.3656 24.9004 17.3656C28.7446 17.3656 31.8611 20.482 31.8611 24.3263C31.8611 26.2351 31.0927 27.9645 29.8484 29.222L29.8224 29.2483L29.7993 29.2712C28.5415 30.5173 26.8108 31.287 24.9004 31.287C23.003 31.287 21.2829 30.5278 20.0272 29.2966C20.0109 29.2806 19.9946 29.2644 19.9784 29.2483C19.9632 29.233 19.948 29.2177 19.9329 29.2023C18.7001 27.9465 17.9397 26.2252 17.9397 24.3263C17.9397 28.1706 14.8233 31.287 10.979 31.287C7.13472 31.287 4.01831 28.1706 4.01831 24.3263V17.3656H10.979C7.13472 17.3656 4.01831 14.2492 4.01831 10.4049C4.01831 6.56062 7.13472 3.44421 10.979 3.44421ZM16.5476 10.4049C16.5476 13.4804 14.0544 15.9735 10.979 15.9735V4.83635C14.0544 4.83635 16.5476 7.32948 16.5476 10.4049ZM30.469 24.3263C30.469 21.2509 27.9758 18.7577 24.9004 18.7577C21.825 18.7577 19.3318 21.2509 19.3318 24.3263H30.469ZM5.41045 18.7577V24.3263C5.41045 27.4017 7.90358 29.8949 10.979 29.8949C14.0544 29.8949 16.5476 27.4017 16.5476 24.3263V18.7577H5.41045ZM19.3318 15.9735V4.83635H24.9004C27.9758 4.83635 30.469 7.32948 30.469 10.4049C30.469 13.4804 27.9758 15.9735 24.9004 15.9735H19.3318Z" fill="#263238"/>
</g>
</g>
<defs>
<filter id="filter0_d_211_2046" x="-2.76611" y="0.659943" width="41.4114" height="41.4113" filterUnits="userSpaceOnUse" color-interpolation-filters="sRGB">
<feFlood flood-opacity="0" result="BackgroundImageFix"/>
<feColorMatrix in="SourceAlpha" type="matrix" values="0 0 0 0 0 0 0 0 0 0 0 0 0 0 0 0 0 0 127 0" result="hardAlpha"/>
<feOffset dy="4"/>
<feGaussianBlur stdDeviation="2"/>
<feComposite in2="hardAlpha" operator="out"/>
<feColorMatrix type="matrix" values="0 0 0 0 0 0 0 0 0 0 0 0 0 0 0 0 0 0 0.25 0"/>
<feBlend mode="normal" in2="BackgroundImageFix" result="effect1_dropShadow_211_2046"/>
<feBlend mode="normal" in="SourceGraphic" in2="effect1_dropShadow_211_2046" result="shape"/>
</filter>
<clipPath id="clip0_211_2046">
<rect width="27.8428" height="27.8428" fill="white" transform="translate(4.01831 3.44421)"/>
</clipPath>
</defs>
</svg>
