<svg width="37" height="35" viewBox="0 0 37 35" fill="none" xmlns="http://www.w3.org/2000/svg">
<g clip-path="url(#clip0_211_2076)">
<path d="M8.81739 10.2983C7.40385 10.2983 6.04824 10.8598 5.04873 11.8593L1.78674 15.1213C0.787227 16.1208 0.225708 17.4764 0.225708 18.8899C0.225708 21.8335 2.6119 24.2197 5.55542 24.2197C6.96895 24.2197 8.32457 23.6581 9.32408 22.6586L11.5804 20.4023C11.5804 20.4022 11.5805 20.4023 11.5804 20.4023L18.1546 13.8281C18.632 13.3507 19.2794 13.0825 19.9545 13.0825C21.0847 13.0825 22.0429 13.8192 22.3751 14.8385L24.4499 12.7637C23.5034 11.2813 21.8438 10.2983 19.9545 10.2983C18.541 10.2983 17.1853 10.8598 16.1858 11.8593L7.35532 20.6898C6.87795 21.1672 6.23051 21.4354 5.55542 21.4354C4.14961 21.4354 3.00999 20.2958 3.00999 18.8899C3.00999 18.2148 3.27816 17.5674 3.75552 17.09L7.01749 13.8281C7.49485 13.3507 8.14229 13.0825 8.81739 13.0825C9.94766 13.0825 10.9058 13.8192 11.238 14.8386L13.3129 12.7638C12.3664 11.2813 10.7067 10.2983 8.81739 10.2983Z" fill="#394149"/>
<g filter="url(#filter0_d_211_2076)">
<path d="M18.4924 20.6899C18.0151 21.1672 17.3676 21.4354 16.6925 21.4354C15.5624 21.4354 14.6043 20.6989 14.272 19.6798L12.1973 21.7545C13.1438 23.2368 14.8034 24.2197 16.6925 24.2197C18.1061 24.2197 19.4617 23.6581 20.4612 22.6586L29.2917 13.8281C29.7691 13.3507 30.4165 13.0826 31.0916 13.0826C32.4974 13.0826 33.637 14.2222 33.637 15.628C33.637 16.3031 33.3689 16.9505 32.8915 17.4279L29.6295 20.6899C29.1522 21.1672 28.5047 21.4354 27.8296 21.4354C26.6995 21.4354 25.7413 20.6988 25.409 19.6795L23.3343 21.7543C24.2808 23.2367 25.9404 24.2197 27.8296 24.2197C29.2432 24.2197 30.5988 23.6581 31.5983 22.6586L34.8603 19.3966C35.8598 18.3971 36.4213 17.0415 36.4213 15.628C36.4213 12.6845 34.0351 10.2983 31.0916 10.2983C29.6781 10.2983 28.3225 10.8598 27.3229 11.8593L18.4924 20.6899Z" fill="#394149"/>
</g>
</g>
<defs>
<filter id="filter0_d_211_2076" x="8.19727" y="10.2983" width="32.224" height="21.9214" filterUnits="userSpaceOnUse" color-interpolation-filters="sRGB">
<feFlood flood-opacity="0" result="BackgroundImageFix"/>
<feColorMatrix in="SourceAlpha" type="matrix" values="0 0 0 0 0 0 0 0 0 0 0 0 0 0 0 0 0 0 127 0" result="hardAlpha"/>
<feOffset dy="4"/>
<feGaussianBlur stdDeviation="2"/>
<feComposite in2="hardAlpha" operator="out"/>
<feColorMatrix type="matrix" values="0 0 0 0 0 0 0 0 0 0 0 0 0 0 0 0 0 0 0.25 0"/>
<feBlend mode="normal" in2="BackgroundImageFix" result="effect1_dropShadow_211_2076"/>
<feBlend mode="normal" in="SourceGraphic" in2="effect1_dropShadow_211_2076" result="shape"/>
</filter>
<clipPath id="clip0_211_2076">
<rect width="36.1956" height="13.9214" fill="white" transform="translate(0.225708 10.2983)"/>
</clipPath>
</defs>
</svg>
